{"asset":{"version":"2.0","generator":"tools/build_character.py"},"scene":0,"scenes":[{"nodes":[13]}],"nodes":[{"name":"root","translation":[0.0,0.0,0.0],"children":[1]},{"name":"hips","translation":[0.0,0.22,0.0],"children":[2,3,4]},{"name":"leg_l","translation":[0.165,0.0,0.0]},{"name":"leg_r","translation":[-0.165,0.0,0.0]},{"name":"chest","translation":[0.0,0.22,0.0],"children":[5,7,9]},{"name":"arm_l","translation":[0.396,0.198,0.0],"children":[6]},{"name":"hand_l","translation":[0.154,-0.308,0.033]},{"name":"arm_r","translation":[-0.396,0.198,0.0],"children":[8]},{"name":"hand_r","translation":[-0.154,-0.308,0.033]},{"name":"head","translation":[0.0,0.275,0.0],"children":[10,11]},{"name":"ear_l","translation":[0.462,0.99,0.0]},{"name":"ear_r","translation":[-0.462,0.99,0.0]},{"name":"Bamgeut_Body","mesh":0,"skin":0},{"name":"Bamgeut","children":[0,12]}],"meshes":[{"name":"Bamgeut","primitives":[{"attributes":{"POSITION":0,"NORMAL":1,"TEXCOORD_0":2,"JOINTS_0":3,"WEIGHTS_0":4},"indices":5,"material":0}]}],"skins":[{"joints":[0,1,2,3,4,5,6,7,8,9,10,11],"inverseBindMatrices":6,"skeleton":0}],"materials":[{"name":"Bamgeut","doubleSided":true,"pbrMetallicRoughness":{"baseColorTexture":{"index":0},"metallicFactor":0,"roughnessFactor":0.55},"emissiveTexture":{"index":0},"emissiveFactor":[0.18,0.18,0.18]}],"textures":[{"source":0,"sampler":0}],"samplers":[{"magFilter":9729,"minFilter":9729}],"images":[{"uri":"bamgeut_texture.jpg"}],"animations":[{"name":"Idle","samplers":[{"input":7,"output":8,"interpolation":"LINEAR"},{"input":7,"output":9,"interpolation":"LINEAR"},{"input":7,"output":10,"interpolation":"LINEAR"},{"input":7,"output":11,"interpolation":"LINEAR"},{"input":7,"output":12,"interpolation":"LINEAR"},{"input":7,"output":13,"interpolation":"LINEAR"},{"input":7,"output":14,"interpolation":"LINEAR"}],"channels":[{"sampler":0,"target":{"node":5,"path":"rotation"}},{"sampler":1,"target":{"node":7,"path":"rotation"}},{"sampler":2,"target":{"node":4,"path":"scale"}},{"sampler":3,"target":{"node":10,"path":"rotation"}},{"sampler":4,"target":{"node":11,"path":"rotation"}},{"sampler":5,"target":{"node":9,"path":"rotation"}},{"sampler":6,"target":{"node":1,"path":"translation"}}]},{"name":"Walk","samplers":[{"input":15,"output":16,"interpolation":"LINEAR"},{"input":15,"output":17,"interpolation":"LINEAR"},{"input":15,"output":18,"interpolation":"LINEAR"},{"input":15,"output":19,"interpolation":"LINEAR"},{"input":15,"output":20,"interpolation":"LINEAR"},{"input":15,"output":21,"interpolation":"LINEAR"},{"input":15,"output":22,"interpolation":"LINEAR"},{"input":15,"output":23,"interpolation":"LINEAR"},{"input":15,"output":24,"interpolation":"LINEAR"}],"channels":[{"sampler":0,"target":{"node":5,"path":"rotation"}},{"sampler":1,"target":{"node":7,"path":"rotation"}},{"sampler":2,"target":{"node":10,"path":"rotation"}},{"sampler":3,"target":{"node":11,"path":"rotation"}},{"sampler":4,"target":{"node":9,"path":"rotation"}},{"sampler":5,"target":{"node":1,"path":"rotation"}},{"sampler":6,"target":{"node":1,"path":"translation"}},{"sampler":7,"target":{"node":2,"path":"rotation"}},{"sampler":8,"target":{"node":3,"path":"rotation"}}]},{"name":"Carry","samplers":[{"input":25,"output":26,"interpolation":"LINEAR"},{"input":25,"output":27,"interpolation":"LINEAR"},{"input":25,"output":28,"interpolation":"LINEAR"},{"input":25,"output":29,"interpolation":"LINEAR"},{"input":25,"output":30,"interpolation":"LINEAR"},{"input":25,"output":31,"interpolation":"LINEAR"},{"input":25,"output":32,"interpolation":"LINEAR"},{"input":25,"output":33,"interpolation":"LINEAR"},{"input":25,"output":34,"interpolation":"LINEAR"}],"channels":[{"sampler":0,"target":{"node":5,"path":"rotation"}},{"sampler":1,"target":{"node":7,"path":"rotation"}},{"sampler":2,"target":{"node":10,"path":"rotation"}},{"sampler":3,"target":{"node":11,"path":"rotation"}},{"sampler":4,"target":{"node":9,"path":"rotation"}},{"sampler":5,"target":{"node":1,"path":"rotation"}},{"sampler":6,"target":{"node":1,"path":"translation"}},{"sampler":7,"target":{"node":2,"path":"rotation"}},{"sampler":8,"target":{"node":3,"path":"rotation"}}]},{"name":"Sit","samplers":[{"input":35,"output":36,"interpolation":"LINEAR"},{"input":35,"output":37,"interpolation":"LINEAR"},{"input":35,"output":38,"interpolation":"LINEAR"},{"input":35,"output":39,"interpolation":"LINEAR"},{"input":35,"output":40,"interpolation":"LINEAR"},{"input":35,"output":41,"interpolation":"LINEAR"},{"input":35,"output":42,"interpolation":"LINEAR"}],"channels":[{"sampler":0,"target":{"node":5,"path":"rotation"}},{"sampler":1,"target":{"node":7,"path":"rotation"}},{"sampler":2,"target":{"node":4,"path":"scale"}},{"sampler":3,"target":{"node":9,"path":"rotation"}},{"sampler":4,"target":{"node":1,"path":"translation"}},{"sampler":5,"target":{"node":2,"path":"rotation"}},{"sampler":6,"target":{"node":3,"path":"rotation"}}]},{"name":"Eat","samplers":[{"input":43,"output":44,"interpolation":"LINEAR"},{"input":43,"output":45,"interpolation":"LINEAR"},{"input":43,"output":46,"interpolation":"LINEAR"},{"input":43,"output":47,"interpolation":"LINEAR"},{"input":43,"output":48,"interpolation":"LINEAR"},{"input":43,"output":49,"interpolation":"LINEAR"},{"input":43,"output":50,"interpolation":"LINEAR"}],"channels":[{"sampler":0,"target":{"node":5,"path":"rotation"}},{"sampler":1,"target":{"node":7,"path":"rotation"}},{"sampler":2,"target":{"node":4,"path":"scale"}},{"sampler":3,"target":{"node":9,"path":"rotation"}},{"sampler":4,"target":{"node":1,"path":"translation"}},{"sampler":5,"target":{"node":2,"path":"rotation"}},{"sampler":6,"target":{"node":3,"path":"rotation"}}]},{"name":"Wait","samplers":[{"input":51,"output":52,"interpolation":"LINEAR"},{"input":51,"output":53,"interpolation":"LINEAR"},{"input":51,"output":54,"interpolation":"LINEAR"},{"input":51,"output":55,"interpolation":"LINEAR"},{"input":51,"output":56,"interpolation":"LINEAR"},{"input":51,"output":57,"interpolation":"LINEAR"},{"input":51,"output":58,"interpolation":"LINEAR"}],"channels":[{"sampler":0,"target":{"node":5,"path":"rotation"}},{"sampler":1,"target":{"node":7,"path":"rotation"}},{"sampler":2,"target":{"node":4,"path":"scale"}},{"sampler":3,"target":{"node":9,"path":"rotation"}},{"sampler":4,"target":{"node":1,"path":"translation"}},{"sampler":5,"target":{"node":2,"path":"rotation"}},{"sampler":6,"target":{"node":3,"path":"rotation"}}]},{"name":"Work","samplers":[{"input":59,"output":60,"interpolation":"LINEAR"},{"input":59,"output":61,"interpolation":"LINEAR"},{"input":59,"output":62,"interpolation":"LINEAR"},{"input":59,"output":63,"interpolation":"LINEAR"},{"input":59,"output":64,"interpolation":"LINEAR"},{"input":59,"output":65,"interpolation":"LINEAR"}],"channels":[{"sampler":0,"target":{"node":5,"path":"rotation"}},{"sampler":1,"target":{"node":7,"path":"rotation"}},{"sampler":2,"target":{"node":4,"path":"rotation"}},{"sampler":3,"target":{"node":4,"path":"scale"}},{"sampler":4,"target":{"node":9,"path":"rotation"}},{"sampler":5,"target":{"node":1,"path":"translation"}}]},{"name":"Shake","samplers":[{"input":66,"output":67,"interpolation":"LINEAR"},{"input":66,"output":68,"interpolation":"LINEAR"},{"input":66,"output":69,"interpolation":"LINEAR"},{"input":66,"output":70,"interpolation":"LINEAR"},{"input":66,"output":71,"interpolation":"LINEAR"}],"channels":[{"sampler":0,"target":{"node":5,"path":"rotation"}},{"sampler":1,"target":{"node":7,"path":"rotation"}},{"sampler":2,"target":{"node":4,"path":"rotation"}},{"sampler":3,"target":{"node":9,"path":"rotation"}},{"sampler":4,"target":{"node":1,"path":"translation"}}]},{"name":"Talk","samplers":[{"input":72,"output":73,"interpolation":"LINEAR"},{"input":72,"output":74,"interpolation":"LINEAR"},{"input":72,"output":75,"interpolation":"LINEAR"},{"input":72,"output":76,"interpolation":"LINEAR"},{"input":72,"output":77,"interpolation":"LINEAR"},{"input":72,"output":78,"interpolation":"LINEAR"},{"input":72,"output":79,"interpolation":"LINEAR"}],"channels":[{"sampler":0,"target":{"node":5,"path":"rotation"}},{"sampler":1,"target":{"node":7,"path":"rotation"}},{"sampler":2,"target":{"node":4,"path":"rotation"}},{"sampler":3,"target":{"node":4,"path":"scale"}},{"sampler":4,"target":{"node":10,"path":"rotation"}},{"sampler":5,"target":{"node":11,"path":"rotation"}},{"sampler":6,"target":{"node":9,"path":"rotation"}}]},{"name":"Sweep","samplers":[{"input":80,"output":81,"interpolation":"LINEAR"},{"input":80,"output":82,"interpolation":"LINEAR"},{"input":80,"output":83,"interpolation":"LINEAR"},{"input":80,"output":84,"interpolation":"LINEAR"},{"input":80,"output":85,"interpolation":"LINEAR"}],"channels":[{"sampler":0,"target":{"node":5,"path":"rotation"}},{"sampler":1,"target":{"node":7,"path":"rotation"}},{"sampler":2,"target":{"node":4,"path":"rotation"}},{"sampler":3,"target":{"node":9,"path":"rotation"}},{"sampler":4,"target":{"node":1,"path":"rotation"}}]},{"name":"Repair","samplers":[{"input":86,"output":87,"interpolation":"LINEAR"},{"input":86,"output":88,"interpolation":"LINEAR"},{"input":86,"output":89,"interpolation":"LINEAR"},{"input":86,"output":90,"interpolation":"LINEAR"},{"input":86,"output":91,"interpolation":"LINEAR"}],"channels":[{"sampler":0,"target":{"node":5,"path":"rotation"}},{"sampler":1,"target":{"node":7,"path":"rotation"}},{"sampler":2,"target":{"node":4,"path":"rotation"}},{"sampler":3,"target":{"node":9,"path":"rotation"}},{"sampler":4,"target":{"node":1,"path":"translation"}}]},{"name":"Nap","samplers":[{"input":92,"output":93,"interpolation":"LINEAR"},{"input":92,"output":94,"interpolation":"LINEAR"},{"input":92,"output":95,"interpolation":"LINEAR"},{"input":92,"output":96,"interpolation":"LINEAR"},{"input":92,"output":97,"interpolation":"LINEAR"},{"input":92,"output":98,"interpolation":"LINEAR"},{"input":92,"output":99,"interpolation":"LINEAR"},{"input":92,"output":100,"interpolation":"LINEAR"},{"input":92,"output":101,"interpolation":"LINEAR"},{"input":92,"output":102,"interpolation":"LINEAR"}],"channels":[{"sampler":0,"target":{"node":5,"path":"rotation"}},{"sampler":1,"target":{"node":7,"path":"rotation"}},{"sampler":2,"target":{"node":4,"path":"rotation"}},{"sampler":3,"target":{"node":4,"path":"scale"}},{"sampler":4,"target":{"node":10,"path":"rotation"}},{"sampler":5,"target":{"node":11,"path":"rotation"}},{"sampler":6,"target":{"node":9,"path":"rotation"}},{"sampler":7,"target":{"node":1,"path":"translation"}},{"sampler":8,"target":{"node":2,"path":"rotation"}},{"sampler":9,"target":{"node":3,"path":"rotation"}}]},{"name":"Cheer","samplers":[{"input":103,"output":104,"interpolation":"LINEAR"},{"input":103,"output":105,"interpolation":"LINEAR"},{"input":103,"output":106,"interpolation":"LINEAR"},{"input":103,"output":107,"interpolation":"LINEAR"},{"input":103,"output":108,"interpolation":"LINEAR"},{"input":103,"output":109,"interpolation":"LINEAR"},{"input":103,"output":110,"interpolation":"LINEAR"},{"input":103,"output":111,"interpolation":"LINEAR"},{"input":103,"output":112,"interpolation":"LINEAR"}],"channels":[{"sampler":0,"target":{"node":5,"path":"rotation"}},{"sampler":1,"target":{"node":7,"path":"rotation"}},{"sampler":2,"target":{"node":4,"path":"scale"}},{"sampler":3,"target":{"node":10,"path":"rotation"}},{"sampler":4,"target":{"node":11,"path":"rotation"}},{"sampler":5,"target":{"node":9,"path":"rotation"}},{"sampler":6,"target":{"node":1,"path":"translation"}},{"sampler":7,"target":{"node":2,"path":"rotation"}},{"sampler":8,"target":{"node":3,"path":"rotation"}}]},{"name":"Hit","samplers":[{"input":113,"output":114,"interpolation":"LINEAR"},{"input":113,"output":115,"interpolation":"LINEAR"},{"input":113,"output":116,"interpolation":"LINEAR"},{"input":113,"output":117,"interpolation":"LINEAR"},{"input":113,"output":118,"interpolation":"LINEAR"},{"input":113,"output":119,"interpolation":"LINEAR"},{"input":113,"output":120,"interpolation":"LINEAR"},{"input":113,"output":121,"interpolation":"LINEAR"}],"channels":[{"sampler":0,"target":{"node":5,"path":"rotation"}},{"sampler":1,"target":{"node":7,"path":"rotation"}},{"sampler":2,"target":{"node":4,"path":"scale"}},{"sampler":3,"target":{"node":10,"path":"rotation"}},{"sampler":4,"target":{"node":11,"path":"rotation"}},{"sampler":5,"target":{"node":9,"path":"rotation"}},{"sampler":6,"target":{"node":1,"path":"rotation"}},{"sampler":7,"target":{"node":1,"path":"translation"}}]},{"name":"Pickup","samplers":[{"input":122,"output":123,"interpolation":"LINEAR"},{"input":122,"output":124,"interpolation":"LINEAR"},{"input":122,"output":125,"interpolation":"LINEAR"},{"input":122,"output":126,"interpolation":"LINEAR"},{"input":122,"output":127,"interpolation":"LINEAR"}],"channels":[{"sampler":0,"target":{"node":5,"path":"rotation"}},{"sampler":1,"target":{"node":7,"path":"rotation"}},{"sampler":2,"target":{"node":4,"path":"rotation"}},{"sampler":3,"target":{"node":9,"path":"rotation"}},{"sampler":4,"target":{"node":1,"path":"translation"}}]}],"buffers":[{"uri":"Bamgeut.bin","byteLength":632824}],"bufferViews":[{"buffer":0,"byteOffset":0,"byteLength":112200,"target":34962},{"buffer":0,"byteOffset":112200,"byteLength":112200,"target":34962},{"buffer":0,"byteOffset":224400,"byteLength":74800,"target":34962},{"buffer":0,"byteOffset":299200,"byteLength":37400,"target":34962},{"buffer":0,"byteOffset":336600,"byteLength":149600,"target":34962},{"buffer":0,"byteOffset":486200,"byteLength":74718,"target":34963},{"buffer":0,"byteOffset":560920,"byteLength":768},{"buffer":0,"byteOffset":561688,"byteLength":292},{"buffer":0,"byteOffset":561980,"byteLength":1168},{"buffer":0,"byteOffset":563148,"byteLength":1168},{"buffer":0,"byteOffset":564316,"byteLength":876},{"buffer":0,"byteOffset":565192,"byteLength":1168},{"buffer":0,"byteOffset":566360,"byteLength":1168},{"buffer":0,"byteOffset":567528,"byteLength":1168},{"buffer":0,"byteOffset":568696,"byteLength":876},{"buffer":0,"byteOffset":569572,"byteLength":60},{"buffer":0,"byteOffset":569632,"byteLength":240},{"buffer":0,"byteOffset":569872,"byteLength":240},{"buffer":0,"byteOffset":570112,"byteLength":240},{"buffer":0,"byteOffset":570352,"byteLength":240},{"buffer":0,"byteOffset":570592,"byteLength":240},{"buffer":0,"byteOffset":570832,"byteLength":240},{"buffer":0,"byteOffset":571072,"byteLength":180},{"buffer":0,"byteOffset":571252,"byteLength":240},{"buffer":0,"byteOffset":571492,"byteLength":240},{"buffer":0,"byteOffset":571732,"byteLength":60},{"buffer":0,"byteOffset":571792,"byteLength":240},{"buffer":0,"byteOffset":572032,"byteLength":240},{"buffer":0,"byteOffset":572272,"byteLength":240},{"buffer":0,"byteOffset":572512,"byteLength":240},{"buffer":0,"byteOffset":572752,"byteLength":240},{"buffer":0,"byteOffset":572992,"byteLength":240},{"buffer":0,"byteOffset":573232,"byteLength":180},{"buffer":0,"byteOffset":573412,"byteLength":240},{"buffer":0,"byteOffset":573652,"byteLength":240},{"buffer":0,"byteOffset":573892,"byteLength":364},{"buffer":0,"byteOffset":574256,"byteLength":1456},{"buffer":0,"byteOffset":575712,"byteLength":1456},{"buffer":0,"byteOffset":577168,"byteLength":1092},{"buffer":0,"byteOffset":578260,"byteLength":1456},{"buffer":0,"byteOffset":579716,"byteLength":1092},{"buffer":0,"byteOffset":580808,"byteLength":1456},{"buffer":0,"byteOffset":582264,"byteLength":1456},{"buffer":0,"byteOffset":583720,"byteLength":172},{"buffer":0,"byteOffset":583892,"byteLength":688},{"buffer":0,"byteOffset":584580,"byteLength":688},{"buffer":0,"byteOffset":585268,"byteLength":516},{"buffer":0,"byteOffset":585784,"byteLength":688},{"buffer":0,"byteOffset":586472,"byteLength":516},{"buffer":0,"byteOffset":586988,"byteLength":688},{"buffer":0,"byteOffset":587676,"byteLength":688},{"buffer":0,"byteOffset":588364,"byteLength":268},{"buffer":0,"byteOffset":588632,"byteLength":1072},{"buffer":0,"byteOffset":589704,"byteLength":1072},{"buffer":0,"byteOffset":590776,"byteLength":804},{"buffer":0,"byteOffset":591580,"byteLength":1072},{"buffer":0,"byteOffset":592652,"byteLength":804},{"buffer":0,"byteOffset":593456,"byteLength":1072},{"buffer":0,"byteOffset":594528,"byteLength":1072},{"buffer":0,"byteOffset":595600,"byteLength":112},{"buffer":0,"byteOffset":595712,"byteLength":448},{"buffer":0,"byteOffset":596160,"byteLength":448},{"buffer":0,"byteOffset":596608,"byteLength":448},{"buffer":0,"byteOffset":597056,"byteLength":336},{"buffer":0,"byteOffset":597392,"byteLength":448},{"buffer":0,"byteOffset":597840,"byteLength":336},{"buffer":0,"byteOffset":598176,"byteLength":76},{"buffer":0,"byteOffset":598252,"byteLength":304},{"buffer":0,"byteOffset":598556,"byteLength":304},{"buffer":0,"byteOffset":598860,"byteLength":304},{"buffer":0,"byteOffset":599164,"byteLength":304},{"buffer":0,"byteOffset":599468,"byteLength":228},{"buffer":0,"byteOffset":599696,"byteLength":172},{"buffer":0,"byteOffset":599868,"byteLength":688},{"buffer":0,"byteOffset":600556,"byteLength":688},{"buffer":0,"byteOffset":601244,"byteLength":688},{"buffer":0,"byteOffset":601932,"byteLength":516},{"buffer":0,"byteOffset":602448,"byteLength":688},{"buffer":0,"byteOffset":603136,"byteLength":688},{"buffer":0,"byteOffset":603824,"byteLength":688},{"buffer":0,"byteOffset":604512,"byteLength":124},{"buffer":0,"byteOffset":604636,"byteLength":496},{"buffer":0,"byteOffset":605132,"byteLength":496},{"buffer":0,"byteOffset":605628,"byteLength":496},{"buffer":0,"byteOffset":606124,"byteLength":496},{"buffer":0,"byteOffset":606620,"byteLength":496},{"buffer":0,"byteOffset":607116,"byteLength":88},{"buffer":0,"byteOffset":607204,"byteLength":352},{"buffer":0,"byteOffset":607556,"byteLength":352},{"buffer":0,"byteOffset":607908,"byteLength":352},{"buffer":0,"byteOffset":608260,"byteLength":352},{"buffer":0,"byteOffset":608612,"byteLength":264},{"buffer":0,"byteOffset":608876,"byteLength":388},{"buffer":0,"byteOffset":609264,"byteLength":1552},{"buffer":0,"byteOffset":610816,"byteLength":1552},{"buffer":0,"byteOffset":612368,"byteLength":1552},{"buffer":0,"byteOffset":613920,"byteLength":1164},{"buffer":0,"byteOffset":615084,"byteLength":1552},{"buffer":0,"byteOffset":616636,"byteLength":1552},{"buffer":0,"byteOffset":618188,"byteLength":1552},{"buffer":0,"byteOffset":619740,"byteLength":1164},{"buffer":0,"byteOffset":620904,"byteLength":1552},{"buffer":0,"byteOffset":622456,"byteLength":1552},{"buffer":0,"byteOffset":624008,"byteLength":100},{"buffer":0,"byteOffset":624108,"byteLength":400},{"buffer":0,"byteOffset":624508,"byteLength":400},{"buffer":0,"byteOffset":624908,"byteLength":300},{"buffer":0,"byteOffset":625208,"byteLength":400},{"buffer":0,"byteOffset":625608,"byteLength":400},{"buffer":0,"byteOffset":626008,"byteLength":400},{"buffer":0,"byteOffset":626408,"byteLength":300},{"buffer":0,"byteOffset":626708,"byteLength":400},{"buffer":0,"byteOffset":627108,"byteLength":400},{"buffer":0,"byteOffset":627508,"byteLength":76},{"buffer":0,"byteOffset":627584,"byteLength":304},{"buffer":0,"byteOffset":627888,"byteLength":304},{"buffer":0,"byteOffset":628192,"byteLength":228},{"buffer":0,"byteOffset":628420,"byteLength":304},{"buffer":0,"byteOffset":628724,"byteLength":304},{"buffer":0,"byteOffset":629028,"byteLength":304},{"buffer":0,"byteOffset":629332,"byteLength":304},{"buffer":0,"byteOffset":629636,"byteLength":228},{"buffer":0,"byteOffset":629864,"byteLength":148},{"buffer":0,"byteOffset":630012,"byteLength":592},{"buffer":0,"byteOffset":630604,"byteLength":592},{"buffer":0,"byteOffset":631196,"byteLength":592},{"buffer":0,"byteOffset":631788,"byteLength":592},{"buffer":0,"byteOffset":632380,"byteLength":444}],"accessors":[{"bufferView":0,"componentType":5126,"count":9350,"type":"VEC3","min":[-0.8977006673812866,0.0,-0.6416233777999878],"max":[0.8977006673812866,2.09311842918396,0.6416233777999878]},{"bufferView":1,"componentType":5126,"count":9350,"type":"VEC3"},{"bufferView":2,"componentType":5126,"count":9350,"type":"VEC2"},{"bufferView":3,"componentType":5121,"count":9350,"type":"VEC4"},{"bufferView":4,"componentType":5126,"count":9350,"type":"VEC4"},{"bufferView":5,"componentType":5123,"count":37359,"type":"SCALAR"},{"bufferView":6,"componentType":5126,"count":12,"type":"MAT4"},{"bufferView":7,"componentType":5126,"count":73,"type":"SCALAR","min":[0.0],"max":[2.4000000953674316]},{"bufferView":8,"componentType":5126,"count":73,"type":"VEC4"},{"bufferView":9,"componentType":5126,"count":73,"type":"VEC4"},{"bufferView":10,"componentType":5126,"count":73,"type":"VEC3"},{"bufferView":11,"componentType":5126,"count":73,"type":"VEC4"},{"bufferView":12,"componentType":5126,"count":73,"type":"VEC4"},{"bufferView":13,"componentType":5126,"count":73,"type":"VEC4"},{"bufferView":14,"componentType":5126,"count":73,"type":"VEC3"},{"bufferView":15,"componentType":5126,"count":15,"type":"SCALAR","min":[0.0],"max":[0.47999998927116394]},{"bufferView":16,"componentType":5126,"count":15,"type":"VEC4"},{"bufferView":17,"componentType":5126,"count":15,"type":"VEC4"},{"bufferView":18,"componentType":5126,"count":15,"type":"VEC4"},{"bufferView":19,"componentType":5126,"count":15,"type":"VEC4"},{"bufferView":20,"componentType":5126,"count":15,"type":"VEC4"},{"bufferView":21,"componentType":5126,"count":15,"type":"VEC4"},{"bufferView":22,"componentType":5126,"count":15,"type":"VEC3"},{"bufferView":23,"componentType":5126,"count":15,"type":"VEC4"},{"bufferView":24,"componentType":5126,"count":15,"type":"VEC4"},{"bufferView":25,"componentType":5126,"count":15,"type":"SCALAR","min":[0.0],"max":[0.47999998927116394]},{"bufferView":26,"componentType":5126,"count":15,"type":"VEC4"},{"bufferView":27,"componentType":5126,"count":15,"type":"VEC4"},{"bufferView":28,"componentType":5126,"count":15,"type":"VEC4"},{"bufferView":29,"componentType":5126,"count":15,"type":"VEC4"},{"bufferView":30,"componentType":5126,"count":15,"type":"VEC4"},{"bufferView":31,"componentType":5126,"count":15,"type":"VEC4"},{"bufferView":32,"componentType":5126,"count":15,"type":"VEC3"},{"bufferView":33,"componentType":5126,"count":15,"type":"VEC4"},{"bufferView":34,"componentType":5126,"count":15,"type":"VEC4"},{"bufferView":35,"componentType":5126,"count":91,"type":"SCALAR","min":[0.0],"max":[3.0]},{"bufferView":36,"componentType":5126,"count":91,"type":"VEC4"},{"bufferView":37,"componentType":5126,"count":91,"type":"VEC4"},{"bufferView":38,"componentType":5126,"count":91,"type":"VEC3"},{"bufferView":39,"componentType":5126,"count":91,"type":"VEC4"},{"bufferView":40,"componentType":5126,"count":91,"type":"VEC3"},{"bufferView":41,"componentType":5126,"count":91,"type":"VEC4"},{"bufferView":42,"componentType":5126,"count":91,"type":"VEC4"},{"bufferView":43,"componentType":5126,"count":43,"type":"SCALAR","min":[0.0],"max":[1.399999976158142]},{"bufferView":44,"componentType":5126,"count":43,"type":"VEC4"},{"bufferView":45,"componentType":5126,"count":43,"type":"VEC4"},{"bufferView":46,"componentType":5126,"count":43,"type":"VEC3"},{"bufferView":47,"componentType":5126,"count":43,"type":"VEC4"},{"bufferView":48,"componentType":5126,"count":43,"type":"VEC3"},{"bufferView":49,"componentType":5126,"count":43,"type":"VEC4"},{"bufferView":50,"componentType":5126,"count":43,"type":"VEC4"},{"bufferView":51,"componentType":5126,"count":67,"type":"SCALAR","min":[0.0],"max":[2.200000047683716]},{"bufferView":52,"componentType":5126,"count":67,"type":"VEC4"},{"bufferView":53,"componentType":5126,"count":67,"type":"VEC4"},{"bufferView":54,"componentType":5126,"count":67,"type":"VEC3"},{"bufferView":55,"componentType":5126,"count":67,"type":"VEC4"},{"bufferView":56,"componentType":5126,"count":67,"type":"VEC3"},{"bufferView":57,"componentType":5126,"count":67,"type":"VEC4"},{"bufferView":58,"componentType":5126,"count":67,"type":"VEC4"},{"bufferView":59,"componentType":5126,"count":28,"type":"SCALAR","min":[0.0],"max":[0.8999999761581421]},{"bufferView":60,"componentType":5126,"count":28,"type":"VEC4"},{"bufferView":61,"componentType":5126,"count":28,"type":"VEC4"},{"bufferView":62,"componentType":5126,"count":28,"type":"VEC4"},{"bufferView":63,"componentType":5126,"count":28,"type":"VEC3"},{"bufferView":64,"componentType":5126,"count":28,"type":"VEC4"},{"bufferView":65,"componentType":5126,"count":28,"type":"VEC3"},{"bufferView":66,"componentType":5126,"count":19,"type":"SCALAR","min":[0.0],"max":[0.6000000238418579]},{"bufferView":67,"componentType":5126,"count":19,"type":"VEC4"},{"bufferView":68,"componentType":5126,"count":19,"type":"VEC4"},{"bufferView":69,"componentType":5126,"count":19,"type":"VEC4"},{"bufferView":70,"componentType":5126,"count":19,"type":"VEC4"},{"bufferView":71,"componentType":5126,"count":19,"type":"VEC3"},{"bufferView":72,"componentType":5126,"count":43,"type":"SCALAR","min":[0.0],"max":[1.399999976158142]},{"bufferView":73,"componentType":5126,"count":43,"type":"VEC4"},{"bufferView":74,"componentType":5126,"count":43,"type":"VEC4"},{"bufferView":75,"componentType":5126,"count":43,"type":"VEC4"},{"bufferView":76,"componentType":5126,"count":43,"type":"VEC3"},{"bufferView":77,"componentType":5126,"count":43,"type":"VEC4"},{"bufferView":78,"componentType":5126,"count":43,"type":"VEC4"},{"bufferView":79,"componentType":5126,"count":43,"type":"VEC4"},{"bufferView":80,"componentType":5126,"count":31,"type":"SCALAR","min":[0.0],"max":[1.0]},{"bufferView":81,"componentType":5126,"count":31,"type":"VEC4"},{"bufferView":82,"componentType":5126,"count":31,"type":"VEC4"},{"bufferView":83,"componentType":5126,"count":31,"type":"VEC4"},{"bufferView":84,"componentType":5126,"count":31,"type":"VEC4"},{"bufferView":85,"componentType":5126,"count":31,"type":"VEC4"},{"bufferView":86,"componentType":5126,"count":22,"type":"SCALAR","min":[0.0],"max":[0.699999988079071]},{"bufferView":87,"componentType":5126,"count":22,"type":"VEC4"},{"bufferView":88,"componentType":5126,"count":22,"type":"VEC4"},{"bufferView":89,"componentType":5126,"count":22,"type":"VEC4"},{"bufferView":90,"componentType":5126,"count":22,"type":"VEC4"},{"bufferView":91,"componentType":5126,"count":22,"type":"VEC3"},{"bufferView":92,"componentType":5126,"count":97,"type":"SCALAR","min":[0.0],"max":[3.200000047683716]},{"bufferView":93,"componentType":5126,"count":97,"type":"VEC4"},{"bufferView":94,"componentType":5126,"count":97,"type":"VEC4"},{"bufferView":95,"componentType":5126,"count":97,"type":"VEC4"},{"bufferView":96,"componentType":5126,"count":97,"type":"VEC3"},{"bufferView":97,"componentType":5126,"count":97,"type":"VEC4"},{"bufferView":98,"componentType":5126,"count":97,"type":"VEC4"},{"bufferView":99,"componentType":5126,"count":97,"type":"VEC4"},{"bufferView":100,"componentType":5126,"count":97,"type":"VEC3"},{"bufferView":101,"componentType":5126,"count":97,"type":"VEC4"},{"bufferView":102,"componentType":5126,"count":97,"type":"VEC4"},{"bufferView":103,"componentType":5126,"count":25,"type":"SCALAR","min":[0.0],"max":[0.800000011920929]},{"bufferView":104,"componentType":5126,"count":25,"type":"VEC4"},{"bufferView":105,"componentType":5126,"count":25,"type":"VEC4"},{"bufferView":106,"componentType":5126,"count":25,"type":"VEC3"},{"bufferView":107,"componentType":5126,"count":25,"type":"VEC4"},{"bufferView":108,"componentType":5126,"count":25,"type":"VEC4"},{"bufferView":109,"componentType":5126,"count":25,"type":"VEC4"},{"bufferView":110,"componentType":5126,"count":25,"type":"VEC3"},{"bufferView":111,"componentType":5126,"count":25,"type":"VEC4"},{"bufferView":112,"componentType":5126,"count":25,"type":"VEC4"},{"bufferView":113,"componentType":5126,"count":19,"type":"SCALAR","min":[0.0],"max":[0.6000000238418579]},{"bufferView":114,"componentType":5126,"count":19,"type":"VEC4"},{"bufferView":115,"componentType":5126,"count":19,"type":"VEC4"},{"bufferView":116,"componentType":5126,"count":19,"type":"VEC3"},{"bufferView":117,"componentType":5126,"count":19,"type":"VEC4"},{"bufferView":118,"componentType":5126,"count":19,"type":"VEC4"},{"bufferView":119,"componentType":5126,"count":19,"type":"VEC4"},{"bufferView":120,"componentType":5126,"count":19,"type":"VEC4"},{"bufferView":121,"componentType":5126,"count":19,"type":"VEC3"},{"bufferView":122,"componentType":5126,"count":37,"type":"SCALAR","min":[0.0],"max":[1.2000000476837158]},{"bufferView":123,"componentType":5126,"count":37,"type":"VEC4"},{"bufferView":124,"componentType":5126,"count":37,"type":"VEC4"},{"bufferView":125,"componentType":5126,"count":37,"type":"VEC4"},{"bufferView":126,"componentType":5126,"count":37,"type":"VEC4"},{"bufferView":127,"componentType":5126,"count":37,"type":"VEC3"}]}