{"asset":{"version":"2.0","generator":"tools/build_character.py"},"scene":0,"scenes":[{"nodes":[15]}],"nodes":[{"name":"root","translation":[0.0,0.0,0.0],"children":[1]},{"name":"hips","translation":[0.0,0.462,0.0],"children":[2,3,4]},{"name":"leg_l","translation":[0.22,0.0,0.0]},{"name":"leg_r","translation":[-0.22,0.0,0.0]},{"name":"chest","translation":[0.0,0.176,0.0],"children":[5,7,9,10,11]},{"name":"arm_l","translation":[0.462,0.132,0.0],"children":[6]},{"name":"hand_l","translation":[0.242,-0.132,0.055]},{"name":"arm_r","translation":[-0.462,0.132,0.0],"children":[8]},{"name":"hand_r","translation":[-0.242,-0.132,0.055]},{"name":"wing_l","translation":[0.11,0.154,-0.462]},{"name":"wing_r","translation":[-0.11,0.154,-0.462]},{"name":"head","translation":[0.0,0.33,0.0],"children":[12,13]},{"name":"ear_l","translation":[0.51014,0.792,0.0]},{"name":"ear_r","translation":[-0.51014,0.792,0.0]},{"name":"Bbaekko_Body","mesh":0,"skin":0},{"name":"Bbaekko","children":[0,14]}],"meshes":[{"name":"Bbaekko","primitives":[{"attributes":{"POSITION":0,"NORMAL":1,"TEXCOORD_0":2,"JOINTS_0":3,"WEIGHTS_0":4},"indices":5,"material":0}]}],"skins":[{"joints":[0,1,2,3,4,5,6,7,8,9,10,11,12,13],"inverseBindMatrices":6,"skeleton":0}],"materials":[{"name":"Bbaekko","doubleSided":true,"pbrMetallicRoughness":{"baseColorTexture":{"index":0},"metallicFactor":0,"roughnessFactor":0.55},"emissiveTexture":{"index":0},"emissiveFactor":[0.18,0.18,0.18]}],"textures":[{"source":0,"sampler":0}],"samplers":[{"magFilter":9729,"minFilter":9987}],"images":[{"uri":"bbaekko_texture.jpg"}],"animations":[{"name":"Idle","samplers":[{"input":7,"output":8,"interpolation":"LINEAR"},{"input":7,"output":9,"interpolation":"LINEAR"},{"input":7,"output":10,"interpolation":"LINEAR"},{"input":7,"output":11,"interpolation":"LINEAR"},{"input":7,"output":12,"interpolation":"LINEAR"},{"input":7,"output":13,"interpolation":"LINEAR"},{"input":7,"output":14,"interpolation":"LINEAR"},{"input":7,"output":15,"interpolation":"LINEAR"},{"input":7,"output":16,"interpolation":"LINEAR"}],"channels":[{"sampler":0,"target":{"node":5,"path":"rotation"}},{"sampler":1,"target":{"node":7,"path":"rotation"}},{"sampler":2,"target":{"node":4,"path":"scale"}},{"sampler":3,"target":{"node":12,"path":"rotation"}},{"sampler":4,"target":{"node":13,"path":"rotation"}},{"sampler":5,"target":{"node":11,"path":"rotation"}},{"sampler":6,"target":{"node":1,"path":"translation"}},{"sampler":7,"target":{"node":9,"path":"rotation"}},{"sampler":8,"target":{"node":10,"path":"rotation"}}]},{"name":"Walk","samplers":[{"input":17,"output":18,"interpolation":"LINEAR"},{"input":17,"output":19,"interpolation":"LINEAR"},{"input":17,"output":20,"interpolation":"LINEAR"},{"input":17,"output":21,"interpolation":"LINEAR"},{"input":17,"output":22,"interpolation":"LINEAR"},{"input":17,"output":23,"interpolation":"LINEAR"},{"input":17,"output":24,"interpolation":"LINEAR"},{"input":17,"output":25,"interpolation":"LINEAR"},{"input":17,"output":26,"interpolation":"LINEAR"},{"input":17,"output":27,"interpolation":"LINEAR"},{"input":17,"output":28,"interpolation":"LINEAR"}],"channels":[{"sampler":0,"target":{"node":5,"path":"rotation"}},{"sampler":1,"target":{"node":7,"path":"rotation"}},{"sampler":2,"target":{"node":12,"path":"rotation"}},{"sampler":3,"target":{"node":13,"path":"rotation"}},{"sampler":4,"target":{"node":11,"path":"rotation"}},{"sampler":5,"target":{"node":1,"path":"rotation"}},{"sampler":6,"target":{"node":1,"path":"translation"}},{"sampler":7,"target":{"node":2,"path":"rotation"}},{"sampler":8,"target":{"node":3,"path":"rotation"}},{"sampler":9,"target":{"node":9,"path":"rotation"}},{"sampler":10,"target":{"node":10,"path":"rotation"}}]},{"name":"Carry","samplers":[{"input":29,"output":30,"interpolation":"LINEAR"},{"input":29,"output":31,"interpolation":"LINEAR"},{"input":29,"output":32,"interpolation":"LINEAR"},{"input":29,"output":33,"interpolation":"LINEAR"},{"input":29,"output":34,"interpolation":"LINEAR"},{"input":29,"output":35,"interpolation":"LINEAR"},{"input":29,"output":36,"interpolation":"LINEAR"},{"input":29,"output":37,"interpolation":"LINEAR"},{"input":29,"output":38,"interpolation":"LINEAR"},{"input":29,"output":39,"interpolation":"LINEAR"},{"input":29,"output":40,"interpolation":"LINEAR"}],"channels":[{"sampler":0,"target":{"node":5,"path":"rotation"}},{"sampler":1,"target":{"node":7,"path":"rotation"}},{"sampler":2,"target":{"node":12,"path":"rotation"}},{"sampler":3,"target":{"node":13,"path":"rotation"}},{"sampler":4,"target":{"node":11,"path":"rotation"}},{"sampler":5,"target":{"node":1,"path":"rotation"}},{"sampler":6,"target":{"node":1,"path":"translation"}},{"sampler":7,"target":{"node":2,"path":"rotation"}},{"sampler":8,"target":{"node":3,"path":"rotation"}},{"sampler":9,"target":{"node":9,"path":"rotation"}},{"sampler":10,"target":{"node":10,"path":"rotation"}}]},{"name":"Sit","samplers":[{"input":41,"output":42,"interpolation":"LINEAR"},{"input":41,"output":43,"interpolation":"LINEAR"},{"input":41,"output":44,"interpolation":"LINEAR"},{"input":41,"output":45,"interpolation":"LINEAR"},{"input":41,"output":46,"interpolation":"LINEAR"},{"input":41,"output":47,"interpolation":"LINEAR"},{"input":41,"output":48,"interpolation":"LINEAR"}],"channels":[{"sampler":0,"target":{"node":5,"path":"rotation"}},{"sampler":1,"target":{"node":7,"path":"rotation"}},{"sampler":2,"target":{"node":4,"path":"scale"}},{"sampler":3,"target":{"node":11,"path":"rotation"}},{"sampler":4,"target":{"node":1,"path":"translation"}},{"sampler":5,"target":{"node":2,"path":"rotation"}},{"sampler":6,"target":{"node":3,"path":"rotation"}}]},{"name":"Eat","samplers":[{"input":49,"output":50,"interpolation":"LINEAR"},{"input":49,"output":51,"interpolation":"LINEAR"},{"input":49,"output":52,"interpolation":"LINEAR"},{"input":49,"output":53,"interpolation":"LINEAR"},{"input":49,"output":54,"interpolation":"LINEAR"},{"input":49,"output":55,"interpolation":"LINEAR"},{"input":49,"output":56,"interpolation":"LINEAR"}],"channels":[{"sampler":0,"target":{"node":5,"path":"rotation"}},{"sampler":1,"target":{"node":7,"path":"rotation"}},{"sampler":2,"target":{"node":4,"path":"scale"}},{"sampler":3,"target":{"node":11,"path":"rotation"}},{"sampler":4,"target":{"node":1,"path":"translation"}},{"sampler":5,"target":{"node":2,"path":"rotation"}},{"sampler":6,"target":{"node":3,"path":"rotation"}}]},{"name":"Wait","samplers":[{"input":57,"output":58,"interpolation":"LINEAR"},{"input":57,"output":59,"interpolation":"LINEAR"},{"input":57,"output":60,"interpolation":"LINEAR"},{"input":57,"output":61,"interpolation":"LINEAR"},{"input":57,"output":62,"interpolation":"LINEAR"},{"input":57,"output":63,"interpolation":"LINEAR"},{"input":57,"output":64,"interpolation":"LINEAR"}],"channels":[{"sampler":0,"target":{"node":5,"path":"rotation"}},{"sampler":1,"target":{"node":7,"path":"rotation"}},{"sampler":2,"target":{"node":4,"path":"scale"}},{"sampler":3,"target":{"node":11,"path":"rotation"}},{"sampler":4,"target":{"node":1,"path":"translation"}},{"sampler":5,"target":{"node":2,"path":"rotation"}},{"sampler":6,"target":{"node":3,"path":"rotation"}}]},{"name":"Work","samplers":[{"input":65,"output":66,"interpolation":"LINEAR"},{"input":65,"output":67,"interpolation":"LINEAR"},{"input":65,"output":68,"interpolation":"LINEAR"},{"input":65,"output":69,"interpolation":"LINEAR"},{"input":65,"output":70,"interpolation":"LINEAR"},{"input":65,"output":71,"interpolation":"LINEAR"}],"channels":[{"sampler":0,"target":{"node":5,"path":"rotation"}},{"sampler":1,"target":{"node":7,"path":"rotation"}},{"sampler":2,"target":{"node":4,"path":"rotation"}},{"sampler":3,"target":{"node":4,"path":"scale"}},{"sampler":4,"target":{"node":11,"path":"rotation"}},{"sampler":5,"target":{"node":1,"path":"translation"}}]},{"name":"Shake","samplers":[{"input":72,"output":73,"interpolation":"LINEAR"},{"input":72,"output":74,"interpolation":"LINEAR"},{"input":72,"output":75,"interpolation":"LINEAR"},{"input":72,"output":76,"interpolation":"LINEAR"},{"input":72,"output":77,"interpolation":"LINEAR"}],"channels":[{"sampler":0,"target":{"node":5,"path":"rotation"}},{"sampler":1,"target":{"node":7,"path":"rotation"}},{"sampler":2,"target":{"node":4,"path":"rotation"}},{"sampler":3,"target":{"node":11,"path":"rotation"}},{"sampler":4,"target":{"node":1,"path":"translation"}}]},{"name":"Talk","samplers":[{"input":78,"output":79,"interpolation":"LINEAR"},{"input":78,"output":80,"interpolation":"LINEAR"},{"input":78,"output":81,"interpolation":"LINEAR"},{"input":78,"output":82,"interpolation":"LINEAR"},{"input":78,"output":83,"interpolation":"LINEAR"},{"input":78,"output":84,"interpolation":"LINEAR"},{"input":78,"output":85,"interpolation":"LINEAR"},{"input":78,"output":86,"interpolation":"LINEAR"},{"input":78,"output":87,"interpolation":"LINEAR"}],"channels":[{"sampler":0,"target":{"node":5,"path":"rotation"}},{"sampler":1,"target":{"node":7,"path":"rotation"}},{"sampler":2,"target":{"node":4,"path":"rotation"}},{"sampler":3,"target":{"node":4,"path":"scale"}},{"sampler":4,"target":{"node":12,"path":"rotation"}},{"sampler":5,"target":{"node":13,"path":"rotation"}},{"sampler":6,"target":{"node":11,"path":"rotation"}},{"sampler":7,"target":{"node":9,"path":"rotation"}},{"sampler":8,"target":{"node":10,"path":"rotation"}}]},{"name":"Sweep","samplers":[{"input":88,"output":89,"interpolation":"LINEAR"},{"input":88,"output":90,"interpolation":"LINEAR"},{"input":88,"output":91,"interpolation":"LINEAR"},{"input":88,"output":92,"interpolation":"LINEAR"},{"input":88,"output":93,"interpolation":"LINEAR"}],"channels":[{"sampler":0,"target":{"node":5,"path":"rotation"}},{"sampler":1,"target":{"node":7,"path":"rotation"}},{"sampler":2,"target":{"node":4,"path":"rotation"}},{"sampler":3,"target":{"node":11,"path":"rotation"}},{"sampler":4,"target":{"node":1,"path":"rotation"}}]},{"name":"Repair","samplers":[{"input":94,"output":95,"interpolation":"LINEAR"},{"input":94,"output":96,"interpolation":"LINEAR"},{"input":94,"output":97,"interpolation":"LINEAR"},{"input":94,"output":98,"interpolation":"LINEAR"},{"input":94,"output":99,"interpolation":"LINEAR"}],"channels":[{"sampler":0,"target":{"node":5,"path":"rotation"}},{"sampler":1,"target":{"node":7,"path":"rotation"}},{"sampler":2,"target":{"node":4,"path":"rotation"}},{"sampler":3,"target":{"node":11,"path":"rotation"}},{"sampler":4,"target":{"node":1,"path":"translation"}}]},{"name":"Nap","samplers":[{"input":100,"output":101,"interpolation":"LINEAR"},{"input":100,"output":102,"interpolation":"LINEAR"},{"input":100,"output":103,"interpolation":"LINEAR"},{"input":100,"output":104,"interpolation":"LINEAR"},{"input":100,"output":105,"interpolation":"LINEAR"},{"input":100,"output":106,"interpolation":"LINEAR"},{"input":100,"output":107,"interpolation":"LINEAR"},{"input":100,"output":108,"interpolation":"LINEAR"},{"input":100,"output":109,"interpolation":"LINEAR"},{"input":100,"output":110,"interpolation":"LINEAR"}],"channels":[{"sampler":0,"target":{"node":5,"path":"rotation"}},{"sampler":1,"target":{"node":7,"path":"rotation"}},{"sampler":2,"target":{"node":4,"path":"rotation"}},{"sampler":3,"target":{"node":4,"path":"scale"}},{"sampler":4,"target":{"node":12,"path":"rotation"}},{"sampler":5,"target":{"node":13,"path":"rotation"}},{"sampler":6,"target":{"node":11,"path":"rotation"}},{"sampler":7,"target":{"node":1,"path":"translation"}},{"sampler":8,"target":{"node":2,"path":"rotation"}},{"sampler":9,"target":{"node":3,"path":"rotation"}}]},{"name":"Cheer","samplers":[{"input":111,"output":112,"interpolation":"LINEAR"},{"input":111,"output":113,"interpolation":"LINEAR"},{"input":111,"output":114,"interpolation":"LINEAR"},{"input":111,"output":115,"interpolation":"LINEAR"},{"input":111,"output":116,"interpolation":"LINEAR"},{"input":111,"output":117,"interpolation":"LINEAR"},{"input":111,"output":118,"interpolation":"LINEAR"},{"input":111,"output":119,"interpolation":"LINEAR"},{"input":111,"output":120,"interpolation":"LINEAR"},{"input":111,"output":121,"interpolation":"LINEAR"},{"input":111,"output":122,"interpolation":"LINEAR"}],"channels":[{"sampler":0,"target":{"node":5,"path":"rotation"}},{"sampler":1,"target":{"node":7,"path":"rotation"}},{"sampler":2,"target":{"node":4,"path":"scale"}},{"sampler":3,"target":{"node":12,"path":"rotation"}},{"sampler":4,"target":{"node":13,"path":"rotation"}},{"sampler":5,"target":{"node":11,"path":"rotation"}},{"sampler":6,"target":{"node":1,"path":"translation"}},{"sampler":7,"target":{"node":2,"path":"rotation"}},{"sampler":8,"target":{"node":3,"path":"rotation"}},{"sampler":9,"target":{"node":9,"path":"rotation"}},{"sampler":10,"target":{"node":10,"path":"rotation"}}]},{"name":"Hit","samplers":[{"input":123,"output":124,"interpolation":"LINEAR"},{"input":123,"output":125,"interpolation":"LINEAR"},{"input":123,"output":126,"interpolation":"LINEAR"},{"input":123,"output":127,"interpolation":"LINEAR"},{"input":123,"output":128,"interpolation":"LINEAR"},{"input":123,"output":129,"interpolation":"LINEAR"},{"input":123,"output":130,"interpolation":"LINEAR"},{"input":123,"output":131,"interpolation":"LINEAR"},{"input":123,"output":132,"interpolation":"LINEAR"},{"input":123,"output":133,"interpolation":"LINEAR"}],"channels":[{"sampler":0,"target":{"node":5,"path":"rotation"}},{"sampler":1,"target":{"node":7,"path":"rotation"}},{"sampler":2,"target":{"node":4,"path":"scale"}},{"sampler":3,"target":{"node":12,"path":"rotation"}},{"sampler":4,"target":{"node":13,"path":"rotation"}},{"sampler":5,"target":{"node":11,"path":"rotation"}},{"sampler":6,"target":{"node":1,"path":"rotation"}},{"sampler":7,"target":{"node":1,"path":"translation"}},{"sampler":8,"target":{"node":9,"path":"rotation"}},{"sampler":9,"target":{"node":10,"path":"rotation"}}]},{"name":"Pickup","samplers":[{"input":134,"output":135,"interpolation":"LINEAR"},{"input":134,"output":136,"interpolation":"LINEAR"},{"input":134,"output":137,"interpolation":"LINEAR"},{"input":134,"output":138,"interpolation":"LINEAR"},{"input":134,"output":139,"interpolation":"LINEAR"}],"channels":[{"sampler":0,"target":{"node":5,"path":"rotation"}},{"sampler":1,"target":{"node":7,"path":"rotation"}},{"sampler":2,"target":{"node":4,"path":"rotation"}},{"sampler":3,"target":{"node":11,"path":"rotation"}},{"sampler":4,"target":{"node":1,"path":"translation"}}]}],"buffers":[{"uri":"Bbaekko.bin","byteLength":658856}],"bufferViews":[{"buffer":0,"byteOffset":0,"byteLength":116736,"target":34962},{"buffer":0,"byteOffset":116736,"byteLength":116736,"target":34962},{"buffer":0,"byteOffset":233472,"byteLength":77824,"target":34962},{"buffer":0,"byteOffset":311296,"byteLength":38912,"target":34962},{"buffer":0,"byteOffset":350208,"byteLength":155648,"target":34962},{"buffer":0,"byteOffset":505856,"byteLength":74886,"target":34963},{"buffer":0,"byteOffset":580744,"byteLength":896},{"buffer":0,"byteOffset":581640,"byteLength":292},{"buffer":0,"byteOffset":581932,"byteLength":1168},{"buffer":0,"byteOffset":583100,"byteLength":1168},{"buffer":0,"byteOffset":584268,"byteLength":876},{"buffer":0,"byteOffset":585144,"byteLength":1168},{"buffer":0,"byteOffset":586312,"byteLength":1168},{"buffer":0,"byteOffset":587480,"byteLength":1168},{"buffer":0,"byteOffset":588648,"byteLength":876},{"buffer":0,"byteOffset":589524,"byteLength":1168},{"buffer":0,"byteOffset":590692,"byteLength":1168},{"buffer":0,"byteOffset":591860,"byteLength":60},{"buffer":0,"byteOffset":591920,"byteLength":240},{"buffer":0,"byteOffset":592160,"byteLength":240},{"buffer":0,"byteOffset":592400,"byteLength":240},{"buffer":0,"byteOffset":592640,"byteLength":240},{"buffer":0,"byteOffset":592880,"byteLength":240},{"buffer":0,"byteOffset":593120,"byteLength":240},{"buffer":0,"byteOffset":593360,"byteLength":180},{"buffer":0,"byteOffset":593540,"byteLength":240},{"buffer":0,"byteOffset":593780,"byteLength":240},{"buffer":0,"byteOffset":594020,"byteLength":240},{"buffer":0,"byteOffset":594260,"byteLength":240},{"buffer":0,"byteOffset":594500,"byteLength":60},{"buffer":0,"byteOffset":594560,"byteLength":240},{"buffer":0,"byteOffset":594800,"byteLength":240},{"buffer":0,"byteOffset":595040,"byteLength":240},{"buffer":0,"byteOffset":595280,"byteLength":240},{"buffer":0,"byteOffset":595520,"byteLength":240},{"buffer":0,"byteOffset":595760,"byteLength":240},{"buffer":0,"byteOffset":596000,"byteLength":180},{"buffer":0,"byteOffset":596180,"byteLength":240},{"buffer":0,"byteOffset":596420,"byteLength":240},{"buffer":0,"byteOffset":596660,"byteLength":240},{"buffer":0,"byteOffset":596900,"byteLength":240},{"buffer":0,"byteOffset":597140,"byteLength":364},{"buffer":0,"byteOffset":597504,"byteLength":1456},{"buffer":0,"byteOffset":598960,"byteLength":1456},{"buffer":0,"byteOffset":600416,"byteLength":1092},{"buffer":0,"byteOffset":601508,"byteLength":1456},{"buffer":0,"byteOffset":602964,"byteLength":1092},{"buffer":0,"byteOffset":604056,"byteLength":1456},{"buffer":0,"byteOffset":605512,"byteLength":1456},{"buffer":0,"byteOffset":606968,"byteLength":172},{"buffer":0,"byteOffset":607140,"byteLength":688},{"buffer":0,"byteOffset":607828,"byteLength":688},{"buffer":0,"byteOffset":608516,"byteLength":516},{"buffer":0,"byteOffset":609032,"byteLength":688},{"buffer":0,"byteOffset":609720,"byteLength":516},{"buffer":0,"byteOffset":610236,"byteLength":688},{"buffer":0,"byteOffset":610924,"byteLength":688},{"buffer":0,"byteOffset":611612,"byteLength":268},{"buffer":0,"byteOffset":611880,"byteLength":1072},{"buffer":0,"byteOffset":612952,"byteLength":1072},{"buffer":0,"byteOffset":614024,"byteLength":804},{"buffer":0,"byteOffset":614828,"byteLength":1072},{"buffer":0,"byteOffset":615900,"byteLength":804},{"buffer":0,"byteOffset":616704,"byteLength":1072},{"buffer":0,"byteOffset":617776,"byteLength":1072},{"buffer":0,"byteOffset":618848,"byteLength":112},{"buffer":0,"byteOffset":618960,"byteLength":448},{"buffer":0,"byteOffset":619408,"byteLength":448},{"buffer":0,"byteOffset":619856,"byteLength":448},{"buffer":0,"byteOffset":620304,"byteLength":336},{"buffer":0,"byteOffset":620640,"byteLength":448},{"buffer":0,"byteOffset":621088,"byteLength":336},{"buffer":0,"byteOffset":621424,"byteLength":76},{"buffer":0,"byteOffset":621500,"byteLength":304},{"buffer":0,"byteOffset":621804,"byteLength":304},{"buffer":0,"byteOffset":622108,"byteLength":304},{"buffer":0,"byteOffset":622412,"byteLength":304},{"buffer":0,"byteOffset":622716,"byteLength":228},{"buffer":0,"byteOffset":622944,"byteLength":172},{"buffer":0,"byteOffset":623116,"byteLength":688},{"buffer":0,"byteOffset":623804,"byteLength":688},{"buffer":0,"byteOffset":624492,"byteLength":688},{"buffer":0,"byteOffset":625180,"byteLength":516},{"buffer":0,"byteOffset":625696,"byteLength":688},{"buffer":0,"byteOffset":626384,"byteLength":688},{"buffer":0,"byteOffset":627072,"byteLength":688},{"buffer":0,"byteOffset":627760,"byteLength":688},{"buffer":0,"byteOffset":628448,"byteLength":688},{"buffer":0,"byteOffset":629136,"byteLength":124},{"buffer":0,"byteOffset":629260,"byteLength":496},{"buffer":0,"byteOffset":629756,"byteLength":496},{"buffer":0,"byteOffset":630252,"byteLength":496},{"buffer":0,"byteOffset":630748,"byteLength":496},{"buffer":0,"byteOffset":631244,"byteLength":496},{"buffer":0,"byteOffset":631740,"byteLength":88},{"buffer":0,"byteOffset":631828,"byteLength":352},{"buffer":0,"byteOffset":632180,"byteLength":352},{"buffer":0,"byteOffset":632532,"byteLength":352},{"buffer":0,"byteOffset":632884,"byteLength":352},{"buffer":0,"byteOffset":633236,"byteLength":264},{"buffer":0,"byteOffset":633500,"byteLength":388},{"buffer":0,"byteOffset":633888,"byteLength":1552},{"buffer":0,"byteOffset":635440,"byteLength":1552},{"buffer":0,"byteOffset":636992,"byteLength":1552},{"buffer":0,"byteOffset":638544,"byteLength":1164},{"buffer":0,"byteOffset":639708,"byteLength":1552},{"buffer":0,"byteOffset":641260,"byteLength":1552},{"buffer":0,"byteOffset":642812,"byteLength":1552},{"buffer":0,"byteOffset":644364,"byteLength":1164},{"buffer":0,"byteOffset":645528,"byteLength":1552},{"buffer":0,"byteOffset":647080,"byteLength":1552},{"buffer":0,"byteOffset":648632,"byteLength":100},{"buffer":0,"byteOffset":648732,"byteLength":400},{"buffer":0,"byteOffset":649132,"byteLength":400},{"buffer":0,"byteOffset":649532,"byteLength":300},{"buffer":0,"byteOffset":649832,"byteLength":400},{"buffer":0,"byteOffset":650232,"byteLength":400},{"buffer":0,"byteOffset":650632,"byteLength":400},{"buffer":0,"byteOffset":651032,"byteLength":300},{"buffer":0,"byteOffset":651332,"byteLength":400},{"buffer":0,"byteOffset":651732,"byteLength":400},{"buffer":0,"byteOffset":652132,"byteLength":400},{"buffer":0,"byteOffset":652532,"byteLength":400},{"buffer":0,"byteOffset":652932,"byteLength":76},{"buffer":0,"byteOffset":653008,"byteLength":304},{"buffer":0,"byteOffset":653312,"byteLength":304},{"buffer":0,"byteOffset":653616,"byteLength":228},{"buffer":0,"byteOffset":653844,"byteLength":304},{"buffer":0,"byteOffset":654148,"byteLength":304},{"buffer":0,"byteOffset":654452,"byteLength":304},{"buffer":0,"byteOffset":654756,"byteLength":304},{"buffer":0,"byteOffset":655060,"byteLength":228},{"buffer":0,"byteOffset":655288,"byteLength":304},{"buffer":0,"byteOffset":655592,"byteLength":304},{"buffer":0,"byteOffset":655896,"byteLength":148},{"buffer":0,"byteOffset":656044,"byteLength":592},{"buffer":0,"byteOffset":656636,"byteLength":592},{"buffer":0,"byteOffset":657228,"byteLength":592},{"buffer":0,"byteOffset":657820,"byteLength":592},{"buffer":0,"byteOffset":658412,"byteLength":444}],"accessors":[{"bufferView":0,"componentType":5126,"count":9728,"type":"VEC3","min":[-0.7613908648490906,0.0,-0.6383760571479797],"max":[0.7613908648490906,2.093160390853882,0.6383760571479797]},{"bufferView":1,"componentType":5126,"count":9728,"type":"VEC3"},{"bufferView":2,"componentType":5126,"count":9728,"type":"VEC2"},{"bufferView":3,"componentType":5121,"count":9728,"type":"VEC4"},{"bufferView":4,"componentType":5126,"count":9728,"type":"VEC4"},{"bufferView":5,"componentType":5123,"count":37443,"type":"SCALAR"},{"bufferView":6,"componentType":5126,"count":14,"type":"MAT4"},{"bufferView":7,"componentType":5126,"count":73,"type":"SCALAR","min":[0.0],"max":[2.4000000953674316]},{"bufferView":8,"componentType":5126,"count":73,"type":"VEC4"},{"bufferView":9,"componentType":5126,"count":73,"type":"VEC4"},{"bufferView":10,"componentType":5126,"count":73,"type":"VEC3"},{"bufferView":11,"componentType":5126,"count":73,"type":"VEC4"},{"bufferView":12,"componentType":5126,"count":73,"type":"VEC4"},{"bufferView":13,"componentType":5126,"count":73,"type":"VEC4"},{"bufferView":14,"componentType":5126,"count":73,"type":"VEC3"},{"bufferView":15,"componentType":5126,"count":73,"type":"VEC4"},{"bufferView":16,"componentType":5126,"count":73,"type":"VEC4"},{"bufferView":17,"componentType":5126,"count":15,"type":"SCALAR","min":[0.0],"max":[0.47999998927116394]},{"bufferView":18,"componentType":5126,"count":15,"type":"VEC4"},{"bufferView":19,"componentType":5126,"count":15,"type":"VEC4"},{"bufferView":20,"componentType":5126,"count":15,"type":"VEC4"},{"bufferView":21,"componentType":5126,"count":15,"type":"VEC4"},{"bufferView":22,"componentType":5126,"count":15,"type":"VEC4"},{"bufferView":23,"componentType":5126,"count":15,"type":"VEC4"},{"bufferView":24,"componentType":5126,"count":15,"type":"VEC3"},{"bufferView":25,"componentType":5126,"count":15,"type":"VEC4"},{"bufferView":26,"componentType":5126,"count":15,"type":"VEC4"},{"bufferView":27,"componentType":5126,"count":15,"type":"VEC4"},{"bufferView":28,"componentType":5126,"count":15,"type":"VEC4"},{"bufferView":29,"componentType":5126,"count":15,"type":"SCALAR","min":[0.0],"max":[0.47999998927116394]},{"bufferView":30,"componentType":5126,"count":15,"type":"VEC4"},{"bufferView":31,"componentType":5126,"count":15,"type":"VEC4"},{"bufferView":32,"componentType":5126,"count":15,"type":"VEC4"},{"bufferView":33,"componentType":5126,"count":15,"type":"VEC4"},{"bufferView":34,"componentType":5126,"count":15,"type":"VEC4"},{"bufferView":35,"componentType":5126,"count":15,"type":"VEC4"},{"bufferView":36,"componentType":5126,"count":15,"type":"VEC3"},{"bufferView":37,"componentType":5126,"count":15,"type":"VEC4"},{"bufferView":38,"componentType":5126,"count":15,"type":"VEC4"},{"bufferView":39,"componentType":5126,"count":15,"type":"VEC4"},{"bufferView":40,"componentType":5126,"count":15,"type":"VEC4"},{"bufferView":41,"componentType":5126,"count":91,"type":"SCALAR","min":[0.0],"max":[3.0]},{"bufferView":42,"componentType":5126,"count":91,"type":"VEC4"},{"bufferView":43,"componentType":5126,"count":91,"type":"VEC4"},{"bufferView":44,"componentType":5126,"count":91,"type":"VEC3"},{"bufferView":45,"componentType":5126,"count":91,"type":"VEC4"},{"bufferView":46,"componentType":5126,"count":91,"type":"VEC3"},{"bufferView":47,"componentType":5126,"count":91,"type":"VEC4"},{"bufferView":48,"componentType":5126,"count":91,"type":"VEC4"},{"bufferView":49,"componentType":5126,"count":43,"type":"SCALAR","min":[0.0],"max":[1.399999976158142]},{"bufferView":50,"componentType":5126,"count":43,"type":"VEC4"},{"bufferView":51,"componentType":5126,"count":43,"type":"VEC4"},{"bufferView":52,"componentType":5126,"count":43,"type":"VEC3"},{"bufferView":53,"componentType":5126,"count":43,"type":"VEC4"},{"bufferView":54,"componentType":5126,"count":43,"type":"VEC3"},{"bufferView":55,"componentType":5126,"count":43,"type":"VEC4"},{"bufferView":56,"componentType":5126,"count":43,"type":"VEC4"},{"bufferView":57,"componentType":5126,"count":67,"type":"SCALAR","min":[0.0],"max":[2.200000047683716]},{"bufferView":58,"componentType":5126,"count":67,"type":"VEC4"},{"bufferView":59,"componentType":5126,"count":67,"type":"VEC4"},{"bufferView":60,"componentType":5126,"count":67,"type":"VEC3"},{"bufferView":61,"componentType":5126,"count":67,"type":"VEC4"},{"bufferView":62,"componentType":5126,"count":67,"type":"VEC3"},{"bufferView":63,"componentType":5126,"count":67,"type":"VEC4"},{"bufferView":64,"componentType":5126,"count":67,"type":"VEC4"},{"bufferView":65,"componentType":5126,"count":28,"type":"SCALAR","min":[0.0],"max":[0.8999999761581421]},{"bufferView":66,"componentType":5126,"count":28,"type":"VEC4"},{"bufferView":67,"componentType":5126,"count":28,"type":"VEC4"},{"bufferView":68,"componentType":5126,"count":28,"type":"VEC4"},{"bufferView":69,"componentType":5126,"count":28,"type":"VEC3"},{"bufferView":70,"componentType":5126,"count":28,"type":"VEC4"},{"bufferView":71,"componentType":5126,"count":28,"type":"VEC3"},{"bufferView":72,"componentType":5126,"count":19,"type":"SCALAR","min":[0.0],"max":[0.6000000238418579]},{"bufferView":73,"componentType":5126,"count":19,"type":"VEC4"},{"bufferView":74,"componentType":5126,"count":19,"type":"VEC4"},{"bufferView":75,"componentType":5126,"count":19,"type":"VEC4"},{"bufferView":76,"componentType":5126,"count":19,"type":"VEC4"},{"bufferView":77,"componentType":5126,"count":19,"type":"VEC3"},{"bufferView":78,"componentType":5126,"count":43,"type":"SCALAR","min":[0.0],"max":[1.399999976158142]},{"bufferView":79,"componentType":5126,"count":43,"type":"VEC4"},{"bufferView":80,"componentType":5126,"count":43,"type":"VEC4"},{"bufferView":81,"componentType":5126,"count":43,"type":"VEC4"},{"bufferView":82,"componentType":5126,"count":43,"type":"VEC3"},{"bufferView":83,"componentType":5126,"count":43,"type":"VEC4"},{"bufferView":84,"componentType":5126,"count":43,"type":"VEC4"},{"bufferView":85,"componentType":5126,"count":43,"type":"VEC4"},{"bufferView":86,"componentType":5126,"count":43,"type":"VEC4"},{"bufferView":87,"componentType":5126,"count":43,"type":"VEC4"},{"bufferView":88,"componentType":5126,"count":31,"type":"SCALAR","min":[0.0],"max":[1.0]},{"bufferView":89,"componentType":5126,"count":31,"type":"VEC4"},{"bufferView":90,"componentType":5126,"count":31,"type":"VEC4"},{"bufferView":91,"componentType":5126,"count":31,"type":"VEC4"},{"bufferView":92,"componentType":5126,"count":31,"type":"VEC4"},{"bufferView":93,"componentType":5126,"count":31,"type":"VEC4"},{"bufferView":94,"componentType":5126,"count":22,"type":"SCALAR","min":[0.0],"max":[0.699999988079071]},{"bufferView":95,"componentType":5126,"count":22,"type":"VEC4"},{"bufferView":96,"componentType":5126,"count":22,"type":"VEC4"},{"bufferView":97,"componentType":5126,"count":22,"type":"VEC4"},{"bufferView":98,"componentType":5126,"count":22,"type":"VEC4"},{"bufferView":99,"componentType":5126,"count":22,"type":"VEC3"},{"bufferView":100,"componentType":5126,"count":97,"type":"SCALAR","min":[0.0],"max":[3.200000047683716]},{"bufferView":101,"componentType":5126,"count":97,"type":"VEC4"},{"bufferView":102,"componentType":5126,"count":97,"type":"VEC4"},{"bufferView":103,"componentType":5126,"count":97,"type":"VEC4"},{"bufferView":104,"componentType":5126,"count":97,"type":"VEC3"},{"bufferView":105,"componentType":5126,"count":97,"type":"VEC4"},{"bufferView":106,"componentType":5126,"count":97,"type":"VEC4"},{"bufferView":107,"componentType":5126,"count":97,"type":"VEC4"},{"bufferView":108,"componentType":5126,"count":97,"type":"VEC3"},{"bufferView":109,"componentType":5126,"count":97,"type":"VEC4"},{"bufferView":110,"componentType":5126,"count":97,"type":"VEC4"},{"bufferView":111,"componentType":5126,"count":25,"type":"SCALAR","min":[0.0],"max":[0.800000011920929]},{"bufferView":112,"componentType":5126,"count":25,"type":"VEC4"},{"bufferView":113,"componentType":5126,"count":25,"type":"VEC4"},{"bufferView":114,"componentType":5126,"count":25,"type":"VEC3"},{"bufferView":115,"componentType":5126,"count":25,"type":"VEC4"},{"bufferView":116,"componentType":5126,"count":25,"type":"VEC4"},{"bufferView":117,"componentType":5126,"count":25,"type":"VEC4"},{"bufferView":118,"componentType":5126,"count":25,"type":"VEC3"},{"bufferView":119,"componentType":5126,"count":25,"type":"VEC4"},{"bufferView":120,"componentType":5126,"count":25,"type":"VEC4"},{"bufferView":121,"componentType":5126,"count":25,"type":"VEC4"},{"bufferView":122,"componentType":5126,"count":25,"type":"VEC4"},{"bufferView":123,"componentType":5126,"count":19,"type":"SCALAR","min":[0.0],"max":[0.6000000238418579]},{"bufferView":124,"componentType":5126,"count":19,"type":"VEC4"},{"bufferView":125,"componentType":5126,"count":19,"type":"VEC4"},{"bufferView":126,"componentType":5126,"count":19,"type":"VEC3"},{"bufferView":127,"componentType":5126,"count":19,"type":"VEC4"},{"bufferView":128,"componentType":5126,"count":19,"type":"VEC4"},{"bufferView":129,"componentType":5126,"count":19,"type":"VEC4"},{"bufferView":130,"componentType":5126,"count":19,"type":"VEC4"},{"bufferView":131,"componentType":5126,"count":19,"type":"VEC3"},{"bufferView":132,"componentType":5126,"count":19,"type":"VEC4"},{"bufferView":133,"componentType":5126,"count":19,"type":"VEC4"},{"bufferView":134,"componentType":5126,"count":37,"type":"SCALAR","min":[0.0],"max":[1.2000000476837158]},{"bufferView":135,"componentType":5126,"count":37,"type":"VEC4"},{"bufferView":136,"componentType":5126,"count":37,"type":"VEC4"},{"bufferView":137,"componentType":5126,"count":37,"type":"VEC4"},{"bufferView":138,"componentType":5126,"count":37,"type":"VEC4"},{"bufferView":139,"componentType":5126,"count":37,"type":"VEC3"}]}