{"asset":{"version":"2.0","generator":"tools/build_character.py"},"scene":0,"scenes":[{"nodes":[14]}],"nodes":[{"name":"root","translation":[0.0,0.0,0.0],"children":[1]},{"name":"hips","translation":[0.0,0.33,0.0],"children":[2,3,4,9]},{"name":"leg_l","translation":[0.253,0.0,0.0]},{"name":"leg_r","translation":[-0.253,0.0,0.0]},{"name":"chest","translation":[0.0,0.22,0.0],"children":[5,7,10]},{"name":"arm_l","translation":[0.55,0.242,0.0],"children":[6]},{"name":"hand_l","translation":[0.198,0.044,0.055]},{"name":"arm_r","translation":[-0.55,0.242,0.0],"children":[8]},{"name":"hand_r","translation":[-0.198,0.044,0.055]},{"name":"tail","translation":[0.0,0.044,-0.33]},{"name":"head","translation":[0.0,0.528,0.0],"children":[11,12]},{"name":"ear_l","translation":[0.59059,0.792,0.0]},{"name":"ear_r","translation":[-0.59059,0.792,0.0]},{"name":"Cheetie_Body","mesh":0,"skin":0},{"name":"Cheetie","children":[0,13]}],"meshes":[{"name":"Cheetie","primitives":[{"attributes":{"POSITION":0,"NORMAL":1,"TEXCOORD_0":2,"JOINTS_0":3,"WEIGHTS_0":4},"indices":5,"material":0}]}],"skins":[{"joints":[0,1,2,3,4,5,6,7,8,9,10,11,12],"inverseBindMatrices":6,"skeleton":0}],"materials":[{"name":"Cheetie","doubleSided":true,"pbrMetallicRoughness":{"baseColorTexture":{"index":0},"metallicFactor":0,"roughnessFactor":0.55},"emissiveTexture":{"index":0},"emissiveFactor":[0.18,0.18,0.18]}],"textures":[{"source":0,"sampler":0}],"samplers":[{"magFilter":9729,"minFilter":9987}],"images":[{"uri":"cheetie_texture.jpg"}],"animations":[{"name":"Idle","samplers":[{"input":7,"output":8,"interpolation":"LINEAR"},{"input":7,"output":9,"interpolation":"LINEAR"},{"input":7,"output":10,"interpolation":"LINEAR"},{"input":7,"output":11,"interpolation":"LINEAR"},{"input":7,"output":12,"interpolation":"LINEAR"},{"input":7,"output":13,"interpolation":"LINEAR"},{"input":7,"output":14,"interpolation":"LINEAR"},{"input":7,"output":15,"interpolation":"LINEAR"}],"channels":[{"sampler":0,"target":{"node":5,"path":"rotation"}},{"sampler":1,"target":{"node":7,"path":"rotation"}},{"sampler":2,"target":{"node":4,"path":"scale"}},{"sampler":3,"target":{"node":11,"path":"rotation"}},{"sampler":4,"target":{"node":12,"path":"rotation"}},{"sampler":5,"target":{"node":10,"path":"rotation"}},{"sampler":6,"target":{"node":1,"path":"translation"}},{"sampler":7,"target":{"node":9,"path":"rotation"}}]},{"name":"Walk","samplers":[{"input":16,"output":17,"interpolation":"LINEAR"},{"input":16,"output":18,"interpolation":"LINEAR"},{"input":16,"output":19,"interpolation":"LINEAR"},{"input":16,"output":20,"interpolation":"LINEAR"},{"input":16,"output":21,"interpolation":"LINEAR"},{"input":16,"output":22,"interpolation":"LINEAR"},{"input":16,"output":23,"interpolation":"LINEAR"},{"input":16,"output":24,"interpolation":"LINEAR"},{"input":16,"output":25,"interpolation":"LINEAR"},{"input":16,"output":26,"interpolation":"LINEAR"}],"channels":[{"sampler":0,"target":{"node":5,"path":"rotation"}},{"sampler":1,"target":{"node":7,"path":"rotation"}},{"sampler":2,"target":{"node":11,"path":"rotation"}},{"sampler":3,"target":{"node":12,"path":"rotation"}},{"sampler":4,"target":{"node":10,"path":"rotation"}},{"sampler":5,"target":{"node":1,"path":"rotation"}},{"sampler":6,"target":{"node":1,"path":"translation"}},{"sampler":7,"target":{"node":2,"path":"rotation"}},{"sampler":8,"target":{"node":3,"path":"rotation"}},{"sampler":9,"target":{"node":9,"path":"rotation"}}]},{"name":"Carry","samplers":[{"input":27,"output":28,"interpolation":"LINEAR"},{"input":27,"output":29,"interpolation":"LINEAR"},{"input":27,"output":30,"interpolation":"LINEAR"},{"input":27,"output":31,"interpolation":"LINEAR"},{"input":27,"output":32,"interpolation":"LINEAR"},{"input":27,"output":33,"interpolation":"LINEAR"},{"input":27,"output":34,"interpolation":"LINEAR"},{"input":27,"output":35,"interpolation":"LINEAR"},{"input":27,"output":36,"interpolation":"LINEAR"},{"input":27,"output":37,"interpolation":"LINEAR"}],"channels":[{"sampler":0,"target":{"node":5,"path":"rotation"}},{"sampler":1,"target":{"node":7,"path":"rotation"}},{"sampler":2,"target":{"node":11,"path":"rotation"}},{"sampler":3,"target":{"node":12,"path":"rotation"}},{"sampler":4,"target":{"node":10,"path":"rotation"}},{"sampler":5,"target":{"node":1,"path":"rotation"}},{"sampler":6,"target":{"node":1,"path":"translation"}},{"sampler":7,"target":{"node":2,"path":"rotation"}},{"sampler":8,"target":{"node":3,"path":"rotation"}},{"sampler":9,"target":{"node":9,"path":"rotation"}}]},{"name":"Sit","samplers":[{"input":38,"output":39,"interpolation":"LINEAR"},{"input":38,"output":40,"interpolation":"LINEAR"},{"input":38,"output":41,"interpolation":"LINEAR"},{"input":38,"output":42,"interpolation":"LINEAR"},{"input":38,"output":43,"interpolation":"LINEAR"},{"input":38,"output":44,"interpolation":"LINEAR"},{"input":38,"output":45,"interpolation":"LINEAR"},{"input":38,"output":46,"interpolation":"LINEAR"}],"channels":[{"sampler":0,"target":{"node":5,"path":"rotation"}},{"sampler":1,"target":{"node":7,"path":"rotation"}},{"sampler":2,"target":{"node":4,"path":"scale"}},{"sampler":3,"target":{"node":10,"path":"rotation"}},{"sampler":4,"target":{"node":1,"path":"translation"}},{"sampler":5,"target":{"node":2,"path":"rotation"}},{"sampler":6,"target":{"node":3,"path":"rotation"}},{"sampler":7,"target":{"node":9,"path":"rotation"}}]},{"name":"Eat","samplers":[{"input":47,"output":48,"interpolation":"LINEAR"},{"input":47,"output":49,"interpolation":"LINEAR"},{"input":47,"output":50,"interpolation":"LINEAR"},{"input":47,"output":51,"interpolation":"LINEAR"},{"input":47,"output":52,"interpolation":"LINEAR"},{"input":47,"output":53,"interpolation":"LINEAR"},{"input":47,"output":54,"interpolation":"LINEAR"},{"input":47,"output":55,"interpolation":"LINEAR"}],"channels":[{"sampler":0,"target":{"node":5,"path":"rotation"}},{"sampler":1,"target":{"node":7,"path":"rotation"}},{"sampler":2,"target":{"node":4,"path":"scale"}},{"sampler":3,"target":{"node":10,"path":"rotation"}},{"sampler":4,"target":{"node":1,"path":"translation"}},{"sampler":5,"target":{"node":2,"path":"rotation"}},{"sampler":6,"target":{"node":3,"path":"rotation"}},{"sampler":7,"target":{"node":9,"path":"rotation"}}]},{"name":"Wait","samplers":[{"input":56,"output":57,"interpolation":"LINEAR"},{"input":56,"output":58,"interpolation":"LINEAR"},{"input":56,"output":59,"interpolation":"LINEAR"},{"input":56,"output":60,"interpolation":"LINEAR"},{"input":56,"output":61,"interpolation":"LINEAR"},{"input":56,"output":62,"interpolation":"LINEAR"},{"input":56,"output":63,"interpolation":"LINEAR"},{"input":56,"output":64,"interpolation":"LINEAR"}],"channels":[{"sampler":0,"target":{"node":5,"path":"rotation"}},{"sampler":1,"target":{"node":7,"path":"rotation"}},{"sampler":2,"target":{"node":4,"path":"scale"}},{"sampler":3,"target":{"node":10,"path":"rotation"}},{"sampler":4,"target":{"node":1,"path":"translation"}},{"sampler":5,"target":{"node":2,"path":"rotation"}},{"sampler":6,"target":{"node":3,"path":"rotation"}},{"sampler":7,"target":{"node":9,"path":"rotation"}}]},{"name":"Work","samplers":[{"input":65,"output":66,"interpolation":"LINEAR"},{"input":65,"output":67,"interpolation":"LINEAR"},{"input":65,"output":68,"interpolation":"LINEAR"},{"input":65,"output":69,"interpolation":"LINEAR"},{"input":65,"output":70,"interpolation":"LINEAR"},{"input":65,"output":71,"interpolation":"LINEAR"},{"input":65,"output":72,"interpolation":"LINEAR"}],"channels":[{"sampler":0,"target":{"node":5,"path":"rotation"}},{"sampler":1,"target":{"node":7,"path":"rotation"}},{"sampler":2,"target":{"node":4,"path":"rotation"}},{"sampler":3,"target":{"node":4,"path":"scale"}},{"sampler":4,"target":{"node":10,"path":"rotation"}},{"sampler":5,"target":{"node":1,"path":"translation"}},{"sampler":6,"target":{"node":9,"path":"rotation"}}]},{"name":"Shake","samplers":[{"input":73,"output":74,"interpolation":"LINEAR"},{"input":73,"output":75,"interpolation":"LINEAR"},{"input":73,"output":76,"interpolation":"LINEAR"},{"input":73,"output":77,"interpolation":"LINEAR"},{"input":73,"output":78,"interpolation":"LINEAR"}],"channels":[{"sampler":0,"target":{"node":5,"path":"rotation"}},{"sampler":1,"target":{"node":7,"path":"rotation"}},{"sampler":2,"target":{"node":4,"path":"rotation"}},{"sampler":3,"target":{"node":10,"path":"rotation"}},{"sampler":4,"target":{"node":1,"path":"translation"}}]},{"name":"Talk","samplers":[{"input":79,"output":80,"interpolation":"LINEAR"},{"input":79,"output":81,"interpolation":"LINEAR"},{"input":79,"output":82,"interpolation":"LINEAR"},{"input":79,"output":83,"interpolation":"LINEAR"},{"input":79,"output":84,"interpolation":"LINEAR"},{"input":79,"output":85,"interpolation":"LINEAR"},{"input":79,"output":86,"interpolation":"LINEAR"},{"input":79,"output":87,"interpolation":"LINEAR"}],"channels":[{"sampler":0,"target":{"node":5,"path":"rotation"}},{"sampler":1,"target":{"node":7,"path":"rotation"}},{"sampler":2,"target":{"node":4,"path":"rotation"}},{"sampler":3,"target":{"node":4,"path":"scale"}},{"sampler":4,"target":{"node":11,"path":"rotation"}},{"sampler":5,"target":{"node":12,"path":"rotation"}},{"sampler":6,"target":{"node":10,"path":"rotation"}},{"sampler":7,"target":{"node":9,"path":"rotation"}}]},{"name":"Sweep","samplers":[{"input":88,"output":89,"interpolation":"LINEAR"},{"input":88,"output":90,"interpolation":"LINEAR"},{"input":88,"output":91,"interpolation":"LINEAR"},{"input":88,"output":92,"interpolation":"LINEAR"},{"input":88,"output":93,"interpolation":"LINEAR"}],"channels":[{"sampler":0,"target":{"node":5,"path":"rotation"}},{"sampler":1,"target":{"node":7,"path":"rotation"}},{"sampler":2,"target":{"node":4,"path":"rotation"}},{"sampler":3,"target":{"node":10,"path":"rotation"}},{"sampler":4,"target":{"node":1,"path":"rotation"}}]},{"name":"Repair","samplers":[{"input":94,"output":95,"interpolation":"LINEAR"},{"input":94,"output":96,"interpolation":"LINEAR"},{"input":94,"output":97,"interpolation":"LINEAR"},{"input":94,"output":98,"interpolation":"LINEAR"},{"input":94,"output":99,"interpolation":"LINEAR"}],"channels":[{"sampler":0,"target":{"node":5,"path":"rotation"}},{"sampler":1,"target":{"node":7,"path":"rotation"}},{"sampler":2,"target":{"node":4,"path":"rotation"}},{"sampler":3,"target":{"node":10,"path":"rotation"}},{"sampler":4,"target":{"node":1,"path":"translation"}}]},{"name":"Nap","samplers":[{"input":100,"output":101,"interpolation":"LINEAR"},{"input":100,"output":102,"interpolation":"LINEAR"},{"input":100,"output":103,"interpolation":"LINEAR"},{"input":100,"output":104,"interpolation":"LINEAR"},{"input":100,"output":105,"interpolation":"LINEAR"},{"input":100,"output":106,"interpolation":"LINEAR"},{"input":100,"output":107,"interpolation":"LINEAR"},{"input":100,"output":108,"interpolation":"LINEAR"},{"input":100,"output":109,"interpolation":"LINEAR"},{"input":100,"output":110,"interpolation":"LINEAR"}],"channels":[{"sampler":0,"target":{"node":5,"path":"rotation"}},{"sampler":1,"target":{"node":7,"path":"rotation"}},{"sampler":2,"target":{"node":4,"path":"rotation"}},{"sampler":3,"target":{"node":4,"path":"scale"}},{"sampler":4,"target":{"node":11,"path":"rotation"}},{"sampler":5,"target":{"node":12,"path":"rotation"}},{"sampler":6,"target":{"node":10,"path":"rotation"}},{"sampler":7,"target":{"node":1,"path":"translation"}},{"sampler":8,"target":{"node":2,"path":"rotation"}},{"sampler":9,"target":{"node":3,"path":"rotation"}}]},{"name":"Cheer","samplers":[{"input":111,"output":112,"interpolation":"LINEAR"},{"input":111,"output":113,"interpolation":"LINEAR"},{"input":111,"output":114,"interpolation":"LINEAR"},{"input":111,"output":115,"interpolation":"LINEAR"},{"input":111,"output":116,"interpolation":"LINEAR"},{"input":111,"output":117,"interpolation":"LINEAR"},{"input":111,"output":118,"interpolation":"LINEAR"},{"input":111,"output":119,"interpolation":"LINEAR"},{"input":111,"output":120,"interpolation":"LINEAR"},{"input":111,"output":121,"interpolation":"LINEAR"}],"channels":[{"sampler":0,"target":{"node":5,"path":"rotation"}},{"sampler":1,"target":{"node":7,"path":"rotation"}},{"sampler":2,"target":{"node":4,"path":"scale"}},{"sampler":3,"target":{"node":11,"path":"rotation"}},{"sampler":4,"target":{"node":12,"path":"rotation"}},{"sampler":5,"target":{"node":10,"path":"rotation"}},{"sampler":6,"target":{"node":1,"path":"translation"}},{"sampler":7,"target":{"node":2,"path":"rotation"}},{"sampler":8,"target":{"node":3,"path":"rotation"}},{"sampler":9,"target":{"node":9,"path":"rotation"}}]},{"name":"Hit","samplers":[{"input":122,"output":123,"interpolation":"LINEAR"},{"input":122,"output":124,"interpolation":"LINEAR"},{"input":122,"output":125,"interpolation":"LINEAR"},{"input":122,"output":126,"interpolation":"LINEAR"},{"input":122,"output":127,"interpolation":"LINEAR"},{"input":122,"output":128,"interpolation":"LINEAR"},{"input":122,"output":129,"interpolation":"LINEAR"},{"input":122,"output":130,"interpolation":"LINEAR"},{"input":122,"output":131,"interpolation":"LINEAR"}],"channels":[{"sampler":0,"target":{"node":5,"path":"rotation"}},{"sampler":1,"target":{"node":7,"path":"rotation"}},{"sampler":2,"target":{"node":4,"path":"scale"}},{"sampler":3,"target":{"node":11,"path":"rotation"}},{"sampler":4,"target":{"node":12,"path":"rotation"}},{"sampler":5,"target":{"node":10,"path":"rotation"}},{"sampler":6,"target":{"node":1,"path":"rotation"}},{"sampler":7,"target":{"node":1,"path":"translation"}},{"sampler":8,"target":{"node":9,"path":"rotation"}}]},{"name":"Pickup","samplers":[{"input":132,"output":133,"interpolation":"LINEAR"},{"input":132,"output":134,"interpolation":"LINEAR"},{"input":132,"output":135,"interpolation":"LINEAR"},{"input":132,"output":136,"interpolation":"LINEAR"},{"input":132,"output":137,"interpolation":"LINEAR"}],"channels":[{"sampler":0,"target":{"node":5,"path":"rotation"}},{"sampler":1,"target":{"node":7,"path":"rotation"}},{"sampler":2,"target":{"node":4,"path":"rotation"}},{"sampler":3,"target":{"node":10,"path":"rotation"}},{"sampler":4,"target":{"node":1,"path":"translation"}}]}],"buffers":[{"uri":"Cheetie.bin","byteLength":690668}],"bufferViews":[{"buffer":0,"byteOffset":0,"byteLength":123936,"target":34962},{"buffer":0,"byteOffset":123936,"byteLength":123936,"target":34962},{"buffer":0,"byteOffset":247872,"byteLength":82624,"target":34962},{"buffer":0,"byteOffset":330496,"byteLength":41312,"target":34962},{"buffer":0,"byteOffset":371808,"byteLength":165248,"target":34962},{"buffer":0,"byteOffset":537056,"byteLength":74940,"target":34963},{"buffer":0,"byteOffset":611996,"byteLength":832},{"buffer":0,"byteOffset":612828,"byteLength":292},{"buffer":0,"byteOffset":613120,"byteLength":1168},{"buffer":0,"byteOffset":614288,"byteLength":1168},{"buffer":0,"byteOffset":615456,"byteLength":876},{"buffer":0,"byteOffset":616332,"byteLength":1168},{"buffer":0,"byteOffset":617500,"byteLength":1168},{"buffer":0,"byteOffset":618668,"byteLength":1168},{"buffer":0,"byteOffset":619836,"byteLength":876},{"buffer":0,"byteOffset":620712,"byteLength":1168},{"buffer":0,"byteOffset":621880,"byteLength":60},{"buffer":0,"byteOffset":621940,"byteLength":240},{"buffer":0,"byteOffset":622180,"byteLength":240},{"buffer":0,"byteOffset":622420,"byteLength":240},{"buffer":0,"byteOffset":622660,"byteLength":240},{"buffer":0,"byteOffset":622900,"byteLength":240},{"buffer":0,"byteOffset":623140,"byteLength":240},{"buffer":0,"byteOffset":623380,"byteLength":180},{"buffer":0,"byteOffset":623560,"byteLength":240},{"buffer":0,"byteOffset":623800,"byteLength":240},{"buffer":0,"byteOffset":624040,"byteLength":240},{"buffer":0,"byteOffset":624280,"byteLength":60},{"buffer":0,"byteOffset":624340,"byteLength":240},{"buffer":0,"byteOffset":624580,"byteLength":240},{"buffer":0,"byteOffset":624820,"byteLength":240},{"buffer":0,"byteOffset":625060,"byteLength":240},{"buffer":0,"byteOffset":625300,"byteLength":240},{"buffer":0,"byteOffset":625540,"byteLength":240},{"buffer":0,"byteOffset":625780,"byteLength":180},{"buffer":0,"byteOffset":625960,"byteLength":240},{"buffer":0,"byteOffset":626200,"byteLength":240},{"buffer":0,"byteOffset":626440,"byteLength":240},{"buffer":0,"byteOffset":626680,"byteLength":364},{"buffer":0,"byteOffset":627044,"byteLength":1456},{"buffer":0,"byteOffset":628500,"byteLength":1456},{"buffer":0,"byteOffset":629956,"byteLength":1092},{"buffer":0,"byteOffset":631048,"byteLength":1456},{"buffer":0,"byteOffset":632504,"byteLength":1092},{"buffer":0,"byteOffset":633596,"byteLength":1456},{"buffer":0,"byteOffset":635052,"byteLength":1456},{"buffer":0,"byteOffset":636508,"byteLength":1456},{"buffer":0,"byteOffset":637964,"byteLength":172},{"buffer":0,"byteOffset":638136,"byteLength":688},{"buffer":0,"byteOffset":638824,"byteLength":688},{"buffer":0,"byteOffset":639512,"byteLength":516},{"buffer":0,"byteOffset":640028,"byteLength":688},{"buffer":0,"byteOffset":640716,"byteLength":516},{"buffer":0,"byteOffset":641232,"byteLength":688},{"buffer":0,"byteOffset":641920,"byteLength":688},{"buffer":0,"byteOffset":642608,"byteLength":688},{"buffer":0,"byteOffset":643296,"byteLength":268},{"buffer":0,"byteOffset":643564,"byteLength":1072},{"buffer":0,"byteOffset":644636,"byteLength":1072},{"buffer":0,"byteOffset":645708,"byteLength":804},{"buffer":0,"byteOffset":646512,"byteLength":1072},{"buffer":0,"byteOffset":647584,"byteLength":804},{"buffer":0,"byteOffset":648388,"byteLength":1072},{"buffer":0,"byteOffset":649460,"byteLength":1072},{"buffer":0,"byteOffset":650532,"byteLength":1072},{"buffer":0,"byteOffset":651604,"byteLength":112},{"buffer":0,"byteOffset":651716,"byteLength":448},{"buffer":0,"byteOffset":652164,"byteLength":448},{"buffer":0,"byteOffset":652612,"byteLength":448},{"buffer":0,"byteOffset":653060,"byteLength":336},{"buffer":0,"byteOffset":653396,"byteLength":448},{"buffer":0,"byteOffset":653844,"byteLength":336},{"buffer":0,"byteOffset":654180,"byteLength":448},{"buffer":0,"byteOffset":654628,"byteLength":76},{"buffer":0,"byteOffset":654704,"byteLength":304},{"buffer":0,"byteOffset":655008,"byteLength":304},{"buffer":0,"byteOffset":655312,"byteLength":304},{"buffer":0,"byteOffset":655616,"byteLength":304},{"buffer":0,"byteOffset":655920,"byteLength":228},{"buffer":0,"byteOffset":656148,"byteLength":172},{"buffer":0,"byteOffset":656320,"byteLength":688},{"buffer":0,"byteOffset":657008,"byteLength":688},{"buffer":0,"byteOffset":657696,"byteLength":688},{"buffer":0,"byteOffset":658384,"byteLength":516},{"buffer":0,"byteOffset":658900,"byteLength":688},{"buffer":0,"byteOffset":659588,"byteLength":688},{"buffer":0,"byteOffset":660276,"byteLength":688},{"buffer":0,"byteOffset":660964,"byteLength":688},{"buffer":0,"byteOffset":661652,"byteLength":124},{"buffer":0,"byteOffset":661776,"byteLength":496},{"buffer":0,"byteOffset":662272,"byteLength":496},{"buffer":0,"byteOffset":662768,"byteLength":496},{"buffer":0,"byteOffset":663264,"byteLength":496},{"buffer":0,"byteOffset":663760,"byteLength":496},{"buffer":0,"byteOffset":664256,"byteLength":88},{"buffer":0,"byteOffset":664344,"byteLength":352},{"buffer":0,"byteOffset":664696,"byteLength":352},{"buffer":0,"byteOffset":665048,"byteLength":352},{"buffer":0,"byteOffset":665400,"byteLength":352},{"buffer":0,"byteOffset":665752,"byteLength":264},{"buffer":0,"byteOffset":666016,"byteLength":388},{"buffer":0,"byteOffset":666404,"byteLength":1552},{"buffer":0,"byteOffset":667956,"byteLength":1552},{"buffer":0,"byteOffset":669508,"byteLength":1552},{"buffer":0,"byteOffset":671060,"byteLength":1164},{"buffer":0,"byteOffset":672224,"byteLength":1552},{"buffer":0,"byteOffset":673776,"byteLength":1552},{"buffer":0,"byteOffset":675328,"byteLength":1552},{"buffer":0,"byteOffset":676880,"byteLength":1164},{"buffer":0,"byteOffset":678044,"byteLength":1552},{"buffer":0,"byteOffset":679596,"byteLength":1552},{"buffer":0,"byteOffset":681148,"byteLength":100},{"buffer":0,"byteOffset":681248,"byteLength":400},{"buffer":0,"byteOffset":681648,"byteLength":400},{"buffer":0,"byteOffset":682048,"byteLength":300},{"buffer":0,"byteOffset":682348,"byteLength":400},{"buffer":0,"byteOffset":682748,"byteLength":400},{"buffer":0,"byteOffset":683148,"byteLength":400},{"buffer":0,"byteOffset":683548,"byteLength":300},{"buffer":0,"byteOffset":683848,"byteLength":400},{"buffer":0,"byteOffset":684248,"byteLength":400},{"buffer":0,"byteOffset":684648,"byteLength":400},{"buffer":0,"byteOffset":685048,"byteLength":76},{"buffer":0,"byteOffset":685124,"byteLength":304},{"buffer":0,"byteOffset":685428,"byteLength":304},{"buffer":0,"byteOffset":685732,"byteLength":228},{"buffer":0,"byteOffset":685960,"byteLength":304},{"buffer":0,"byteOffset":686264,"byteLength":304},{"buffer":0,"byteOffset":686568,"byteLength":304},{"buffer":0,"byteOffset":686872,"byteLength":304},{"buffer":0,"byteOffset":687176,"byteLength":228},{"buffer":0,"byteOffset":687404,"byteLength":304},{"buffer":0,"byteOffset":687708,"byteLength":148},{"buffer":0,"byteOffset":687856,"byteLength":592},{"buffer":0,"byteOffset":688448,"byteLength":592},{"buffer":0,"byteOffset":689040,"byteLength":592},{"buffer":0,"byteOffset":689632,"byteLength":592},{"buffer":0,"byteOffset":690224,"byteLength":444}],"accessors":[{"bufferView":0,"componentType":5126,"count":10328,"type":"VEC3","min":[-0.7652155160903931,0.0,-0.7676823139190674],"max":[0.7652155160903931,2.092261552810669,0.7960068583488464]},{"bufferView":1,"componentType":5126,"count":10328,"type":"VEC3"},{"bufferView":2,"componentType":5126,"count":10328,"type":"VEC2"},{"bufferView":3,"componentType":5121,"count":10328,"type":"VEC4"},{"bufferView":4,"componentType":5126,"count":10328,"type":"VEC4"},{"bufferView":5,"componentType":5123,"count":37470,"type":"SCALAR"},{"bufferView":6,"componentType":5126,"count":13,"type":"MAT4"},{"bufferView":7,"componentType":5126,"count":73,"type":"SCALAR","min":[0.0],"max":[2.4000000953674316]},{"bufferView":8,"componentType":5126,"count":73,"type":"VEC4"},{"bufferView":9,"componentType":5126,"count":73,"type":"VEC4"},{"bufferView":10,"componentType":5126,"count":73,"type":"VEC3"},{"bufferView":11,"componentType":5126,"count":73,"type":"VEC4"},{"bufferView":12,"componentType":5126,"count":73,"type":"VEC4"},{"bufferView":13,"componentType":5126,"count":73,"type":"VEC4"},{"bufferView":14,"componentType":5126,"count":73,"type":"VEC3"},{"bufferView":15,"componentType":5126,"count":73,"type":"VEC4"},{"bufferView":16,"componentType":5126,"count":15,"type":"SCALAR","min":[0.0],"max":[0.47999998927116394]},{"bufferView":17,"componentType":5126,"count":15,"type":"VEC4"},{"bufferView":18,"componentType":5126,"count":15,"type":"VEC4"},{"bufferView":19,"componentType":5126,"count":15,"type":"VEC4"},{"bufferView":20,"componentType":5126,"count":15,"type":"VEC4"},{"bufferView":21,"componentType":5126,"count":15,"type":"VEC4"},{"bufferView":22,"componentType":5126,"count":15,"type":"VEC4"},{"bufferView":23,"componentType":5126,"count":15,"type":"VEC3"},{"bufferView":24,"componentType":5126,"count":15,"type":"VEC4"},{"bufferView":25,"componentType":5126,"count":15,"type":"VEC4"},{"bufferView":26,"componentType":5126,"count":15,"type":"VEC4"},{"bufferView":27,"componentType":5126,"count":15,"type":"SCALAR","min":[0.0],"max":[0.47999998927116394]},{"bufferView":28,"componentType":5126,"count":15,"type":"VEC4"},{"bufferView":29,"componentType":5126,"count":15,"type":"VEC4"},{"bufferView":30,"componentType":5126,"count":15,"type":"VEC4"},{"bufferView":31,"componentType":5126,"count":15,"type":"VEC4"},{"bufferView":32,"componentType":5126,"count":15,"type":"VEC4"},{"bufferView":33,"componentType":5126,"count":15,"type":"VEC4"},{"bufferView":34,"componentType":5126,"count":15,"type":"VEC3"},{"bufferView":35,"componentType":5126,"count":15,"type":"VEC4"},{"bufferView":36,"componentType":5126,"count":15,"type":"VEC4"},{"bufferView":37,"componentType":5126,"count":15,"type":"VEC4"},{"bufferView":38,"componentType":5126,"count":91,"type":"SCALAR","min":[0.0],"max":[3.0]},{"bufferView":39,"componentType":5126,"count":91,"type":"VEC4"},{"bufferView":40,"componentType":5126,"count":91,"type":"VEC4"},{"bufferView":41,"componentType":5126,"count":91,"type":"VEC3"},{"bufferView":42,"componentType":5126,"count":91,"type":"VEC4"},{"bufferView":43,"componentType":5126,"count":91,"type":"VEC3"},{"bufferView":44,"componentType":5126,"count":91,"type":"VEC4"},{"bufferView":45,"componentType":5126,"count":91,"type":"VEC4"},{"bufferView":46,"componentType":5126,"count":91,"type":"VEC4"},{"bufferView":47,"componentType":5126,"count":43,"type":"SCALAR","min":[0.0],"max":[1.399999976158142]},{"bufferView":48,"componentType":5126,"count":43,"type":"VEC4"},{"bufferView":49,"componentType":5126,"count":43,"type":"VEC4"},{"bufferView":50,"componentType":5126,"count":43,"type":"VEC3"},{"bufferView":51,"componentType":5126,"count":43,"type":"VEC4"},{"bufferView":52,"componentType":5126,"count":43,"type":"VEC3"},{"bufferView":53,"componentType":5126,"count":43,"type":"VEC4"},{"bufferView":54,"componentType":5126,"count":43,"type":"VEC4"},{"bufferView":55,"componentType":5126,"count":43,"type":"VEC4"},{"bufferView":56,"componentType":5126,"count":67,"type":"SCALAR","min":[0.0],"max":[2.200000047683716]},{"bufferView":57,"componentType":5126,"count":67,"type":"VEC4"},{"bufferView":58,"componentType":5126,"count":67,"type":"VEC4"},{"bufferView":59,"componentType":5126,"count":67,"type":"VEC3"},{"bufferView":60,"componentType":5126,"count":67,"type":"VEC4"},{"bufferView":61,"componentType":5126,"count":67,"type":"VEC3"},{"bufferView":62,"componentType":5126,"count":67,"type":"VEC4"},{"bufferView":63,"componentType":5126,"count":67,"type":"VEC4"},{"bufferView":64,"componentType":5126,"count":67,"type":"VEC4"},{"bufferView":65,"componentType":5126,"count":28,"type":"SCALAR","min":[0.0],"max":[0.8999999761581421]},{"bufferView":66,"componentType":5126,"count":28,"type":"VEC4"},{"bufferView":67,"componentType":5126,"count":28,"type":"VEC4"},{"bufferView":68,"componentType":5126,"count":28,"type":"VEC4"},{"bufferView":69,"componentType":5126,"count":28,"type":"VEC3"},{"bufferView":70,"componentType":5126,"count":28,"type":"VEC4"},{"bufferView":71,"componentType":5126,"count":28,"type":"VEC3"},{"bufferView":72,"componentType":5126,"count":28,"type":"VEC4"},{"bufferView":73,"componentType":5126,"count":19,"type":"SCALAR","min":[0.0],"max":[0.6000000238418579]},{"bufferView":74,"componentType":5126,"count":19,"type":"VEC4"},{"bufferView":75,"componentType":5126,"count":19,"type":"VEC4"},{"bufferView":76,"componentType":5126,"count":19,"type":"VEC4"},{"bufferView":77,"componentType":5126,"count":19,"type":"VEC4"},{"bufferView":78,"componentType":5126,"count":19,"type":"VEC3"},{"bufferView":79,"componentType":5126,"count":43,"type":"SCALAR","min":[0.0],"max":[1.399999976158142]},{"bufferView":80,"componentType":5126,"count":43,"type":"VEC4"},{"bufferView":81,"componentType":5126,"count":43,"type":"VEC4"},{"bufferView":82,"componentType":5126,"count":43,"type":"VEC4"},{"bufferView":83,"componentType":5126,"count":43,"type":"VEC3"},{"bufferView":84,"componentType":5126,"count":43,"type":"VEC4"},{"bufferView":85,"componentType":5126,"count":43,"type":"VEC4"},{"bufferView":86,"componentType":5126,"count":43,"type":"VEC4"},{"bufferView":87,"componentType":5126,"count":43,"type":"VEC4"},{"bufferView":88,"componentType":5126,"count":31,"type":"SCALAR","min":[0.0],"max":[1.0]},{"bufferView":89,"componentType":5126,"count":31,"type":"VEC4"},{"bufferView":90,"componentType":5126,"count":31,"type":"VEC4"},{"bufferView":91,"componentType":5126,"count":31,"type":"VEC4"},{"bufferView":92,"componentType":5126,"count":31,"type":"VEC4"},{"bufferView":93,"componentType":5126,"count":31,"type":"VEC4"},{"bufferView":94,"componentType":5126,"count":22,"type":"SCALAR","min":[0.0],"max":[0.699999988079071]},{"bufferView":95,"componentType":5126,"count":22,"type":"VEC4"},{"bufferView":96,"componentType":5126,"count":22,"type":"VEC4"},{"bufferView":97,"componentType":5126,"count":22,"type":"VEC4"},{"bufferView":98,"componentType":5126,"count":22,"type":"VEC4"},{"bufferView":99,"componentType":5126,"count":22,"type":"VEC3"},{"bufferView":100,"componentType":5126,"count":97,"type":"SCALAR","min":[0.0],"max":[3.200000047683716]},{"bufferView":101,"componentType":5126,"count":97,"type":"VEC4"},{"bufferView":102,"componentType":5126,"count":97,"type":"VEC4"},{"bufferView":103,"componentType":5126,"count":97,"type":"VEC4"},{"bufferView":104,"componentType":5126,"count":97,"type":"VEC3"},{"bufferView":105,"componentType":5126,"count":97,"type":"VEC4"},{"bufferView":106,"componentType":5126,"count":97,"type":"VEC4"},{"bufferView":107,"componentType":5126,"count":97,"type":"VEC4"},{"bufferView":108,"componentType":5126,"count":97,"type":"VEC3"},{"bufferView":109,"componentType":5126,"count":97,"type":"VEC4"},{"bufferView":110,"componentType":5126,"count":97,"type":"VEC4"},{"bufferView":111,"componentType":5126,"count":25,"type":"SCALAR","min":[0.0],"max":[0.800000011920929]},{"bufferView":112,"componentType":5126,"count":25,"type":"VEC4"},{"bufferView":113,"componentType":5126,"count":25,"type":"VEC4"},{"bufferView":114,"componentType":5126,"count":25,"type":"VEC3"},{"bufferView":115,"componentType":5126,"count":25,"type":"VEC4"},{"bufferView":116,"componentType":5126,"count":25,"type":"VEC4"},{"bufferView":117,"componentType":5126,"count":25,"type":"VEC4"},{"bufferView":118,"componentType":5126,"count":25,"type":"VEC3"},{"bufferView":119,"componentType":5126,"count":25,"type":"VEC4"},{"bufferView":120,"componentType":5126,"count":25,"type":"VEC4"},{"bufferView":121,"componentType":5126,"count":25,"type":"VEC4"},{"bufferView":122,"componentType":5126,"count":19,"type":"SCALAR","min":[0.0],"max":[0.6000000238418579]},{"bufferView":123,"componentType":5126,"count":19,"type":"VEC4"},{"bufferView":124,"componentType":5126,"count":19,"type":"VEC4"},{"bufferView":125,"componentType":5126,"count":19,"type":"VEC3"},{"bufferView":126,"componentType":5126,"count":19,"type":"VEC4"},{"bufferView":127,"componentType":5126,"count":19,"type":"VEC4"},{"bufferView":128,"componentType":5126,"count":19,"type":"VEC4"},{"bufferView":129,"componentType":5126,"count":19,"type":"VEC4"},{"bufferView":130,"componentType":5126,"count":19,"type":"VEC3"},{"bufferView":131,"componentType":5126,"count":19,"type":"VEC4"},{"bufferView":132,"componentType":5126,"count":37,"type":"SCALAR","min":[0.0],"max":[1.2000000476837158]},{"bufferView":133,"componentType":5126,"count":37,"type":"VEC4"},{"bufferView":134,"componentType":5126,"count":37,"type":"VEC4"},{"bufferView":135,"componentType":5126,"count":37,"type":"VEC4"},{"bufferView":136,"componentType":5126,"count":37,"type":"VEC4"},{"bufferView":137,"componentType":5126,"count":37,"type":"VEC3"}]}