{
  "asset": {
    "generator": "glTF-Transform v4.5.1",
    "version": "2.0"
  },
  "accessors": [
    {
      "type": "MAT4",
      "componentType": 5126,
      "count": 41,
      "bufferView": 0,
      "byteOffset": 0
    },
    {
      "type": "SCALAR",
      "componentType": 5123,
      "count": 1404,
      "bufferView": 1,
      "byteOffset": 0
    },
    {
      "type": "SCALAR",
      "componentType": 5123,
      "count": 1188,
      "bufferView": 1,
      "byteOffset": 2808
    },
    {
      "type": "SCALAR",
      "componentType": 5123,
      "count": 252,
      "bufferView": 1,
      "byteOffset": 5184
    },
    {
      "type": "SCALAR",
      "componentType": 5123,
      "count": 1404,
      "bufferView": 1,
      "byteOffset": 5688
    },
    {
      "type": "SCALAR",
      "componentType": 5123,
      "count": 3690,
      "bufferView": 1,
      "byteOffset": 8496
    },
    {
      "type": "SCALAR",
      "componentType": 5123,
      "count": 3081,
      "bufferView": 1,
      "byteOffset": 15876
    },
    {
      "type": "SCALAR",
      "componentType": 5123,
      "count": 1254,
      "bufferView": 1,
      "byteOffset": 22040
    },
    {
      "type": "SCALAR",
      "componentType": 5123,
      "count": 1254,
      "bufferView": 1,
      "byteOffset": 24548
    },
    {
      "type": "VEC3",
      "componentType": 5126,
      "count": 330,
      "max": [
        0.9712533354759216,
        1.2524549961090088,
        0.1355091631412506
      ],
      "min": [
        0.08884597569704056,
        0.9572843313217163,
        -0.1355089694261551
      ],
      "bufferView": 2,
      "byteOffset": 0
    },
    {
      "type": "VEC3",
      "componentType": 5126,
      "count": 330,
      "bufferView": 2,
      "byteOffset": 12
    },
    {
      "type": "VEC2",
      "componentType": 5126,
      "count": 330,
      "bufferView": 2,
      "byteOffset": 24
    },
    {
      "type": "VEC4",
      "componentType": 5121,
      "count": 330,
      "bufferView": 2,
      "byteOffset": 32
    },
    {
      "type": "VEC4",
      "componentType": 5126,
      "count": 330,
      "bufferView": 2,
      "byteOffset": 36
    },
    {
      "type": "VEC3",
      "componentType": 5126,
      "count": 402,
      "max": [
        1.0464543104171753,
        0.9876133799552917,
        1.0228776931762695
      ],
      "min": [
        -1.0464541912078857,
        -0.14521382749080658,
        -1.0714528560638428
      ],
      "bufferView": 3,
      "byteOffset": 0
    },
    {
      "type": "VEC3",
      "componentType": 5126,
      "count": 402,
      "bufferView": 3,
      "byteOffset": 12
    },
    {
      "type": "VEC2",
      "componentType": 5126,
      "count": 402,
      "bufferView": 3,
      "byteOffset": 24
    },
    {
      "type": "VEC3",
      "componentType": 5126,
      "count": 56,
      "max": [
        0.4853890538215637,
        0.02009989321231842,
        -0.043504904955625534
      ],
      "min": [
        -0.4853677749633789,
        -1.160793662071228,
        -0.38609376549720764
      ],
      "bufferView": 4,
      "byteOffset": 0
    },
    {
      "type": "VEC3",
      "componentType": 5126,
      "count": 56,
      "bufferView": 4,
      "byteOffset": 12
    },
    {
      "type": "VEC2",
      "componentType": 5126,
      "count": 56,
      "bufferView": 4,
      "byteOffset": 24
    },
    {
      "type": "VEC3",
      "componentType": 5126,
      "count": 330,
      "max": [
        -0.08884597569704056,
        1.2524549961090088,
        0.1355091631412506
      ],
      "min": [
        -0.9712533354759216,
        0.9572843313217163,
        -0.1355089694261551
      ],
      "bufferView": 5,
      "byteOffset": 0
    },
    {
      "type": "VEC3",
      "componentType": 5126,
      "count": 330,
      "bufferView": 5,
      "byteOffset": 12
    },
    {
      "type": "VEC2",
      "componentType": 5126,
      "count": 330,
      "bufferView": 5,
      "byteOffset": 24
    },
    {
      "type": "VEC4",
      "componentType": 5121,
      "count": 330,
      "bufferView": 5,
      "byteOffset": 32
    },
    {
      "type": "VEC4",
      "componentType": 5126,
      "count": 330,
      "bufferView": 5,
      "byteOffset": 36
    },
    {
      "type": "VEC3",
      "componentType": 5126,
      "count": 1275,
      "max": [
        0.4260803759098053,
        1.3087890148162842,
        0.3866833448410034
      ],
      "min": [
        -0.4260346293449402,
        0.353935569524765,
        -0.37630411982536316
      ],
      "bufferView": 6,
      "byteOffset": 0
    },
    {
      "type": "VEC3",
      "componentType": 5126,
      "count": 1275,
      "bufferView": 6,
      "byteOffset": 12
    },
    {
      "type": "VEC2",
      "componentType": 5126,
      "count": 1275,
      "bufferView": 6,
      "byteOffset": 24
    },
    {
      "type": "VEC4",
      "componentType": 5121,
      "count": 1275,
      "bufferView": 6,
      "byteOffset": 32
    },
    {
      "type": "VEC4",
      "componentType": 5126,
      "count": 1275,
      "bufferView": 6,
      "byteOffset": 36
    },
    {
      "type": "VEC3",
      "componentType": 5126,
      "count": 761,
      "max": [
        0.5432295203208923,
        2.2026782035827637,
        0.5192027688026428
      ],
      "min": [
        -0.5431171655654907,
        1.0676575899124146,
        -0.748184084892273
      ],
      "bufferView": 7,
      "byteOffset": 0
    },
    {
      "type": "VEC3",
      "componentType": 5126,
      "count": 761,
      "bufferView": 7,
      "byteOffset": 12
    },
    {
      "type": "VEC2",
      "componentType": 5126,
      "count": 761,
      "bufferView": 7,
      "byteOffset": 24
    },
    {
      "type": "VEC4",
      "componentType": 5121,
      "count": 761,
      "bufferView": 7,
      "byteOffset": 32
    },
    {
      "type": "VEC4",
      "componentType": 5126,
      "count": 761,
      "bufferView": 7,
      "byteOffset": 36
    },
    {
      "type": "VEC3",
      "componentType": 5126,
      "count": 326,
      "max": [
        0.28810352087020874,
        0.5291943550109863,
        0.2641216814517975
      ],
      "min": [
        0.048996586352586746,
        -0.000026527046429691836,
        -0.1314052939414978
      ],
      "bufferView": 8,
      "byteOffset": 0
    },
    {
      "type": "VEC3",
      "componentType": 5126,
      "count": 326,
      "bufferView": 8,
      "byteOffset": 12
    },
    {
      "type": "VEC2",
      "componentType": 5126,
      "count": 326,
      "bufferView": 8,
      "byteOffset": 24
    },
    {
      "type": "VEC4",
      "componentType": 5121,
      "count": 326,
      "bufferView": 8,
      "byteOffset": 32
    },
    {
      "type": "VEC4",
      "componentType": 5126,
      "count": 326,
      "bufferView": 8,
      "byteOffset": 36
    },
    {
      "type": "VEC3",
      "componentType": 5126,
      "count": 326,
      "max": [
        -0.048996586352586746,
        0.5291943550109863,
        0.2641216814517975
      ],
      "min": [
        -0.28810352087020874,
        -0.000026527046429691836,
        -0.1314052939414978
      ],
      "bufferView": 9,
      "byteOffset": 0
    },
    {
      "type": "VEC3",
      "componentType": 5126,
      "count": 326,
      "bufferView": 9,
      "byteOffset": 12
    },
    {
      "type": "VEC2",
      "componentType": 5126,
      "count": 326,
      "bufferView": 9,
      "byteOffset": 24
    },
    {
      "type": "VEC4",
      "componentType": 5121,
      "count": 326,
      "bufferView": 9,
      "byteOffset": 32
    },
    {
      "type": "VEC4",
      "componentType": 5126,
      "count": 326,
      "bufferView": 9,
      "byteOffset": 36
    }
  ],
  "bufferViews": [
    {
      "buffer": 0,
      "byteOffset": 0,
      "byteLength": 2624
    },
    {
      "buffer": 0,
      "byteOffset": 2624,
      "byteLength": 27056,
      "target": 34963
    },
    {
      "buffer": 0,
      "byteOffset": 29680,
      "byteLength": 17160,
      "byteStride": 52,
      "target": 34962
    },
    {
      "buffer": 0,
      "byteOffset": 46840,
      "byteLength": 12864,
      "byteStride": 32,
      "target": 34962
    },
    {
      "buffer": 0,
      "byteOffset": 59704,
      "byteLength": 1792,
      "byteStride": 32,
      "target": 34962
    },
    {
      "buffer": 0,
      "byteOffset": 61496,
      "byteLength": 17160,
      "byteStride": 52,
      "target": 34962
    },
    {
      "buffer": 0,
      "byteOffset": 78656,
      "byteLength": 66300,
      "byteStride": 52,
      "target": 34962
    },
    {
      "buffer": 0,
      "byteOffset": 144956,
      "byteLength": 39572,
      "byteStride": 52,
      "target": 34962
    },
    {
      "buffer": 0,
      "byteOffset": 184528,
      "byteLength": 16952,
      "byteStride": 52,
      "target": 34962
    },
    {
      "buffer": 0,
      "byteOffset": 201480,
      "byteLength": 16952,
      "byteStride": 52,
      "target": 34962
    }
  ],
  "samplers": [
    {
      "magFilter": 9729,
      "minFilter": 9987,
      "wrapS": 10497,
      "wrapT": 10497
    }
  ],
  "textures": [
    {
      "source": 0,
      "sampler": 0
    }
  ],
  "images": [
    {
      "name": "mage_texture",
      "mimeType": "image/png",
      "uri": "mage_texture.png"
    }
  ],
  "buffers": [
    {
      "uri": "Mage.bin",
      "byteLength": 218432
    }
  ],
  "materials": [
    {
      "name": "mage_texture",
      "doubleSided": true,
      "pbrMetallicRoughness": {
        "roughnessFactor": 0.5,
        "metallicFactor": 0,
        "baseColorTexture": {
          "index": 0
        }
      }
    }
  ],
  "meshes": [
    {
      "name": "Cube.157",
      "primitives": [
        {
          "attributes": {
            "POSITION": 9,
            "NORMAL": 10,
            "TEXCOORD_0": 11,
            "JOINTS_0": 12,
            "WEIGHTS_0": 13
          },
          "mode": 4,
          "material": 0,
          "indices": 1
        }
      ]
    },
    {
      "name": "Cube.156",
      "primitives": [
        {
          "attributes": {
            "POSITION": 14,
            "NORMAL": 15,
            "TEXCOORD_0": 16
          },
          "mode": 4,
          "material": 0,
          "indices": 2
        }
      ]
    },
    {
      "name": "Plane.030",
      "primitives": [
        {
          "attributes": {
            "POSITION": 17,
            "NORMAL": 18,
            "TEXCOORD_0": 19
          },
          "mode": 4,
          "material": 0,
          "indices": 3
        }
      ]
    },
    {
      "name": "Cube.158",
      "primitives": [
        {
          "attributes": {
            "POSITION": 20,
            "NORMAL": 21,
            "TEXCOORD_0": 22,
            "JOINTS_0": 23,
            "WEIGHTS_0": 24
          },
          "mode": 4,
          "material": 0,
          "indices": 4
        }
      ]
    },
    {
      "name": "Cube.155",
      "primitives": [
        {
          "attributes": {
            "POSITION": 25,
            "NORMAL": 26,
            "TEXCOORD_0": 27,
            "JOINTS_0": 28,
            "WEIGHTS_0": 29
          },
          "mode": 4,
          "material": 0,
          "indices": 5
        }
      ]
    },
    {
      "name": "Cube.159",
      "primitives": [
        {
          "attributes": {
            "POSITION": 30,
            "NORMAL": 31,
            "TEXCOORD_0": 32,
            "JOINTS_0": 33,
            "WEIGHTS_0": 34
          },
          "mode": 4,
          "material": 0,
          "indices": 6
        }
      ]
    },
    {
      "name": "Cube.153",
      "primitives": [
        {
          "attributes": {
            "POSITION": 35,
            "NORMAL": 36,
            "TEXCOORD_0": 37,
            "JOINTS_0": 38,
            "WEIGHTS_0": 39
          },
          "mode": 4,
          "material": 0,
          "indices": 7
        }
      ]
    },
    {
      "name": "Cube.154",
      "primitives": [
        {
          "attributes": {
            "POSITION": 40,
            "NORMAL": 41,
            "TEXCOORD_0": 42,
            "JOINTS_0": 43,
            "WEIGHTS_0": 44
          },
          "mode": 4,
          "material": 0,
          "indices": 8
        }
      ]
    }
  ],
  "nodes": [
    {
      "name": "Spellbook",
      "translation": [
        -5.960464477539063e-8,
        0.2657395248265291,
        1.6041727946003448e-8
      ],
      "rotation": [
        8.953732333338849e-8,
        -0.7071068286895752,
        -0.7071068286895752,
        9.813827972493527e-8
      ]
    },
    {
      "name": "Spellbook_open",
      "translation": [
        -5.960464477539063e-8,
        0.14538810597372304,
        6.955465980951203e-9
      ],
      "rotation": [
        8.953732333338849e-8,
        -0.7071068286895752,
        -0.7071068286895752,
        9.813827972493527e-8
      ]
    },
    {
      "name": "handslot.l",
      "translation": [
        8.348148838877023e-10,
        0.09612506628036499,
        -0.05750012397766113
      ],
      "rotation": [
        1.6097531085890182e-9,
        1.6097529975667157e-9,
        -0.7071068286895752,
        0.7071067094802856
      ],
      "children": [
        0,
        1
      ]
    },
    {
      "name": "hand.l",
      "translation": [
        9.08162434143378e-13,
        0.07382583618164062,
        2.220446049250313e-16
      ],
      "children": [
        2
      ]
    },
    {
      "name": "wrist.l",
      "translation": [
        8.719291955117114e-9,
        0.26004382967948914,
        -1.5019517574099694e-10
      ],
      "rotation": [
        -9.737839007373239e-11,
        -2.984370806036196e-10,
        0.02665809914469719,
        0.9996446967124939
      ],
      "children": [
        3
      ]
    },
    {
      "name": "lowerarm.l",
      "translation": [
        -3.219664979070558e-9,
        0.24189729988574982,
        -1.1940561250867177e-7
      ],
      "rotation": [
        1.6480538045371418e-9,
        -5.950362336193393e-8,
        -0.05528552085161209,
        0.9984706044197083
      ],
      "children": [
        4
      ]
    },
    {
      "name": "upperarm.l",
      "translation": [
        0.21200737357139587,
        0.13413214683532715,
        8.40246201505579e-8
      ],
      "rotation": [
        -0.5141214728355408,
        -0.485467791557312,
        -0.4854677617549896,
        0.5141218900680542
      ],
      "children": [
        5
      ]
    },
    {
      "name": "1H_Wand",
      "rotation": [
        -1.3270667409415182e-7,
        -1,
        4.3711366970455856e-8,
        2.2765060947449456e-9
      ]
    },
    {
      "name": "2H_Staff",
      "rotation": [
        -1.3270667409415182e-7,
        -1,
        4.3711366970455856e-8,
        2.2765060947449456e-9
      ]
    },
    {
      "name": "handslot.r",
      "translation": [
        -8.348148838877023e-10,
        0.09612506628036499,
        -0.05750012397766113
      ],
      "rotation": [
        1.6097330135522725e-9,
        -1.60973290252997e-9,
        0.7071068286895752,
        0.7071067094802856
      ],
      "children": [
        7,
        8
      ]
    },
    {
      "name": "hand.r",
      "translation": [
        1.3322676295501878e-15,
        0.07382583618164062,
        2.220446049250313e-16
      ],
      "children": [
        9
      ]
    },
    {
      "name": "wrist.r",
      "translation": [
        -8.718383348593761e-9,
        0.26004382967948914,
        -1.5019517574099694e-10
      ],
      "rotation": [
        -9.737839007373239e-11,
        2.984370806036196e-10,
        -0.02665809914469719,
        0.9996446967124939
      ],
      "children": [
        10
      ]
    },
    {
      "name": "lowerarm.r",
      "translation": [
        -7.121856576697283e-11,
        0.2418973296880722,
        -1.1940561250867177e-7
      ],
      "rotation": [
        1.6480535824925369e-9,
        5.950363046736129e-8,
        0.05528552085161209,
        0.9984706044197083
      ],
      "children": [
        11
      ]
    },
    {
      "name": "upperarm.r",
      "translation": [
        -0.21200737357139587,
        0.13413214683532715,
        8.40246201505579e-8
      ],
      "rotation": [
        -0.514121413230896,
        0.48546773195266724,
        0.4854677617549896,
        0.514121949672699
      ],
      "children": [
        12
      ]
    },
    {
      "name": "Mage_Hat",
      "translation": [
        1.4542331961725899e-21,
        0.542674842943921,
        -1.0233256375613564e-7
      ],
      "rotation": [
        -0.13052621483802795,
        -7.044638767591876e-15,
        -9.274443260359928e-16,
        0.9914448857307434
      ],
      "mesh": 1
    },
    {
      "name": "head",
      "translation": [
        0,
        0.26879656314849854,
        0
      ],
      "children": [
        14
      ]
    },
    {
      "name": "Mage_Cape",
      "translation": [
        1.4542332971467857e-21,
        0.2432448428151917,
        -1.02332570861563e-7
      ],
      "mesh": 2
    },
    {
      "name": "chest",
      "translation": [
        0,
        0.37498795986175537,
        0
      ],
      "children": [
        6,
        13,
        15,
        16
      ]
    },
    {
      "name": "spine",
      "translation": [
        0,
        0.19197750091552734,
        0
      ],
      "children": [
        17
      ]
    },
    {
      "name": "toes.l",
      "translation": [
        -2.1305965325346676e-10,
        0.16565002501010895,
        5.171735040221392e-9
      ],
      "rotation": [
        -3.04790823690837e-8,
        0.9203547835350037,
        -0.3910844624042511,
        6.948484809754518e-8
      ]
    },
    {
      "name": "foot.l",
      "translation": [
        1.8322229844436322e-10,
        0.14943702518939972,
        9.665366285105392e-10
      ],
      "rotation": [
        -0.45523902773857117,
        1.619712719502786e-8,
        -3.4356844480498694e-8,
        0.8903692960739136
      ],
      "children": [
        19
      ]
    },
    {
      "name": "lowerleg.l",
      "translation": [
        3.5798182196344897e-9,
        0.22707749903202057,
        -6.1398597317463555e-9
      ],
      "rotation": [
        0.1062251403927803,
        6.865285229196161e-8,
        -7.376987554152947e-8,
        0.9943422079086304
      ],
      "children": [
        20
      ]
    },
    {
      "name": "upperleg.l",
      "translation": [
        0.17094506323337555,
        0.11358726024627686,
        1.392327231286572e-8
      ],
      "rotation": [
        0.9998490810394287,
        -7.132756252303807e-8,
        -1.2042738362083583e-8,
        0.017373191192746162
      ],
      "children": [
        21
      ]
    },
    {
      "name": "toes.r",
      "translation": [
        2.1305768260759805e-10,
        0.16565002501010895,
        5.171739481113491e-9
      ],
      "rotation": [
        -3.047908592179738e-8,
        -0.9203547835350037,
        0.3910844624042511,
        6.94848623083999e-8
      ]
    },
    {
      "name": "foot.r",
      "translation": [
        -1.832210216878849e-10,
        0.14943702518939972,
        9.665415134918476e-10
      ],
      "rotation": [
        -0.45523902773857117,
        1.659824135913368e-7,
        2.2509516472979385e-9,
        0.8903692960739136
      ],
      "children": [
        23
      ]
    },
    {
      "name": "lowerleg.r",
      "translation": [
        -3.5798182196344897e-9,
        0.22707749903202057,
        -6.1398597317463555e-9
      ],
      "rotation": [
        0.1062251403927803,
        -6.865286650281632e-8,
        7.376987554152947e-8,
        0.9943422079086304
      ],
      "children": [
        24
      ]
    },
    {
      "name": "upperleg.r",
      "translation": [
        -0.17094506323337555,
        0.11358726024627686,
        1.392327231286572e-8
      ],
      "rotation": [
        0.9998490810394287,
        7.426564252455137e-8,
        -3.172627316416765e-8,
        0.017373191192746162
      ],
      "children": [
        25
      ]
    },
    {
      "name": "hips",
      "translation": [
        0,
        0.4056634306907654,
        0
      ],
      "children": [
        18,
        22,
        26
      ]
    },
    {
      "name": "kneeIK.l",
      "translation": [
        0.1709449142217636,
        0.29231026768684387,
        0.5758124589920044
      ],
      "rotation": [
        0.7071068286895752,
        -2.2930233001261513e-7,
        -4.6055184554916195e-8,
        0.7071068286895752
      ]
    },
    {
      "name": "heelIK.l",
      "translation": [
        8.589881694831547e-9,
        0.16565003991127014,
        -5.0913655513795675e-9
      ],
      "rotation": [
        -0.39108434319496155,
        -6.88499994794256e-8,
        -6.562877530313926e-8,
        0.9203548431396484
      ]
    },
    {
      "name": "IK-foot.l",
      "translation": [
        8.589881694831547e-9,
        0.16565003991127014,
        -5.0913655513795675e-9
      ],
      "rotation": [
        -1,
        3.10862701004928e-15,
        -1.9470719792025193e-7,
        6.917388749250975e-22
      ]
    },
    {
      "name": "control-foot-roll.l",
      "translation": [
        -1.1148216572109959e-8,
        0.21343614161014557,
        -2.50941980953559e-15
      ],
      "rotation": [
        1.0403525152469228e-7,
        -0.39108434319496155,
        -0.9203548431396484,
        2.9526043832106552e-8
      ],
      "children": [
        29,
        30
      ]
    },
    {
      "name": "IK-toe.l"
    },
    {
      "name": "control-heel-roll.l",
      "translation": [
        1.945810979009366e-8,
        0.3628326654434204,
        -2.42861286636753e-15
      ],
      "rotation": [
        -7.105437521996369e-15,
        1.3832116828440821e-22,
        -1,
        2.339829540917677e-34
      ],
      "children": [
        31,
        32
      ]
    },
    {
      "name": "control-toe-roll.l",
      "translation": [
        0.1709449738264084,
        0.025990262627601624,
        0.24578937888145447
      ],
      "rotation": [
        -0.7071068286895752,
        -7.052850037325697e-8,
        -7.052848616240226e-8,
        0.7071068286895752
      ],
      "children": [
        33
      ]
    },
    {
      "name": "kneeIK.r",
      "translation": [
        -0.1709451824426651,
        0.29231026768684387,
        0.5758123397827148
      ],
      "rotation": [
        0.7071068286895752,
        -3.8238496813391976e-8,
        1.4500865574973432e-7,
        0.7071068286895752
      ]
    },
    {
      "name": "heelIK.r",
      "translation": [
        -6.311275058124011e-9,
        0.16565003991127014,
        1.366082358345011e-9
      ],
      "rotation": [
        -0.39108434319496155,
        -6.885001369028032e-8,
        -6.562875398685719e-8,
        0.9203548431396484
      ]
    },
    {
      "name": "IK-foot.r",
      "translation": [
        -2.1212436251971667e-8,
        0.16565003991127014,
        1.366076585185283e-9
      ],
      "rotation": [
        1,
        4.4408645699298404e-16,
        1.9470719792025193e-7,
        6.917388749250975e-22
      ]
    },
    {
      "name": "control-foot-roll.r",
      "translation": [
        3.752941513113228e-9,
        0.21343614161014557,
        0
      ],
      "rotation": [
        1.0403522310298285e-7,
        -0.39108434319496155,
        -0.9203548431396484,
        2.952605271389075e-8
      ],
      "children": [
        36,
        37
      ]
    },
    {
      "name": "IK-toe.r"
    },
    {
      "name": "control-heel-roll.r",
      "translation": [
        1.945810623737998e-8,
        0.3628326654434204,
        2.42861286636753e-15
      ],
      "rotation": [
        -7.105437521996369e-15,
        1.3832106731021235e-22,
        -1,
        2.3398304592726387e-34
      ],
      "children": [
        38,
        39
      ]
    },
    {
      "name": "control-toe-roll.r",
      "translation": [
        -0.17094509303569794,
        0.025990262627601624,
        0.2457892894744873
      ],
      "rotation": [
        -0.7071068286895752,
        -7.052850747868433e-8,
        -7.052850037325697e-8,
        0.7071068286895752
      ],
      "children": [
        40
      ]
    },
    {
      "name": "elbowIK.l",
      "translation": [
        0.4535074830055237,
        1.10676109790802,
        -0.5888593792915344
      ],
      "rotation": [
        -0.7071068286895752,
        -7.279511038404962e-8,
        -7.279508906776755e-8,
        0.7071068286895752
      ]
    },
    {
      "name": "handIK.l",
      "translation": [
        0.7131814956665039,
        1.10676109790802,
        2.5491414135103696e-7
      ],
      "rotation": [
        -0.4999999403953552,
        -0.5000000596046448,
        -0.5000000596046448,
        0.5
      ]
    },
    {
      "name": "elbowIK.r",
      "translation": [
        -0.4535071849822998,
        1.10676109790802,
        -0.5888596177101135
      ],
      "rotation": [
        -0.7071068286895752,
        -7.279511038404962e-8,
        -7.279508906776755e-8,
        0.7071068286895752
      ]
    },
    {
      "name": "handIK.r",
      "translation": [
        -0.7131815552711487,
        1.10676109790802,
        -8.515731053648778e-8
      ],
      "rotation": [
        -0.5000000596046448,
        0.4999999403953552,
        0.5,
        0.5000000596046448
      ]
    },
    {
      "name": "root",
      "children": [
        27,
        28,
        34,
        35,
        41,
        42,
        43,
        44,
        45
      ]
    },
    {
      "name": "Mage_ArmLeft",
      "mesh": 0,
      "skin": 0
    },
    {
      "name": "Mage_ArmRight",
      "mesh": 3,
      "skin": 0
    },
    {
      "name": "Mage_Body",
      "mesh": 4,
      "skin": 0
    },
    {
      "name": "Mage_Head",
      "mesh": 5,
      "skin": 0
    },
    {
      "name": "Mage_LegLeft",
      "mesh": 6,
      "skin": 0
    },
    {
      "name": "Mage_LegRight",
      "mesh": 7,
      "skin": 0
    },
    {
      "name": "Rig",
      "children": [
        47,
        48,
        49,
        50,
        51,
        52,
        46
      ]
    }
  ],
  "skins": [
    {
      "name": "Rig",
      "inverseBindMatrices": 0,
      "joints": [
        46,
        27,
        18,
        17,
        6,
        5,
        4,
        3,
        2,
        13,
        12,
        11,
        10,
        9,
        15,
        22,
        21,
        20,
        19,
        26,
        25,
        24,
        23,
        28,
        34,
        33,
        31,
        29,
        30,
        32,
        35,
        41,
        40,
        38,
        36,
        37,
        39,
        42,
        43,
        44,
        45
      ]
    }
  ],
  "scenes": [
    {
      "name": "Scene",
      "nodes": [
        53
      ]
    }
  ],
  "scene": 0
}