{"asset":{"version":"2.0","generator":"tools/build_character.py"},"scene":0,"scenes":[{"nodes":[14]}],"nodes":[{"name":"root","translation":[0.0,0.0,0.0],"children":[1]},{"name":"hips","translation":[0.0,0.3,0.0],"children":[2,3,4,9]},{"name":"leg_l","translation":[0.26,-0.05,0.05]},{"name":"leg_r","translation":[-0.26,-0.05,0.05]},{"name":"chest","translation":[0.0,0.25,0.0],"children":[5,7,10]},{"name":"arm_l","translation":[0.6,0.01,0.0],"children":[6]},{"name":"hand_l","translation":[0.1,-0.02,0.02]},{"name":"arm_r","translation":[-0.6,0.01,0.0],"children":[8]},{"name":"hand_r","translation":[-0.1,-0.02,0.02]},{"name":"tail","translation":[0.0,0.2,-0.3]},{"name":"head","translation":[0.0,0.25,0.0],"children":[11,12]},{"name":"ear_l","translation":[0.35,0.55,0.0]},{"name":"ear_r","translation":[-0.35,0.55,0.0]},{"name":"Oritokki_Body","mesh":0,"skin":0},{"name":"Oritokki","children":[0,13]}],"meshes":[{"name":"Oritokki","primitives":[{"attributes":{"POSITION":0,"NORMAL":1,"TEXCOORD_0":2,"JOINTS_0":3,"WEIGHTS_0":4},"indices":5,"material":0}]}],"skins":[{"joints":[0,1,2,3,4,5,6,7,8,9,10,11,12],"inverseBindMatrices":6,"skeleton":0}],"materials":[{"name":"Oritokki","doubleSided":true,"pbrMetallicRoughness":{"baseColorTexture":{"index":0},"metallicFactor":0,"roughnessFactor":0.55},"emissiveTexture":{"index":0},"emissiveFactor":[0.18,0.18,0.18]}],"textures":[{"source":0,"sampler":0}],"samplers":[{"magFilter":9729,"minFilter":9987}],"images":[{"uri":"oritokki_texture.jpg"}],"animations":[{"name":"Idle","samplers":[{"input":7,"output":8,"interpolation":"LINEAR"},{"input":7,"output":9,"interpolation":"LINEAR"},{"input":7,"output":10,"interpolation":"LINEAR"},{"input":7,"output":11,"interpolation":"LINEAR"},{"input":7,"output":12,"interpolation":"LINEAR"},{"input":7,"output":13,"interpolation":"LINEAR"},{"input":7,"output":14,"interpolation":"LINEAR"},{"input":7,"output":15,"interpolation":"LINEAR"}],"channels":[{"sampler":0,"target":{"node":5,"path":"rotation"}},{"sampler":1,"target":{"node":7,"path":"rotation"}},{"sampler":2,"target":{"node":4,"path":"scale"}},{"sampler":3,"target":{"node":11,"path":"rotation"}},{"sampler":4,"target":{"node":12,"path":"rotation"}},{"sampler":5,"target":{"node":10,"path":"rotation"}},{"sampler":6,"target":{"node":1,"path":"translation"}},{"sampler":7,"target":{"node":9,"path":"rotation"}}]},{"name":"Walk","samplers":[{"input":16,"output":17,"interpolation":"LINEAR"},{"input":16,"output":18,"interpolation":"LINEAR"},{"input":16,"output":19,"interpolation":"LINEAR"},{"input":16,"output":20,"interpolation":"LINEAR"},{"input":16,"output":21,"interpolation":"LINEAR"},{"input":16,"output":22,"interpolation":"LINEAR"},{"input":16,"output":23,"interpolation":"LINEAR"},{"input":16,"output":24,"interpolation":"LINEAR"},{"input":16,"output":25,"interpolation":"LINEAR"},{"input":16,"output":26,"interpolation":"LINEAR"}],"channels":[{"sampler":0,"target":{"node":5,"path":"rotation"}},{"sampler":1,"target":{"node":7,"path":"rotation"}},{"sampler":2,"target":{"node":11,"path":"rotation"}},{"sampler":3,"target":{"node":12,"path":"rotation"}},{"sampler":4,"target":{"node":10,"path":"rotation"}},{"sampler":5,"target":{"node":1,"path":"rotation"}},{"sampler":6,"target":{"node":1,"path":"translation"}},{"sampler":7,"target":{"node":2,"path":"rotation"}},{"sampler":8,"target":{"node":3,"path":"rotation"}},{"sampler":9,"target":{"node":9,"path":"rotation"}}]},{"name":"Carry","samplers":[{"input":27,"output":28,"interpolation":"LINEAR"},{"input":27,"output":29,"interpolation":"LINEAR"},{"input":27,"output":30,"interpolation":"LINEAR"},{"input":27,"output":31,"interpolation":"LINEAR"},{"input":27,"output":32,"interpolation":"LINEAR"},{"input":27,"output":33,"interpolation":"LINEAR"},{"input":27,"output":34,"interpolation":"LINEAR"},{"input":27,"output":35,"interpolation":"LINEAR"},{"input":27,"output":36,"interpolation":"LINEAR"},{"input":27,"output":37,"interpolation":"LINEAR"}],"channels":[{"sampler":0,"target":{"node":5,"path":"rotation"}},{"sampler":1,"target":{"node":7,"path":"rotation"}},{"sampler":2,"target":{"node":11,"path":"rotation"}},{"sampler":3,"target":{"node":12,"path":"rotation"}},{"sampler":4,"target":{"node":10,"path":"rotation"}},{"sampler":5,"target":{"node":1,"path":"rotation"}},{"sampler":6,"target":{"node":1,"path":"translation"}},{"sampler":7,"target":{"node":2,"path":"rotation"}},{"sampler":8,"target":{"node":3,"path":"rotation"}},{"sampler":9,"target":{"node":9,"path":"rotation"}}]},{"name":"Sit","samplers":[{"input":38,"output":39,"interpolation":"LINEAR"},{"input":38,"output":40,"interpolation":"LINEAR"},{"input":38,"output":41,"interpolation":"LINEAR"},{"input":38,"output":42,"interpolation":"LINEAR"},{"input":38,"output":43,"interpolation":"LINEAR"},{"input":38,"output":44,"interpolation":"LINEAR"},{"input":38,"output":45,"interpolation":"LINEAR"},{"input":38,"output":46,"interpolation":"LINEAR"}],"channels":[{"sampler":0,"target":{"node":5,"path":"rotation"}},{"sampler":1,"target":{"node":7,"path":"rotation"}},{"sampler":2,"target":{"node":4,"path":"scale"}},{"sampler":3,"target":{"node":10,"path":"rotation"}},{"sampler":4,"target":{"node":1,"path":"translation"}},{"sampler":5,"target":{"node":2,"path":"rotation"}},{"sampler":6,"target":{"node":3,"path":"rotation"}},{"sampler":7,"target":{"node":9,"path":"rotation"}}]},{"name":"Eat","samplers":[{"input":47,"output":48,"interpolation":"LINEAR"},{"input":47,"output":49,"interpolation":"LINEAR"},{"input":47,"output":50,"interpolation":"LINEAR"},{"input":47,"output":51,"interpolation":"LINEAR"},{"input":47,"output":52,"interpolation":"LINEAR"},{"input":47,"output":53,"interpolation":"LINEAR"},{"input":47,"output":54,"interpolation":"LINEAR"},{"input":47,"output":55,"interpolation":"LINEAR"}],"channels":[{"sampler":0,"target":{"node":5,"path":"rotation"}},{"sampler":1,"target":{"node":7,"path":"rotation"}},{"sampler":2,"target":{"node":4,"path":"scale"}},{"sampler":3,"target":{"node":10,"path":"rotation"}},{"sampler":4,"target":{"node":1,"path":"translation"}},{"sampler":5,"target":{"node":2,"path":"rotation"}},{"sampler":6,"target":{"node":3,"path":"rotation"}},{"sampler":7,"target":{"node":9,"path":"rotation"}}]},{"name":"Wait","samplers":[{"input":56,"output":57,"interpolation":"LINEAR"},{"input":56,"output":58,"interpolation":"LINEAR"},{"input":56,"output":59,"interpolation":"LINEAR"},{"input":56,"output":60,"interpolation":"LINEAR"},{"input":56,"output":61,"interpolation":"LINEAR"},{"input":56,"output":62,"interpolation":"LINEAR"},{"input":56,"output":63,"interpolation":"LINEAR"},{"input":56,"output":64,"interpolation":"LINEAR"}],"channels":[{"sampler":0,"target":{"node":5,"path":"rotation"}},{"sampler":1,"target":{"node":7,"path":"rotation"}},{"sampler":2,"target":{"node":4,"path":"scale"}},{"sampler":3,"target":{"node":10,"path":"rotation"}},{"sampler":4,"target":{"node":1,"path":"translation"}},{"sampler":5,"target":{"node":2,"path":"rotation"}},{"sampler":6,"target":{"node":3,"path":"rotation"}},{"sampler":7,"target":{"node":9,"path":"rotation"}}]},{"name":"Work","samplers":[{"input":65,"output":66,"interpolation":"LINEAR"},{"input":65,"output":67,"interpolation":"LINEAR"},{"input":65,"output":68,"interpolation":"LINEAR"},{"input":65,"output":69,"interpolation":"LINEAR"},{"input":65,"output":70,"interpolation":"LINEAR"},{"input":65,"output":71,"interpolation":"LINEAR"},{"input":65,"output":72,"interpolation":"LINEAR"}],"channels":[{"sampler":0,"target":{"node":5,"path":"rotation"}},{"sampler":1,"target":{"node":7,"path":"rotation"}},{"sampler":2,"target":{"node":4,"path":"rotation"}},{"sampler":3,"target":{"node":4,"path":"scale"}},{"sampler":4,"target":{"node":10,"path":"rotation"}},{"sampler":5,"target":{"node":1,"path":"translation"}},{"sampler":6,"target":{"node":9,"path":"rotation"}}]},{"name":"Shake","samplers":[{"input":73,"output":74,"interpolation":"LINEAR"},{"input":73,"output":75,"interpolation":"LINEAR"},{"input":73,"output":76,"interpolation":"LINEAR"},{"input":73,"output":77,"interpolation":"LINEAR"},{"input":73,"output":78,"interpolation":"LINEAR"}],"channels":[{"sampler":0,"target":{"node":5,"path":"rotation"}},{"sampler":1,"target":{"node":7,"path":"rotation"}},{"sampler":2,"target":{"node":4,"path":"rotation"}},{"sampler":3,"target":{"node":10,"path":"rotation"}},{"sampler":4,"target":{"node":1,"path":"translation"}}]},{"name":"Talk","samplers":[{"input":79,"output":80,"interpolation":"LINEAR"},{"input":79,"output":81,"interpolation":"LINEAR"},{"input":79,"output":82,"interpolation":"LINEAR"},{"input":79,"output":83,"interpolation":"LINEAR"},{"input":79,"output":84,"interpolation":"LINEAR"},{"input":79,"output":85,"interpolation":"LINEAR"},{"input":79,"output":86,"interpolation":"LINEAR"},{"input":79,"output":87,"interpolation":"LINEAR"}],"channels":[{"sampler":0,"target":{"node":5,"path":"rotation"}},{"sampler":1,"target":{"node":7,"path":"rotation"}},{"sampler":2,"target":{"node":4,"path":"rotation"}},{"sampler":3,"target":{"node":4,"path":"scale"}},{"sampler":4,"target":{"node":11,"path":"rotation"}},{"sampler":5,"target":{"node":12,"path":"rotation"}},{"sampler":6,"target":{"node":10,"path":"rotation"}},{"sampler":7,"target":{"node":9,"path":"rotation"}}]},{"name":"Sweep","samplers":[{"input":88,"output":89,"interpolation":"LINEAR"},{"input":88,"output":90,"interpolation":"LINEAR"},{"input":88,"output":91,"interpolation":"LINEAR"},{"input":88,"output":92,"interpolation":"LINEAR"},{"input":88,"output":93,"interpolation":"LINEAR"}],"channels":[{"sampler":0,"target":{"node":5,"path":"rotation"}},{"sampler":1,"target":{"node":7,"path":"rotation"}},{"sampler":2,"target":{"node":4,"path":"rotation"}},{"sampler":3,"target":{"node":10,"path":"rotation"}},{"sampler":4,"target":{"node":1,"path":"rotation"}}]},{"name":"Repair","samplers":[{"input":94,"output":95,"interpolation":"LINEAR"},{"input":94,"output":96,"interpolation":"LINEAR"},{"input":94,"output":97,"interpolation":"LINEAR"},{"input":94,"output":98,"interpolation":"LINEAR"},{"input":94,"output":99,"interpolation":"LINEAR"}],"channels":[{"sampler":0,"target":{"node":5,"path":"rotation"}},{"sampler":1,"target":{"node":7,"path":"rotation"}},{"sampler":2,"target":{"node":4,"path":"rotation"}},{"sampler":3,"target":{"node":10,"path":"rotation"}},{"sampler":4,"target":{"node":1,"path":"translation"}}]},{"name":"Nap","samplers":[{"input":100,"output":101,"interpolation":"LINEAR"},{"input":100,"output":102,"interpolation":"LINEAR"},{"input":100,"output":103,"interpolation":"LINEAR"},{"input":100,"output":104,"interpolation":"LINEAR"},{"input":100,"output":105,"interpolation":"LINEAR"},{"input":100,"output":106,"interpolation":"LINEAR"},{"input":100,"output":107,"interpolation":"LINEAR"},{"input":100,"output":108,"interpolation":"LINEAR"},{"input":100,"output":109,"interpolation":"LINEAR"},{"input":100,"output":110,"interpolation":"LINEAR"}],"channels":[{"sampler":0,"target":{"node":5,"path":"rotation"}},{"sampler":1,"target":{"node":7,"path":"rotation"}},{"sampler":2,"target":{"node":4,"path":"rotation"}},{"sampler":3,"target":{"node":4,"path":"scale"}},{"sampler":4,"target":{"node":11,"path":"rotation"}},{"sampler":5,"target":{"node":12,"path":"rotation"}},{"sampler":6,"target":{"node":10,"path":"rotation"}},{"sampler":7,"target":{"node":1,"path":"translation"}},{"sampler":8,"target":{"node":2,"path":"rotation"}},{"sampler":9,"target":{"node":3,"path":"rotation"}}]},{"name":"Cheer","samplers":[{"input":111,"output":112,"interpolation":"LINEAR"},{"input":111,"output":113,"interpolation":"LINEAR"},{"input":111,"output":114,"interpolation":"LINEAR"},{"input":111,"output":115,"interpolation":"LINEAR"},{"input":111,"output":116,"interpolation":"LINEAR"},{"input":111,"output":117,"interpolation":"LINEAR"},{"input":111,"output":118,"interpolation":"LINEAR"},{"input":111,"output":119,"interpolation":"LINEAR"},{"input":111,"output":120,"interpolation":"LINEAR"},{"input":111,"output":121,"interpolation":"LINEAR"}],"channels":[{"sampler":0,"target":{"node":5,"path":"rotation"}},{"sampler":1,"target":{"node":7,"path":"rotation"}},{"sampler":2,"target":{"node":4,"path":"scale"}},{"sampler":3,"target":{"node":11,"path":"rotation"}},{"sampler":4,"target":{"node":12,"path":"rotation"}},{"sampler":5,"target":{"node":10,"path":"rotation"}},{"sampler":6,"target":{"node":1,"path":"translation"}},{"sampler":7,"target":{"node":2,"path":"rotation"}},{"sampler":8,"target":{"node":3,"path":"rotation"}},{"sampler":9,"target":{"node":9,"path":"rotation"}}]},{"name":"Hit","samplers":[{"input":122,"output":123,"interpolation":"LINEAR"},{"input":122,"output":124,"interpolation":"LINEAR"},{"input":122,"output":125,"interpolation":"LINEAR"},{"input":122,"output":126,"interpolation":"LINEAR"},{"input":122,"output":127,"interpolation":"LINEAR"},{"input":122,"output":128,"interpolation":"LINEAR"},{"input":122,"output":129,"interpolation":"LINEAR"},{"input":122,"output":130,"interpolation":"LINEAR"},{"input":122,"output":131,"interpolation":"LINEAR"}],"channels":[{"sampler":0,"target":{"node":5,"path":"rotation"}},{"sampler":1,"target":{"node":7,"path":"rotation"}},{"sampler":2,"target":{"node":4,"path":"scale"}},{"sampler":3,"target":{"node":11,"path":"rotation"}},{"sampler":4,"target":{"node":12,"path":"rotation"}},{"sampler":5,"target":{"node":10,"path":"rotation"}},{"sampler":6,"target":{"node":1,"path":"rotation"}},{"sampler":7,"target":{"node":1,"path":"translation"}},{"sampler":8,"target":{"node":9,"path":"rotation"}}]},{"name":"Pickup","samplers":[{"input":132,"output":133,"interpolation":"LINEAR"},{"input":132,"output":134,"interpolation":"LINEAR"},{"input":132,"output":135,"interpolation":"LINEAR"},{"input":132,"output":136,"interpolation":"LINEAR"},{"input":132,"output":137,"interpolation":"LINEAR"}],"channels":[{"sampler":0,"target":{"node":5,"path":"rotation"}},{"sampler":1,"target":{"node":7,"path":"rotation"}},{"sampler":2,"target":{"node":4,"path":"rotation"}},{"sampler":3,"target":{"node":10,"path":"rotation"}},{"sampler":4,"target":{"node":1,"path":"translation"}}]}],"buffers":[{"uri":"Oritokki.bin","byteLength":676148}],"bufferViews":[{"buffer":0,"byteOffset":0,"byteLength":120588,"target":34962},{"buffer":0,"byteOffset":120588,"byteLength":120588,"target":34962},{"buffer":0,"byteOffset":241176,"byteLength":80392,"target":34962},{"buffer":0,"byteOffset":321568,"byteLength":40196,"target":34962},{"buffer":0,"byteOffset":361764,"byteLength":160784,"target":34962},{"buffer":0,"byteOffset":522548,"byteLength":74928,"target":34963},{"buffer":0,"byteOffset":597476,"byteLength":832},{"buffer":0,"byteOffset":598308,"byteLength":292},{"buffer":0,"byteOffset":598600,"byteLength":1168},{"buffer":0,"byteOffset":599768,"byteLength":1168},{"buffer":0,"byteOffset":600936,"byteLength":876},{"buffer":0,"byteOffset":601812,"byteLength":1168},{"buffer":0,"byteOffset":602980,"byteLength":1168},{"buffer":0,"byteOffset":604148,"byteLength":1168},{"buffer":0,"byteOffset":605316,"byteLength":876},{"buffer":0,"byteOffset":606192,"byteLength":1168},{"buffer":0,"byteOffset":607360,"byteLength":60},{"buffer":0,"byteOffset":607420,"byteLength":240},{"buffer":0,"byteOffset":607660,"byteLength":240},{"buffer":0,"byteOffset":607900,"byteLength":240},{"buffer":0,"byteOffset":608140,"byteLength":240},{"buffer":0,"byteOffset":608380,"byteLength":240},{"buffer":0,"byteOffset":608620,"byteLength":240},{"buffer":0,"byteOffset":608860,"byteLength":180},{"buffer":0,"byteOffset":609040,"byteLength":240},{"buffer":0,"byteOffset":609280,"byteLength":240},{"buffer":0,"byteOffset":609520,"byteLength":240},{"buffer":0,"byteOffset":609760,"byteLength":60},{"buffer":0,"byteOffset":609820,"byteLength":240},{"buffer":0,"byteOffset":610060,"byteLength":240},{"buffer":0,"byteOffset":610300,"byteLength":240},{"buffer":0,"byteOffset":610540,"byteLength":240},{"buffer":0,"byteOffset":610780,"byteLength":240},{"buffer":0,"byteOffset":611020,"byteLength":240},{"buffer":0,"byteOffset":611260,"byteLength":180},{"buffer":0,"byteOffset":611440,"byteLength":240},{"buffer":0,"byteOffset":611680,"byteLength":240},{"buffer":0,"byteOffset":611920,"byteLength":240},{"buffer":0,"byteOffset":612160,"byteLength":364},{"buffer":0,"byteOffset":612524,"byteLength":1456},{"buffer":0,"byteOffset":613980,"byteLength":1456},{"buffer":0,"byteOffset":615436,"byteLength":1092},{"buffer":0,"byteOffset":616528,"byteLength":1456},{"buffer":0,"byteOffset":617984,"byteLength":1092},{"buffer":0,"byteOffset":619076,"byteLength":1456},{"buffer":0,"byteOffset":620532,"byteLength":1456},{"buffer":0,"byteOffset":621988,"byteLength":1456},{"buffer":0,"byteOffset":623444,"byteLength":172},{"buffer":0,"byteOffset":623616,"byteLength":688},{"buffer":0,"byteOffset":624304,"byteLength":688},{"buffer":0,"byteOffset":624992,"byteLength":516},{"buffer":0,"byteOffset":625508,"byteLength":688},{"buffer":0,"byteOffset":626196,"byteLength":516},{"buffer":0,"byteOffset":626712,"byteLength":688},{"buffer":0,"byteOffset":627400,"byteLength":688},{"buffer":0,"byteOffset":628088,"byteLength":688},{"buffer":0,"byteOffset":628776,"byteLength":268},{"buffer":0,"byteOffset":629044,"byteLength":1072},{"buffer":0,"byteOffset":630116,"byteLength":1072},{"buffer":0,"byteOffset":631188,"byteLength":804},{"buffer":0,"byteOffset":631992,"byteLength":1072},{"buffer":0,"byteOffset":633064,"byteLength":804},{"buffer":0,"byteOffset":633868,"byteLength":1072},{"buffer":0,"byteOffset":634940,"byteLength":1072},{"buffer":0,"byteOffset":636012,"byteLength":1072},{"buffer":0,"byteOffset":637084,"byteLength":112},{"buffer":0,"byteOffset":637196,"byteLength":448},{"buffer":0,"byteOffset":637644,"byteLength":448},{"buffer":0,"byteOffset":638092,"byteLength":448},{"buffer":0,"byteOffset":638540,"byteLength":336},{"buffer":0,"byteOffset":638876,"byteLength":448},{"buffer":0,"byteOffset":639324,"byteLength":336},{"buffer":0,"byteOffset":639660,"byteLength":448},{"buffer":0,"byteOffset":640108,"byteLength":76},{"buffer":0,"byteOffset":640184,"byteLength":304},{"buffer":0,"byteOffset":640488,"byteLength":304},{"buffer":0,"byteOffset":640792,"byteLength":304},{"buffer":0,"byteOffset":641096,"byteLength":304},{"buffer":0,"byteOffset":641400,"byteLength":228},{"buffer":0,"byteOffset":641628,"byteLength":172},{"buffer":0,"byteOffset":641800,"byteLength":688},{"buffer":0,"byteOffset":642488,"byteLength":688},{"buffer":0,"byteOffset":643176,"byteLength":688},{"buffer":0,"byteOffset":643864,"byteLength":516},{"buffer":0,"byteOffset":644380,"byteLength":688},{"buffer":0,"byteOffset":645068,"byteLength":688},{"buffer":0,"byteOffset":645756,"byteLength":688},{"buffer":0,"byteOffset":646444,"byteLength":688},{"buffer":0,"byteOffset":647132,"byteLength":124},{"buffer":0,"byteOffset":647256,"byteLength":496},{"buffer":0,"byteOffset":647752,"byteLength":496},{"buffer":0,"byteOffset":648248,"byteLength":496},{"buffer":0,"byteOffset":648744,"byteLength":496},{"buffer":0,"byteOffset":649240,"byteLength":496},{"buffer":0,"byteOffset":649736,"byteLength":88},{"buffer":0,"byteOffset":649824,"byteLength":352},{"buffer":0,"byteOffset":650176,"byteLength":352},{"buffer":0,"byteOffset":650528,"byteLength":352},{"buffer":0,"byteOffset":650880,"byteLength":352},{"buffer":0,"byteOffset":651232,"byteLength":264},{"buffer":0,"byteOffset":651496,"byteLength":388},{"buffer":0,"byteOffset":651884,"byteLength":1552},{"buffer":0,"byteOffset":653436,"byteLength":1552},{"buffer":0,"byteOffset":654988,"byteLength":1552},{"buffer":0,"byteOffset":656540,"byteLength":1164},{"buffer":0,"byteOffset":657704,"byteLength":1552},{"buffer":0,"byteOffset":659256,"byteLength":1552},{"buffer":0,"byteOffset":660808,"byteLength":1552},{"buffer":0,"byteOffset":662360,"byteLength":1164},{"buffer":0,"byteOffset":663524,"byteLength":1552},{"buffer":0,"byteOffset":665076,"byteLength":1552},{"buffer":0,"byteOffset":666628,"byteLength":100},{"buffer":0,"byteOffset":666728,"byteLength":400},{"buffer":0,"byteOffset":667128,"byteLength":400},{"buffer":0,"byteOffset":667528,"byteLength":300},{"buffer":0,"byteOffset":667828,"byteLength":400},{"buffer":0,"byteOffset":668228,"byteLength":400},{"buffer":0,"byteOffset":668628,"byteLength":400},{"buffer":0,"byteOffset":669028,"byteLength":300},{"buffer":0,"byteOffset":669328,"byteLength":400},{"buffer":0,"byteOffset":669728,"byteLength":400},{"buffer":0,"byteOffset":670128,"byteLength":400},{"buffer":0,"byteOffset":670528,"byteLength":76},{"buffer":0,"byteOffset":670604,"byteLength":304},{"buffer":0,"byteOffset":670908,"byteLength":304},{"buffer":0,"byteOffset":671212,"byteLength":228},{"buffer":0,"byteOffset":671440,"byteLength":304},{"buffer":0,"byteOffset":671744,"byteLength":304},{"buffer":0,"byteOffset":672048,"byteLength":304},{"buffer":0,"byteOffset":672352,"byteLength":304},{"buffer":0,"byteOffset":672656,"byteLength":228},{"buffer":0,"byteOffset":672884,"byteLength":304},{"buffer":0,"byteOffset":673188,"byteLength":148},{"buffer":0,"byteOffset":673336,"byteLength":592},{"buffer":0,"byteOffset":673928,"byteLength":592},{"buffer":0,"byteOffset":674520,"byteLength":592},{"buffer":0,"byteOffset":675112,"byteLength":592},{"buffer":0,"byteOffset":675704,"byteLength":444}],"accessors":[{"bufferView":0,"componentType":5126,"count":10049,"type":"VEC3","min":[-0.7424405813217163,0.0,-0.5571560859680176],"max":[0.7424405813217163,1.9017611742019653,0.5571560859680176]},{"bufferView":1,"componentType":5126,"count":10049,"type":"VEC3"},{"bufferView":2,"componentType":5126,"count":10049,"type":"VEC2"},{"bufferView":3,"componentType":5121,"count":10049,"type":"VEC4"},{"bufferView":4,"componentType":5126,"count":10049,"type":"VEC4"},{"bufferView":5,"componentType":5123,"count":37464,"type":"SCALAR"},{"bufferView":6,"componentType":5126,"count":13,"type":"MAT4"},{"bufferView":7,"componentType":5126,"count":73,"type":"SCALAR","min":[0.0],"max":[2.4000000953674316]},{"bufferView":8,"componentType":5126,"count":73,"type":"VEC4"},{"bufferView":9,"componentType":5126,"count":73,"type":"VEC4"},{"bufferView":10,"componentType":5126,"count":73,"type":"VEC3"},{"bufferView":11,"componentType":5126,"count":73,"type":"VEC4"},{"bufferView":12,"componentType":5126,"count":73,"type":"VEC4"},{"bufferView":13,"componentType":5126,"count":73,"type":"VEC4"},{"bufferView":14,"componentType":5126,"count":73,"type":"VEC3"},{"bufferView":15,"componentType":5126,"count":73,"type":"VEC4"},{"bufferView":16,"componentType":5126,"count":15,"type":"SCALAR","min":[0.0],"max":[0.47999998927116394]},{"bufferView":17,"componentType":5126,"count":15,"type":"VEC4"},{"bufferView":18,"componentType":5126,"count":15,"type":"VEC4"},{"bufferView":19,"componentType":5126,"count":15,"type":"VEC4"},{"bufferView":20,"componentType":5126,"count":15,"type":"VEC4"},{"bufferView":21,"componentType":5126,"count":15,"type":"VEC4"},{"bufferView":22,"componentType":5126,"count":15,"type":"VEC4"},{"bufferView":23,"componentType":5126,"count":15,"type":"VEC3"},{"bufferView":24,"componentType":5126,"count":15,"type":"VEC4"},{"bufferView":25,"componentType":5126,"count":15,"type":"VEC4"},{"bufferView":26,"componentType":5126,"count":15,"type":"VEC4"},{"bufferView":27,"componentType":5126,"count":15,"type":"SCALAR","min":[0.0],"max":[0.47999998927116394]},{"bufferView":28,"componentType":5126,"count":15,"type":"VEC4"},{"bufferView":29,"componentType":5126,"count":15,"type":"VEC4"},{"bufferView":30,"componentType":5126,"count":15,"type":"VEC4"},{"bufferView":31,"componentType":5126,"count":15,"type":"VEC4"},{"bufferView":32,"componentType":5126,"count":15,"type":"VEC4"},{"bufferView":33,"componentType":5126,"count":15,"type":"VEC4"},{"bufferView":34,"componentType":5126,"count":15,"type":"VEC3"},{"bufferView":35,"componentType":5126,"count":15,"type":"VEC4"},{"bufferView":36,"componentType":5126,"count":15,"type":"VEC4"},{"bufferView":37,"componentType":5126,"count":15,"type":"VEC4"},{"bufferView":38,"componentType":5126,"count":91,"type":"SCALAR","min":[0.0],"max":[3.0]},{"bufferView":39,"componentType":5126,"count":91,"type":"VEC4"},{"bufferView":40,"componentType":5126,"count":91,"type":"VEC4"},{"bufferView":41,"componentType":5126,"count":91,"type":"VEC3"},{"bufferView":42,"componentType":5126,"count":91,"type":"VEC4"},{"bufferView":43,"componentType":5126,"count":91,"type":"VEC3"},{"bufferView":44,"componentType":5126,"count":91,"type":"VEC4"},{"bufferView":45,"componentType":5126,"count":91,"type":"VEC4"},{"bufferView":46,"componentType":5126,"count":91,"type":"VEC4"},{"bufferView":47,"componentType":5126,"count":43,"type":"SCALAR","min":[0.0],"max":[1.399999976158142]},{"bufferView":48,"componentType":5126,"count":43,"type":"VEC4"},{"bufferView":49,"componentType":5126,"count":43,"type":"VEC4"},{"bufferView":50,"componentType":5126,"count":43,"type":"VEC3"},{"bufferView":51,"componentType":5126,"count":43,"type":"VEC4"},{"bufferView":52,"componentType":5126,"count":43,"type":"VEC3"},{"bufferView":53,"componentType":5126,"count":43,"type":"VEC4"},{"bufferView":54,"componentType":5126,"count":43,"type":"VEC4"},{"bufferView":55,"componentType":5126,"count":43,"type":"VEC4"},{"bufferView":56,"componentType":5126,"count":67,"type":"SCALAR","min":[0.0],"max":[2.200000047683716]},{"bufferView":57,"componentType":5126,"count":67,"type":"VEC4"},{"bufferView":58,"componentType":5126,"count":67,"type":"VEC4"},{"bufferView":59,"componentType":5126,"count":67,"type":"VEC3"},{"bufferView":60,"componentType":5126,"count":67,"type":"VEC4"},{"bufferView":61,"componentType":5126,"count":67,"type":"VEC3"},{"bufferView":62,"componentType":5126,"count":67,"type":"VEC4"},{"bufferView":63,"componentType":5126,"count":67,"type":"VEC4"},{"bufferView":64,"componentType":5126,"count":67,"type":"VEC4"},{"bufferView":65,"componentType":5126,"count":28,"type":"SCALAR","min":[0.0],"max":[0.8999999761581421]},{"bufferView":66,"componentType":5126,"count":28,"type":"VEC4"},{"bufferView":67,"componentType":5126,"count":28,"type":"VEC4"},{"bufferView":68,"componentType":5126,"count":28,"type":"VEC4"},{"bufferView":69,"componentType":5126,"count":28,"type":"VEC3"},{"bufferView":70,"componentType":5126,"count":28,"type":"VEC4"},{"bufferView":71,"componentType":5126,"count":28,"type":"VEC3"},{"bufferView":72,"componentType":5126,"count":28,"type":"VEC4"},{"bufferView":73,"componentType":5126,"count":19,"type":"SCALAR","min":[0.0],"max":[0.6000000238418579]},{"bufferView":74,"componentType":5126,"count":19,"type":"VEC4"},{"bufferView":75,"componentType":5126,"count":19,"type":"VEC4"},{"bufferView":76,"componentType":5126,"count":19,"type":"VEC4"},{"bufferView":77,"componentType":5126,"count":19,"type":"VEC4"},{"bufferView":78,"componentType":5126,"count":19,"type":"VEC3"},{"bufferView":79,"componentType":5126,"count":43,"type":"SCALAR","min":[0.0],"max":[1.399999976158142]},{"bufferView":80,"componentType":5126,"count":43,"type":"VEC4"},{"bufferView":81,"componentType":5126,"count":43,"type":"VEC4"},{"bufferView":82,"componentType":5126,"count":43,"type":"VEC4"},{"bufferView":83,"componentType":5126,"count":43,"type":"VEC3"},{"bufferView":84,"componentType":5126,"count":43,"type":"VEC4"},{"bufferView":85,"componentType":5126,"count":43,"type":"VEC4"},{"bufferView":86,"componentType":5126,"count":43,"type":"VEC4"},{"bufferView":87,"componentType":5126,"count":43,"type":"VEC4"},{"bufferView":88,"componentType":5126,"count":31,"type":"SCALAR","min":[0.0],"max":[1.0]},{"bufferView":89,"componentType":5126,"count":31,"type":"VEC4"},{"bufferView":90,"componentType":5126,"count":31,"type":"VEC4"},{"bufferView":91,"componentType":5126,"count":31,"type":"VEC4"},{"bufferView":92,"componentType":5126,"count":31,"type":"VEC4"},{"bufferView":93,"componentType":5126,"count":31,"type":"VEC4"},{"bufferView":94,"componentType":5126,"count":22,"type":"SCALAR","min":[0.0],"max":[0.699999988079071]},{"bufferView":95,"componentType":5126,"count":22,"type":"VEC4"},{"bufferView":96,"componentType":5126,"count":22,"type":"VEC4"},{"bufferView":97,"componentType":5126,"count":22,"type":"VEC4"},{"bufferView":98,"componentType":5126,"count":22,"type":"VEC4"},{"bufferView":99,"componentType":5126,"count":22,"type":"VEC3"},{"bufferView":100,"componentType":5126,"count":97,"type":"SCALAR","min":[0.0],"max":[3.200000047683716]},{"bufferView":101,"componentType":5126,"count":97,"type":"VEC4"},{"bufferView":102,"componentType":5126,"count":97,"type":"VEC4"},{"bufferView":103,"componentType":5126,"count":97,"type":"VEC4"},{"bufferView":104,"componentType":5126,"count":97,"type":"VEC3"},{"bufferView":105,"componentType":5126,"count":97,"type":"VEC4"},{"bufferView":106,"componentType":5126,"count":97,"type":"VEC4"},{"bufferView":107,"componentType":5126,"count":97,"type":"VEC4"},{"bufferView":108,"componentType":5126,"count":97,"type":"VEC3"},{"bufferView":109,"componentType":5126,"count":97,"type":"VEC4"},{"bufferView":110,"componentType":5126,"count":97,"type":"VEC4"},{"bufferView":111,"componentType":5126,"count":25,"type":"SCALAR","min":[0.0],"max":[0.800000011920929]},{"bufferView":112,"componentType":5126,"count":25,"type":"VEC4"},{"bufferView":113,"componentType":5126,"count":25,"type":"VEC4"},{"bufferView":114,"componentType":5126,"count":25,"type":"VEC3"},{"bufferView":115,"componentType":5126,"count":25,"type":"VEC4"},{"bufferView":116,"componentType":5126,"count":25,"type":"VEC4"},{"bufferView":117,"componentType":5126,"count":25,"type":"VEC4"},{"bufferView":118,"componentType":5126,"count":25,"type":"VEC3"},{"bufferView":119,"componentType":5126,"count":25,"type":"VEC4"},{"bufferView":120,"componentType":5126,"count":25,"type":"VEC4"},{"bufferView":121,"componentType":5126,"count":25,"type":"VEC4"},{"bufferView":122,"componentType":5126,"count":19,"type":"SCALAR","min":[0.0],"max":[0.6000000238418579]},{"bufferView":123,"componentType":5126,"count":19,"type":"VEC4"},{"bufferView":124,"componentType":5126,"count":19,"type":"VEC4"},{"bufferView":125,"componentType":5126,"count":19,"type":"VEC3"},{"bufferView":126,"componentType":5126,"count":19,"type":"VEC4"},{"bufferView":127,"componentType":5126,"count":19,"type":"VEC4"},{"bufferView":128,"componentType":5126,"count":19,"type":"VEC4"},{"bufferView":129,"componentType":5126,"count":19,"type":"VEC4"},{"bufferView":130,"componentType":5126,"count":19,"type":"VEC3"},{"bufferView":131,"componentType":5126,"count":19,"type":"VEC4"},{"bufferView":132,"componentType":5126,"count":37,"type":"SCALAR","min":[0.0],"max":[1.2000000476837158]},{"bufferView":133,"componentType":5126,"count":37,"type":"VEC4"},{"bufferView":134,"componentType":5126,"count":37,"type":"VEC4"},{"bufferView":135,"componentType":5126,"count":37,"type":"VEC4"},{"bufferView":136,"componentType":5126,"count":37,"type":"VEC4"},{"bufferView":137,"componentType":5126,"count":37,"type":"VEC3"}]}