{"asset":{"version":"2.0","generator":"tools/build_character.py"},"scene":0,"scenes":[{"nodes":[13]}],"nodes":[{"name":"root","translation":[0.0,0.0,0.0],"children":[1]},{"name":"hips","translation":[0.0,0.319,0.0],"children":[2,3,4]},{"name":"leg_l","translation":[0.143,0.0,0.044]},{"name":"leg_r","translation":[-0.143,0.0,0.044]},{"name":"chest","translation":[0.0,0.396,0.0],"children":[5,7,9]},{"name":"arm_l","translation":[0.429,0.209,0.0],"children":[6]},{"name":"hand_l","translation":[0.132,-0.308,0.077]},{"name":"arm_r","translation":[-0.429,0.209,0.0],"children":[8]},{"name":"hand_r","translation":[-0.132,-0.308,0.077]},{"name":"head","translation":[0.0,0.374,0.0],"children":[10,11]},{"name":"ear_l","translation":[0.48106,0.858,-0.035]},{"name":"ear_r","translation":[-0.48106,0.858,-0.035]},{"name":"RJ_Body","mesh":0,"skin":0},{"name":"RJ","children":[0,12]}],"meshes":[{"name":"RJ","primitives":[{"attributes":{"POSITION":0,"NORMAL":1,"TEXCOORD_0":2,"JOINTS_0":3,"WEIGHTS_0":4},"indices":5,"material":0}]}],"skins":[{"joints":[0,1,2,3,4,5,6,7,8,9,10,11],"inverseBindMatrices":6,"skeleton":0}],"materials":[{"name":"RJ","doubleSided":true,"pbrMetallicRoughness":{"baseColorTexture":{"index":0},"metallicFactor":0,"roughnessFactor":0.55},"emissiveTexture":{"index":0},"emissiveFactor":[0.18,0.18,0.18]}],"textures":[{"source":0,"sampler":0}],"samplers":[{"magFilter":9729,"minFilter":9729,"wrapS":33071,"wrapT":33071}],"images":[{"uri":"rj_texture.jpg"}],"animations":[{"name":"Idle","samplers":[{"input":7,"output":8,"interpolation":"LINEAR"},{"input":7,"output":9,"interpolation":"LINEAR"},{"input":7,"output":10,"interpolation":"LINEAR"},{"input":7,"output":11,"interpolation":"LINEAR"},{"input":7,"output":12,"interpolation":"LINEAR"},{"input":7,"output":13,"interpolation":"LINEAR"},{"input":7,"output":14,"interpolation":"LINEAR"}],"channels":[{"sampler":0,"target":{"node":5,"path":"rotation"}},{"sampler":1,"target":{"node":7,"path":"rotation"}},{"sampler":2,"target":{"node":4,"path":"scale"}},{"sampler":3,"target":{"node":10,"path":"rotation"}},{"sampler":4,"target":{"node":11,"path":"rotation"}},{"sampler":5,"target":{"node":9,"path":"rotation"}},{"sampler":6,"target":{"node":1,"path":"translation"}}]},{"name":"Walk","samplers":[{"input":15,"output":16,"interpolation":"LINEAR"},{"input":15,"output":17,"interpolation":"LINEAR"},{"input":15,"output":18,"interpolation":"LINEAR"},{"input":15,"output":19,"interpolation":"LINEAR"},{"input":15,"output":20,"interpolation":"LINEAR"},{"input":15,"output":21,"interpolation":"LINEAR"},{"input":15,"output":22,"interpolation":"LINEAR"},{"input":15,"output":23,"interpolation":"LINEAR"},{"input":15,"output":24,"interpolation":"LINEAR"}],"channels":[{"sampler":0,"target":{"node":5,"path":"rotation"}},{"sampler":1,"target":{"node":7,"path":"rotation"}},{"sampler":2,"target":{"node":10,"path":"rotation"}},{"sampler":3,"target":{"node":11,"path":"rotation"}},{"sampler":4,"target":{"node":9,"path":"rotation"}},{"sampler":5,"target":{"node":1,"path":"rotation"}},{"sampler":6,"target":{"node":1,"path":"translation"}},{"sampler":7,"target":{"node":2,"path":"rotation"}},{"sampler":8,"target":{"node":3,"path":"rotation"}}]},{"name":"Carry","samplers":[{"input":25,"output":26,"interpolation":"LINEAR"},{"input":25,"output":27,"interpolation":"LINEAR"},{"input":25,"output":28,"interpolation":"LINEAR"},{"input":25,"output":29,"interpolation":"LINEAR"},{"input":25,"output":30,"interpolation":"LINEAR"},{"input":25,"output":31,"interpolation":"LINEAR"},{"input":25,"output":32,"interpolation":"LINEAR"},{"input":25,"output":33,"interpolation":"LINEAR"},{"input":25,"output":34,"interpolation":"LINEAR"}],"channels":[{"sampler":0,"target":{"node":5,"path":"rotation"}},{"sampler":1,"target":{"node":7,"path":"rotation"}},{"sampler":2,"target":{"node":10,"path":"rotation"}},{"sampler":3,"target":{"node":11,"path":"rotation"}},{"sampler":4,"target":{"node":9,"path":"rotation"}},{"sampler":5,"target":{"node":1,"path":"rotation"}},{"sampler":6,"target":{"node":1,"path":"translation"}},{"sampler":7,"target":{"node":2,"path":"rotation"}},{"sampler":8,"target":{"node":3,"path":"rotation"}}]},{"name":"Sit","samplers":[{"input":35,"output":36,"interpolation":"LINEAR"},{"input":35,"output":37,"interpolation":"LINEAR"},{"input":35,"output":38,"interpolation":"LINEAR"},{"input":35,"output":39,"interpolation":"LINEAR"},{"input":35,"output":40,"interpolation":"LINEAR"},{"input":35,"output":41,"interpolation":"LINEAR"},{"input":35,"output":42,"interpolation":"LINEAR"}],"channels":[{"sampler":0,"target":{"node":5,"path":"rotation"}},{"sampler":1,"target":{"node":7,"path":"rotation"}},{"sampler":2,"target":{"node":4,"path":"scale"}},{"sampler":3,"target":{"node":9,"path":"rotation"}},{"sampler":4,"target":{"node":1,"path":"translation"}},{"sampler":5,"target":{"node":2,"path":"rotation"}},{"sampler":6,"target":{"node":3,"path":"rotation"}}]},{"name":"Eat","samplers":[{"input":43,"output":44,"interpolation":"LINEAR"},{"input":43,"output":45,"interpolation":"LINEAR"},{"input":43,"output":46,"interpolation":"LINEAR"},{"input":43,"output":47,"interpolation":"LINEAR"},{"input":43,"output":48,"interpolation":"LINEAR"},{"input":43,"output":49,"interpolation":"LINEAR"},{"input":43,"output":50,"interpolation":"LINEAR"}],"channels":[{"sampler":0,"target":{"node":5,"path":"rotation"}},{"sampler":1,"target":{"node":7,"path":"rotation"}},{"sampler":2,"target":{"node":4,"path":"scale"}},{"sampler":3,"target":{"node":9,"path":"rotation"}},{"sampler":4,"target":{"node":1,"path":"translation"}},{"sampler":5,"target":{"node":2,"path":"rotation"}},{"sampler":6,"target":{"node":3,"path":"rotation"}}]},{"name":"Wait","samplers":[{"input":51,"output":52,"interpolation":"LINEAR"},{"input":51,"output":53,"interpolation":"LINEAR"},{"input":51,"output":54,"interpolation":"LINEAR"},{"input":51,"output":55,"interpolation":"LINEAR"},{"input":51,"output":56,"interpolation":"LINEAR"},{"input":51,"output":57,"interpolation":"LINEAR"},{"input":51,"output":58,"interpolation":"LINEAR"}],"channels":[{"sampler":0,"target":{"node":5,"path":"rotation"}},{"sampler":1,"target":{"node":7,"path":"rotation"}},{"sampler":2,"target":{"node":4,"path":"scale"}},{"sampler":3,"target":{"node":9,"path":"rotation"}},{"sampler":4,"target":{"node":1,"path":"translation"}},{"sampler":5,"target":{"node":2,"path":"rotation"}},{"sampler":6,"target":{"node":3,"path":"rotation"}}]},{"name":"Work","samplers":[{"input":59,"output":60,"interpolation":"LINEAR"},{"input":59,"output":61,"interpolation":"LINEAR"},{"input":59,"output":62,"interpolation":"LINEAR"},{"input":59,"output":63,"interpolation":"LINEAR"},{"input":59,"output":64,"interpolation":"LINEAR"},{"input":59,"output":65,"interpolation":"LINEAR"}],"channels":[{"sampler":0,"target":{"node":5,"path":"rotation"}},{"sampler":1,"target":{"node":7,"path":"rotation"}},{"sampler":2,"target":{"node":4,"path":"rotation"}},{"sampler":3,"target":{"node":4,"path":"scale"}},{"sampler":4,"target":{"node":9,"path":"rotation"}},{"sampler":5,"target":{"node":1,"path":"translation"}}]},{"name":"Shake","samplers":[{"input":66,"output":67,"interpolation":"LINEAR"},{"input":66,"output":68,"interpolation":"LINEAR"},{"input":66,"output":69,"interpolation":"LINEAR"},{"input":66,"output":70,"interpolation":"LINEAR"},{"input":66,"output":71,"interpolation":"LINEAR"}],"channels":[{"sampler":0,"target":{"node":5,"path":"rotation"}},{"sampler":1,"target":{"node":7,"path":"rotation"}},{"sampler":2,"target":{"node":4,"path":"rotation"}},{"sampler":3,"target":{"node":9,"path":"rotation"}},{"sampler":4,"target":{"node":1,"path":"translation"}}]},{"name":"Talk","samplers":[{"input":72,"output":73,"interpolation":"LINEAR"},{"input":72,"output":74,"interpolation":"LINEAR"},{"input":72,"output":75,"interpolation":"LINEAR"},{"input":72,"output":76,"interpolation":"LINEAR"},{"input":72,"output":77,"interpolation":"LINEAR"},{"input":72,"output":78,"interpolation":"LINEAR"},{"input":72,"output":79,"interpolation":"LINEAR"}],"channels":[{"sampler":0,"target":{"node":5,"path":"rotation"}},{"sampler":1,"target":{"node":7,"path":"rotation"}},{"sampler":2,"target":{"node":4,"path":"rotation"}},{"sampler":3,"target":{"node":4,"path":"scale"}},{"sampler":4,"target":{"node":10,"path":"rotation"}},{"sampler":5,"target":{"node":11,"path":"rotation"}},{"sampler":6,"target":{"node":9,"path":"rotation"}}]},{"name":"Sweep","samplers":[{"input":80,"output":81,"interpolation":"LINEAR"},{"input":80,"output":82,"interpolation":"LINEAR"},{"input":80,"output":83,"interpolation":"LINEAR"},{"input":80,"output":84,"interpolation":"LINEAR"},{"input":80,"output":85,"interpolation":"LINEAR"}],"channels":[{"sampler":0,"target":{"node":5,"path":"rotation"}},{"sampler":1,"target":{"node":7,"path":"rotation"}},{"sampler":2,"target":{"node":4,"path":"rotation"}},{"sampler":3,"target":{"node":9,"path":"rotation"}},{"sampler":4,"target":{"node":1,"path":"rotation"}}]},{"name":"Repair","samplers":[{"input":86,"output":87,"interpolation":"LINEAR"},{"input":86,"output":88,"interpolation":"LINEAR"},{"input":86,"output":89,"interpolation":"LINEAR"},{"input":86,"output":90,"interpolation":"LINEAR"},{"input":86,"output":91,"interpolation":"LINEAR"}],"channels":[{"sampler":0,"target":{"node":5,"path":"rotation"}},{"sampler":1,"target":{"node":7,"path":"rotation"}},{"sampler":2,"target":{"node":4,"path":"rotation"}},{"sampler":3,"target":{"node":9,"path":"rotation"}},{"sampler":4,"target":{"node":1,"path":"translation"}}]},{"name":"Nap","samplers":[{"input":92,"output":93,"interpolation":"LINEAR"},{"input":92,"output":94,"interpolation":"LINEAR"},{"input":92,"output":95,"interpolation":"LINEAR"},{"input":92,"output":96,"interpolation":"LINEAR"},{"input":92,"output":97,"interpolation":"LINEAR"},{"input":92,"output":98,"interpolation":"LINEAR"},{"input":92,"output":99,"interpolation":"LINEAR"},{"input":92,"output":100,"interpolation":"LINEAR"},{"input":92,"output":101,"interpolation":"LINEAR"},{"input":92,"output":102,"interpolation":"LINEAR"}],"channels":[{"sampler":0,"target":{"node":5,"path":"rotation"}},{"sampler":1,"target":{"node":7,"path":"rotation"}},{"sampler":2,"target":{"node":4,"path":"rotation"}},{"sampler":3,"target":{"node":4,"path":"scale"}},{"sampler":4,"target":{"node":10,"path":"rotation"}},{"sampler":5,"target":{"node":11,"path":"rotation"}},{"sampler":6,"target":{"node":9,"path":"rotation"}},{"sampler":7,"target":{"node":1,"path":"translation"}},{"sampler":8,"target":{"node":2,"path":"rotation"}},{"sampler":9,"target":{"node":3,"path":"rotation"}}]},{"name":"Cheer","samplers":[{"input":103,"output":104,"interpolation":"LINEAR"},{"input":103,"output":105,"interpolation":"LINEAR"},{"input":103,"output":106,"interpolation":"LINEAR"},{"input":103,"output":107,"interpolation":"LINEAR"},{"input":103,"output":108,"interpolation":"LINEAR"},{"input":103,"output":109,"interpolation":"LINEAR"},{"input":103,"output":110,"interpolation":"LINEAR"},{"input":103,"output":111,"interpolation":"LINEAR"},{"input":103,"output":112,"interpolation":"LINEAR"}],"channels":[{"sampler":0,"target":{"node":5,"path":"rotation"}},{"sampler":1,"target":{"node":7,"path":"rotation"}},{"sampler":2,"target":{"node":4,"path":"scale"}},{"sampler":3,"target":{"node":10,"path":"rotation"}},{"sampler":4,"target":{"node":11,"path":"rotation"}},{"sampler":5,"target":{"node":9,"path":"rotation"}},{"sampler":6,"target":{"node":1,"path":"translation"}},{"sampler":7,"target":{"node":2,"path":"rotation"}},{"sampler":8,"target":{"node":3,"path":"rotation"}}]},{"name":"Hit","samplers":[{"input":113,"output":114,"interpolation":"LINEAR"},{"input":113,"output":115,"interpolation":"LINEAR"},{"input":113,"output":116,"interpolation":"LINEAR"},{"input":113,"output":117,"interpolation":"LINEAR"},{"input":113,"output":118,"interpolation":"LINEAR"},{"input":113,"output":119,"interpolation":"LINEAR"},{"input":113,"output":120,"interpolation":"LINEAR"},{"input":113,"output":121,"interpolation":"LINEAR"}],"channels":[{"sampler":0,"target":{"node":5,"path":"rotation"}},{"sampler":1,"target":{"node":7,"path":"rotation"}},{"sampler":2,"target":{"node":4,"path":"scale"}},{"sampler":3,"target":{"node":10,"path":"rotation"}},{"sampler":4,"target":{"node":11,"path":"rotation"}},{"sampler":5,"target":{"node":9,"path":"rotation"}},{"sampler":6,"target":{"node":1,"path":"rotation"}},{"sampler":7,"target":{"node":1,"path":"translation"}}]},{"name":"Pickup","samplers":[{"input":122,"output":123,"interpolation":"LINEAR"},{"input":122,"output":124,"interpolation":"LINEAR"},{"input":122,"output":125,"interpolation":"LINEAR"},{"input":122,"output":126,"interpolation":"LINEAR"},{"input":122,"output":127,"interpolation":"LINEAR"}],"channels":[{"sampler":0,"target":{"node":5,"path":"rotation"}},{"sampler":1,"target":{"node":7,"path":"rotation"}},{"sampler":2,"target":{"node":4,"path":"rotation"}},{"sampler":3,"target":{"node":9,"path":"rotation"}},{"sampler":4,"target":{"node":1,"path":"translation"}}]}],"buffers":[{"uri":"RJ.bin","byteLength":650528}],"bufferViews":[{"buffer":0,"byteOffset":0,"byteLength":116340,"target":34962},{"buffer":0,"byteOffset":116340,"byteLength":116340,"target":34962},{"buffer":0,"byteOffset":232680,"byteLength":77560,"target":34962},{"buffer":0,"byteOffset":310240,"byteLength":38780,"target":34962},{"buffer":0,"byteOffset":349020,"byteLength":155120,"target":34962},{"buffer":0,"byteOffset":504140,"byteLength":74484,"target":34963},{"buffer":0,"byteOffset":578624,"byteLength":768},{"buffer":0,"byteOffset":579392,"byteLength":292},{"buffer":0,"byteOffset":579684,"byteLength":1168},{"buffer":0,"byteOffset":580852,"byteLength":1168},{"buffer":0,"byteOffset":582020,"byteLength":876},{"buffer":0,"byteOffset":582896,"byteLength":1168},{"buffer":0,"byteOffset":584064,"byteLength":1168},{"buffer":0,"byteOffset":585232,"byteLength":1168},{"buffer":0,"byteOffset":586400,"byteLength":876},{"buffer":0,"byteOffset":587276,"byteLength":60},{"buffer":0,"byteOffset":587336,"byteLength":240},{"buffer":0,"byteOffset":587576,"byteLength":240},{"buffer":0,"byteOffset":587816,"byteLength":240},{"buffer":0,"byteOffset":588056,"byteLength":240},{"buffer":0,"byteOffset":588296,"byteLength":240},{"buffer":0,"byteOffset":588536,"byteLength":240},{"buffer":0,"byteOffset":588776,"byteLength":180},{"buffer":0,"byteOffset":588956,"byteLength":240},{"buffer":0,"byteOffset":589196,"byteLength":240},{"buffer":0,"byteOffset":589436,"byteLength":60},{"buffer":0,"byteOffset":589496,"byteLength":240},{"buffer":0,"byteOffset":589736,"byteLength":240},{"buffer":0,"byteOffset":589976,"byteLength":240},{"buffer":0,"byteOffset":590216,"byteLength":240},{"buffer":0,"byteOffset":590456,"byteLength":240},{"buffer":0,"byteOffset":590696,"byteLength":240},{"buffer":0,"byteOffset":590936,"byteLength":180},{"buffer":0,"byteOffset":591116,"byteLength":240},{"buffer":0,"byteOffset":591356,"byteLength":240},{"buffer":0,"byteOffset":591596,"byteLength":364},{"buffer":0,"byteOffset":591960,"byteLength":1456},{"buffer":0,"byteOffset":593416,"byteLength":1456},{"buffer":0,"byteOffset":594872,"byteLength":1092},{"buffer":0,"byteOffset":595964,"byteLength":1456},{"buffer":0,"byteOffset":597420,"byteLength":1092},{"buffer":0,"byteOffset":598512,"byteLength":1456},{"buffer":0,"byteOffset":599968,"byteLength":1456},{"buffer":0,"byteOffset":601424,"byteLength":172},{"buffer":0,"byteOffset":601596,"byteLength":688},{"buffer":0,"byteOffset":602284,"byteLength":688},{"buffer":0,"byteOffset":602972,"byteLength":516},{"buffer":0,"byteOffset":603488,"byteLength":688},{"buffer":0,"byteOffset":604176,"byteLength":516},{"buffer":0,"byteOffset":604692,"byteLength":688},{"buffer":0,"byteOffset":605380,"byteLength":688},{"buffer":0,"byteOffset":606068,"byteLength":268},{"buffer":0,"byteOffset":606336,"byteLength":1072},{"buffer":0,"byteOffset":607408,"byteLength":1072},{"buffer":0,"byteOffset":608480,"byteLength":804},{"buffer":0,"byteOffset":609284,"byteLength":1072},{"buffer":0,"byteOffset":610356,"byteLength":804},{"buffer":0,"byteOffset":611160,"byteLength":1072},{"buffer":0,"byteOffset":612232,"byteLength":1072},{"buffer":0,"byteOffset":613304,"byteLength":112},{"buffer":0,"byteOffset":613416,"byteLength":448},{"buffer":0,"byteOffset":613864,"byteLength":448},{"buffer":0,"byteOffset":614312,"byteLength":448},{"buffer":0,"byteOffset":614760,"byteLength":336},{"buffer":0,"byteOffset":615096,"byteLength":448},{"buffer":0,"byteOffset":615544,"byteLength":336},{"buffer":0,"byteOffset":615880,"byteLength":76},{"buffer":0,"byteOffset":615956,"byteLength":304},{"buffer":0,"byteOffset":616260,"byteLength":304},{"buffer":0,"byteOffset":616564,"byteLength":304},{"buffer":0,"byteOffset":616868,"byteLength":304},{"buffer":0,"byteOffset":617172,"byteLength":228},{"buffer":0,"byteOffset":617400,"byteLength":172},{"buffer":0,"byteOffset":617572,"byteLength":688},{"buffer":0,"byteOffset":618260,"byteLength":688},{"buffer":0,"byteOffset":618948,"byteLength":688},{"buffer":0,"byteOffset":619636,"byteLength":516},{"buffer":0,"byteOffset":620152,"byteLength":688},{"buffer":0,"byteOffset":620840,"byteLength":688},{"buffer":0,"byteOffset":621528,"byteLength":688},{"buffer":0,"byteOffset":622216,"byteLength":124},{"buffer":0,"byteOffset":622340,"byteLength":496},{"buffer":0,"byteOffset":622836,"byteLength":496},{"buffer":0,"byteOffset":623332,"byteLength":496},{"buffer":0,"byteOffset":623828,"byteLength":496},{"buffer":0,"byteOffset":624324,"byteLength":496},{"buffer":0,"byteOffset":624820,"byteLength":88},{"buffer":0,"byteOffset":624908,"byteLength":352},{"buffer":0,"byteOffset":625260,"byteLength":352},{"buffer":0,"byteOffset":625612,"byteLength":352},{"buffer":0,"byteOffset":625964,"byteLength":352},{"buffer":0,"byteOffset":626316,"byteLength":264},{"buffer":0,"byteOffset":626580,"byteLength":388},{"buffer":0,"byteOffset":626968,"byteLength":1552},{"buffer":0,"byteOffset":628520,"byteLength":1552},{"buffer":0,"byteOffset":630072,"byteLength":1552},{"buffer":0,"byteOffset":631624,"byteLength":1164},{"buffer":0,"byteOffset":632788,"byteLength":1552},{"buffer":0,"byteOffset":634340,"byteLength":1552},{"buffer":0,"byteOffset":635892,"byteLength":1552},{"buffer":0,"byteOffset":637444,"byteLength":1164},{"buffer":0,"byteOffset":638608,"byteLength":1552},{"buffer":0,"byteOffset":640160,"byteLength":1552},{"buffer":0,"byteOffset":641712,"byteLength":100},{"buffer":0,"byteOffset":641812,"byteLength":400},{"buffer":0,"byteOffset":642212,"byteLength":400},{"buffer":0,"byteOffset":642612,"byteLength":300},{"buffer":0,"byteOffset":642912,"byteLength":400},{"buffer":0,"byteOffset":643312,"byteLength":400},{"buffer":0,"byteOffset":643712,"byteLength":400},{"buffer":0,"byteOffset":644112,"byteLength":300},{"buffer":0,"byteOffset":644412,"byteLength":400},{"buffer":0,"byteOffset":644812,"byteLength":400},{"buffer":0,"byteOffset":645212,"byteLength":76},{"buffer":0,"byteOffset":645288,"byteLength":304},{"buffer":0,"byteOffset":645592,"byteLength":304},{"buffer":0,"byteOffset":645896,"byteLength":228},{"buffer":0,"byteOffset":646124,"byteLength":304},{"buffer":0,"byteOffset":646428,"byteLength":304},{"buffer":0,"byteOffset":646732,"byteLength":304},{"buffer":0,"byteOffset":647036,"byteLength":304},{"buffer":0,"byteOffset":647340,"byteLength":228},{"buffer":0,"byteOffset":647568,"byteLength":148},{"buffer":0,"byteOffset":647716,"byteLength":592},{"buffer":0,"byteOffset":648308,"byteLength":592},{"buffer":0,"byteOffset":648900,"byteLength":592},{"buffer":0,"byteOffset":649492,"byteLength":592},{"buffer":0,"byteOffset":650084,"byteLength":444}],"accessors":[{"bufferView":0,"componentType":5126,"count":9695,"type":"VEC3","min":[-0.7001500129699707,0.0,-0.5289623737335205],"max":[0.7001500129699707,2.0899999141693115,0.5289623737335205]},{"bufferView":1,"componentType":5126,"count":9695,"type":"VEC3"},{"bufferView":2,"componentType":5126,"count":9695,"type":"VEC2"},{"bufferView":3,"componentType":5121,"count":9695,"type":"VEC4"},{"bufferView":4,"componentType":5126,"count":9695,"type":"VEC4"},{"bufferView":5,"componentType":5123,"count":37242,"type":"SCALAR"},{"bufferView":6,"componentType":5126,"count":12,"type":"MAT4"},{"bufferView":7,"componentType":5126,"count":73,"type":"SCALAR","min":[0.0],"max":[2.4000000953674316]},{"bufferView":8,"componentType":5126,"count":73,"type":"VEC4"},{"bufferView":9,"componentType":5126,"count":73,"type":"VEC4"},{"bufferView":10,"componentType":5126,"count":73,"type":"VEC3"},{"bufferView":11,"componentType":5126,"count":73,"type":"VEC4"},{"bufferView":12,"componentType":5126,"count":73,"type":"VEC4"},{"bufferView":13,"componentType":5126,"count":73,"type":"VEC4"},{"bufferView":14,"componentType":5126,"count":73,"type":"VEC3"},{"bufferView":15,"componentType":5126,"count":15,"type":"SCALAR","min":[0.0],"max":[0.47999998927116394]},{"bufferView":16,"componentType":5126,"count":15,"type":"VEC4"},{"bufferView":17,"componentType":5126,"count":15,"type":"VEC4"},{"bufferView":18,"componentType":5126,"count":15,"type":"VEC4"},{"bufferView":19,"componentType":5126,"count":15,"type":"VEC4"},{"bufferView":20,"componentType":5126,"count":15,"type":"VEC4"},{"bufferView":21,"componentType":5126,"count":15,"type":"VEC4"},{"bufferView":22,"componentType":5126,"count":15,"type":"VEC3"},{"bufferView":23,"componentType":5126,"count":15,"type":"VEC4"},{"bufferView":24,"componentType":5126,"count":15,"type":"VEC4"},{"bufferView":25,"componentType":5126,"count":15,"type":"SCALAR","min":[0.0],"max":[0.47999998927116394]},{"bufferView":26,"componentType":5126,"count":15,"type":"VEC4"},{"bufferView":27,"componentType":5126,"count":15,"type":"VEC4"},{"bufferView":28,"componentType":5126,"count":15,"type":"VEC4"},{"bufferView":29,"componentType":5126,"count":15,"type":"VEC4"},{"bufferView":30,"componentType":5126,"count":15,"type":"VEC4"},{"bufferView":31,"componentType":5126,"count":15,"type":"VEC4"},{"bufferView":32,"componentType":5126,"count":15,"type":"VEC3"},{"bufferView":33,"componentType":5126,"count":15,"type":"VEC4"},{"bufferView":34,"componentType":5126,"count":15,"type":"VEC4"},{"bufferView":35,"componentType":5126,"count":91,"type":"SCALAR","min":[0.0],"max":[3.0]},{"bufferView":36,"componentType":5126,"count":91,"type":"VEC4"},{"bufferView":37,"componentType":5126,"count":91,"type":"VEC4"},{"bufferView":38,"componentType":5126,"count":91,"type":"VEC3"},{"bufferView":39,"componentType":5126,"count":91,"type":"VEC4"},{"bufferView":40,"componentType":5126,"count":91,"type":"VEC3"},{"bufferView":41,"componentType":5126,"count":91,"type":"VEC4"},{"bufferView":42,"componentType":5126,"count":91,"type":"VEC4"},{"bufferView":43,"componentType":5126,"count":43,"type":"SCALAR","min":[0.0],"max":[1.399999976158142]},{"bufferView":44,"componentType":5126,"count":43,"type":"VEC4"},{"bufferView":45,"componentType":5126,"count":43,"type":"VEC4"},{"bufferView":46,"componentType":5126,"count":43,"type":"VEC3"},{"bufferView":47,"componentType":5126,"count":43,"type":"VEC4"},{"bufferView":48,"componentType":5126,"count":43,"type":"VEC3"},{"bufferView":49,"componentType":5126,"count":43,"type":"VEC4"},{"bufferView":50,"componentType":5126,"count":43,"type":"VEC4"},{"bufferView":51,"componentType":5126,"count":67,"type":"SCALAR","min":[0.0],"max":[2.200000047683716]},{"bufferView":52,"componentType":5126,"count":67,"type":"VEC4"},{"bufferView":53,"componentType":5126,"count":67,"type":"VEC4"},{"bufferView":54,"componentType":5126,"count":67,"type":"VEC3"},{"bufferView":55,"componentType":5126,"count":67,"type":"VEC4"},{"bufferView":56,"componentType":5126,"count":67,"type":"VEC3"},{"bufferView":57,"componentType":5126,"count":67,"type":"VEC4"},{"bufferView":58,"componentType":5126,"count":67,"type":"VEC4"},{"bufferView":59,"componentType":5126,"count":28,"type":"SCALAR","min":[0.0],"max":[0.8999999761581421]},{"bufferView":60,"componentType":5126,"count":28,"type":"VEC4"},{"bufferView":61,"componentType":5126,"count":28,"type":"VEC4"},{"bufferView":62,"componentType":5126,"count":28,"type":"VEC4"},{"bufferView":63,"componentType":5126,"count":28,"type":"VEC3"},{"bufferView":64,"componentType":5126,"count":28,"type":"VEC4"},{"bufferView":65,"componentType":5126,"count":28,"type":"VEC3"},{"bufferView":66,"componentType":5126,"count":19,"type":"SCALAR","min":[0.0],"max":[0.6000000238418579]},{"bufferView":67,"componentType":5126,"count":19,"type":"VEC4"},{"bufferView":68,"componentType":5126,"count":19,"type":"VEC4"},{"bufferView":69,"componentType":5126,"count":19,"type":"VEC4"},{"bufferView":70,"componentType":5126,"count":19,"type":"VEC4"},{"bufferView":71,"componentType":5126,"count":19,"type":"VEC3"},{"bufferView":72,"componentType":5126,"count":43,"type":"SCALAR","min":[0.0],"max":[1.399999976158142]},{"bufferView":73,"componentType":5126,"count":43,"type":"VEC4"},{"bufferView":74,"componentType":5126,"count":43,"type":"VEC4"},{"bufferView":75,"componentType":5126,"count":43,"type":"VEC4"},{"bufferView":76,"componentType":5126,"count":43,"type":"VEC3"},{"bufferView":77,"componentType":5126,"count":43,"type":"VEC4"},{"bufferView":78,"componentType":5126,"count":43,"type":"VEC4"},{"bufferView":79,"componentType":5126,"count":43,"type":"VEC4"},{"bufferView":80,"componentType":5126,"count":31,"type":"SCALAR","min":[0.0],"max":[1.0]},{"bufferView":81,"componentType":5126,"count":31,"type":"VEC4"},{"bufferView":82,"componentType":5126,"count":31,"type":"VEC4"},{"bufferView":83,"componentType":5126,"count":31,"type":"VEC4"},{"bufferView":84,"componentType":5126,"count":31,"type":"VEC4"},{"bufferView":85,"componentType":5126,"count":31,"type":"VEC4"},{"bufferView":86,"componentType":5126,"count":22,"type":"SCALAR","min":[0.0],"max":[0.699999988079071]},{"bufferView":87,"componentType":5126,"count":22,"type":"VEC4"},{"bufferView":88,"componentType":5126,"count":22,"type":"VEC4"},{"bufferView":89,"componentType":5126,"count":22,"type":"VEC4"},{"bufferView":90,"componentType":5126,"count":22,"type":"VEC4"},{"bufferView":91,"componentType":5126,"count":22,"type":"VEC3"},{"bufferView":92,"componentType":5126,"count":97,"type":"SCALAR","min":[0.0],"max":[3.200000047683716]},{"bufferView":93,"componentType":5126,"count":97,"type":"VEC4"},{"bufferView":94,"componentType":5126,"count":97,"type":"VEC4"},{"bufferView":95,"componentType":5126,"count":97,"type":"VEC4"},{"bufferView":96,"componentType":5126,"count":97,"type":"VEC3"},{"bufferView":97,"componentType":5126,"count":97,"type":"VEC4"},{"bufferView":98,"componentType":5126,"count":97,"type":"VEC4"},{"bufferView":99,"componentType":5126,"count":97,"type":"VEC4"},{"bufferView":100,"componentType":5126,"count":97,"type":"VEC3"},{"bufferView":101,"componentType":5126,"count":97,"type":"VEC4"},{"bufferView":102,"componentType":5126,"count":97,"type":"VEC4"},{"bufferView":103,"componentType":5126,"count":25,"type":"SCALAR","min":[0.0],"max":[0.800000011920929]},{"bufferView":104,"componentType":5126,"count":25,"type":"VEC4"},{"bufferView":105,"componentType":5126,"count":25,"type":"VEC4"},{"bufferView":106,"componentType":5126,"count":25,"type":"VEC3"},{"bufferView":107,"componentType":5126,"count":25,"type":"VEC4"},{"bufferView":108,"componentType":5126,"count":25,"type":"VEC4"},{"bufferView":109,"componentType":5126,"count":25,"type":"VEC4"},{"bufferView":110,"componentType":5126,"count":25,"type":"VEC3"},{"bufferView":111,"componentType":5126,"count":25,"type":"VEC4"},{"bufferView":112,"componentType":5126,"count":25,"type":"VEC4"},{"bufferView":113,"componentType":5126,"count":19,"type":"SCALAR","min":[0.0],"max":[0.6000000238418579]},{"bufferView":114,"componentType":5126,"count":19,"type":"VEC4"},{"bufferView":115,"componentType":5126,"count":19,"type":"VEC4"},{"bufferView":116,"componentType":5126,"count":19,"type":"VEC3"},{"bufferView":117,"componentType":5126,"count":19,"type":"VEC4"},{"bufferView":118,"componentType":5126,"count":19,"type":"VEC4"},{"bufferView":119,"componentType":5126,"count":19,"type":"VEC4"},{"bufferView":120,"componentType":5126,"count":19,"type":"VEC4"},{"bufferView":121,"componentType":5126,"count":19,"type":"VEC3"},{"bufferView":122,"componentType":5126,"count":37,"type":"SCALAR","min":[0.0],"max":[1.2000000476837158]},{"bufferView":123,"componentType":5126,"count":37,"type":"VEC4"},{"bufferView":124,"componentType":5126,"count":37,"type":"VEC4"},{"bufferView":125,"componentType":5126,"count":37,"type":"VEC4"},{"bufferView":126,"componentType":5126,"count":37,"type":"VEC4"},{"bufferView":127,"componentType":5126,"count":37,"type":"VEC3"}]}