{
  "asset": {
    "generator": "glTF-Transform v4.5.1",
    "version": "2.0"
  },
  "accessors": [
    {
      "type": "MAT4",
      "componentType": 5126,
      "count": 41,
      "bufferView": 0,
      "byteOffset": 0
    },
    {
      "type": "SCALAR",
      "componentType": 5123,
      "count": 1740,
      "bufferView": 1,
      "byteOffset": 0
    },
    {
      "type": "SCALAR",
      "componentType": 5123,
      "count": 252,
      "bufferView": 1,
      "byteOffset": 3480
    },
    {
      "type": "SCALAR",
      "componentType": 5123,
      "count": 1740,
      "bufferView": 1,
      "byteOffset": 3984
    },
    {
      "type": "SCALAR",
      "componentType": 5123,
      "count": 3516,
      "bufferView": 1,
      "byteOffset": 7464
    },
    {
      "type": "SCALAR",
      "componentType": 5123,
      "count": 2319,
      "bufferView": 1,
      "byteOffset": 14496
    },
    {
      "type": "SCALAR",
      "componentType": 5123,
      "count": 1224,
      "bufferView": 1,
      "byteOffset": 19136
    },
    {
      "type": "SCALAR",
      "componentType": 5123,
      "count": 1224,
      "bufferView": 1,
      "byteOffset": 21584
    },
    {
      "type": "VEC3",
      "componentType": 5126,
      "count": 440,
      "max": [
        0.9712533354759216,
        1.2463297843933105,
        0.14251171052455902
      ],
      "min": [
        0.08884596824645996,
        0.9632070660591125,
        -0.14251157641410828
      ],
      "bufferView": 2,
      "byteOffset": 0
    },
    {
      "type": "VEC3",
      "componentType": 5126,
      "count": 440,
      "bufferView": 2,
      "byteOffset": 12
    },
    {
      "type": "VEC2",
      "componentType": 5126,
      "count": 440,
      "bufferView": 2,
      "byteOffset": 24
    },
    {
      "type": "VEC4",
      "componentType": 5121,
      "count": 440,
      "bufferView": 2,
      "byteOffset": 32
    },
    {
      "type": "VEC4",
      "componentType": 5126,
      "count": 440,
      "bufferView": 2,
      "byteOffset": 36
    },
    {
      "type": "VEC3",
      "componentType": 5126,
      "count": 56,
      "max": [
        0.4853890538215637,
        0.02009989321231842,
        -0.043504904955625534
      ],
      "min": [
        -0.4853677749633789,
        -1.1218448877334595,
        -0.38609376549720764
      ],
      "bufferView": 3,
      "byteOffset": 0
    },
    {
      "type": "VEC3",
      "componentType": 5126,
      "count": 56,
      "bufferView": 3,
      "byteOffset": 12
    },
    {
      "type": "VEC2",
      "componentType": 5126,
      "count": 56,
      "bufferView": 3,
      "byteOffset": 24
    },
    {
      "type": "VEC3",
      "componentType": 5126,
      "count": 440,
      "max": [
        -0.08884596824645996,
        1.2463297843933105,
        0.14251171052455902
      ],
      "min": [
        -0.9712533354759216,
        0.9632070660591125,
        -0.14251157641410828
      ],
      "bufferView": 4,
      "byteOffset": 0
    },
    {
      "type": "VEC3",
      "componentType": 5126,
      "count": 440,
      "bufferView": 4,
      "byteOffset": 12
    },
    {
      "type": "VEC2",
      "componentType": 5126,
      "count": 440,
      "bufferView": 4,
      "byteOffset": 24
    },
    {
      "type": "VEC4",
      "componentType": 5121,
      "count": 440,
      "bufferView": 4,
      "byteOffset": 32
    },
    {
      "type": "VEC4",
      "componentType": 5126,
      "count": 440,
      "bufferView": 4,
      "byteOffset": 36
    },
    {
      "type": "VEC3",
      "componentType": 5126,
      "count": 1124,
      "max": [
        0.4882558584213257,
        1.2481188774108887,
        0.3723374903202057
      ],
      "min": [
        -0.38483741879463196,
        0.37641170620918274,
        -0.3268965780735016
      ],
      "bufferView": 5,
      "byteOffset": 0
    },
    {
      "type": "VEC3",
      "componentType": 5126,
      "count": 1124,
      "bufferView": 5,
      "byteOffset": 12
    },
    {
      "type": "VEC2",
      "componentType": 5126,
      "count": 1124,
      "bufferView": 5,
      "byteOffset": 24
    },
    {
      "type": "VEC4",
      "componentType": 5121,
      "count": 1124,
      "bufferView": 5,
      "byteOffset": 32
    },
    {
      "type": "VEC4",
      "componentType": 5126,
      "count": 1124,
      "bufferView": 5,
      "byteOffset": 36
    },
    {
      "type": "VEC3",
      "componentType": 5126,
      "count": 592,
      "max": [
        0.548970103263855,
        2.2512404918670654,
        0.5891403555870056
      ],
      "min": [
        -0.548970103263855,
        1.1993944644927979,
        -0.5674518942832947
      ],
      "bufferView": 6,
      "byteOffset": 0
    },
    {
      "type": "VEC3",
      "componentType": 5126,
      "count": 592,
      "bufferView": 6,
      "byteOffset": 12
    },
    {
      "type": "VEC2",
      "componentType": 5126,
      "count": 592,
      "bufferView": 6,
      "byteOffset": 24
    },
    {
      "type": "VEC4",
      "componentType": 5121,
      "count": 592,
      "bufferView": 6,
      "byteOffset": 32
    },
    {
      "type": "VEC4",
      "componentType": 5126,
      "count": 592,
      "bufferView": 6,
      "byteOffset": 36
    },
    {
      "type": "VEC3",
      "componentType": 5126,
      "count": 300,
      "max": [
        0.28809913992881775,
        0.5291943550109863,
        0.2641216814517975
      ],
      "min": [
        0.04899219796061516,
        -0.000026527046429691836,
        -0.1314052939414978
      ],
      "bufferView": 7,
      "byteOffset": 0
    },
    {
      "type": "VEC3",
      "componentType": 5126,
      "count": 300,
      "bufferView": 7,
      "byteOffset": 12
    },
    {
      "type": "VEC2",
      "componentType": 5126,
      "count": 300,
      "bufferView": 7,
      "byteOffset": 24
    },
    {
      "type": "VEC4",
      "componentType": 5121,
      "count": 300,
      "bufferView": 7,
      "byteOffset": 32
    },
    {
      "type": "VEC4",
      "componentType": 5126,
      "count": 300,
      "bufferView": 7,
      "byteOffset": 36
    },
    {
      "type": "VEC3",
      "componentType": 5126,
      "count": 300,
      "max": [
        -0.04899219796061516,
        0.5291943550109863,
        0.2641216814517975
      ],
      "min": [
        -0.28809913992881775,
        -0.000026527046429691836,
        -0.1314052939414978
      ],
      "bufferView": 8,
      "byteOffset": 0
    },
    {
      "type": "VEC3",
      "componentType": 5126,
      "count": 300,
      "bufferView": 8,
      "byteOffset": 12
    },
    {
      "type": "VEC2",
      "componentType": 5126,
      "count": 300,
      "bufferView": 8,
      "byteOffset": 24
    },
    {
      "type": "VEC4",
      "componentType": 5121,
      "count": 300,
      "bufferView": 8,
      "byteOffset": 32
    },
    {
      "type": "VEC4",
      "componentType": 5126,
      "count": 300,
      "bufferView": 8,
      "byteOffset": 36
    }
  ],
  "bufferViews": [
    {
      "buffer": 0,
      "byteOffset": 0,
      "byteLength": 2624
    },
    {
      "buffer": 0,
      "byteOffset": 2624,
      "byteLength": 24032,
      "target": 34963
    },
    {
      "buffer": 0,
      "byteOffset": 26656,
      "byteLength": 22880,
      "byteStride": 52,
      "target": 34962
    },
    {
      "buffer": 0,
      "byteOffset": 49536,
      "byteLength": 1792,
      "byteStride": 32,
      "target": 34962
    },
    {
      "buffer": 0,
      "byteOffset": 51328,
      "byteLength": 22880,
      "byteStride": 52,
      "target": 34962
    },
    {
      "buffer": 0,
      "byteOffset": 74208,
      "byteLength": 58448,
      "byteStride": 52,
      "target": 34962
    },
    {
      "buffer": 0,
      "byteOffset": 132656,
      "byteLength": 30784,
      "byteStride": 52,
      "target": 34962
    },
    {
      "buffer": 0,
      "byteOffset": 163440,
      "byteLength": 15600,
      "byteStride": 52,
      "target": 34962
    },
    {
      "buffer": 0,
      "byteOffset": 179040,
      "byteLength": 15600,
      "byteStride": 52,
      "target": 34962
    }
  ],
  "samplers": [
    {
      "magFilter": 9729,
      "minFilter": 9987,
      "wrapS": 10497,
      "wrapT": 10497
    }
  ],
  "textures": [
    {
      "source": 0,
      "sampler": 0
    }
  ],
  "images": [
    {
      "name": "rogue_texture",
      "mimeType": "image/png",
      "uri": "rogue_texture.png"
    }
  ],
  "buffers": [
    {
      "uri": "Rogue_Hooded.bin",
      "byteLength": 194640
    }
  ],
  "materials": [
    {
      "name": "rogue_texture",
      "doubleSided": true,
      "pbrMetallicRoughness": {
        "roughnessFactor": 0.5,
        "metallicFactor": 0,
        "baseColorTexture": {
          "index": 0
        }
      }
    }
  ],
  "meshes": [
    {
      "name": "Cube.199",
      "primitives": [
        {
          "attributes": {
            "POSITION": 8,
            "NORMAL": 9,
            "TEXCOORD_0": 10,
            "JOINTS_0": 11,
            "WEIGHTS_0": 12
          },
          "mode": 4,
          "material": 0,
          "indices": 1
        }
      ]
    },
    {
      "name": "Plane.007",
      "primitives": [
        {
          "attributes": {
            "POSITION": 13,
            "NORMAL": 14,
            "TEXCOORD_0": 15
          },
          "mode": 4,
          "material": 0,
          "indices": 2
        }
      ]
    },
    {
      "name": "Cube.202",
      "primitives": [
        {
          "attributes": {
            "POSITION": 16,
            "NORMAL": 17,
            "TEXCOORD_0": 18,
            "JOINTS_0": 19,
            "WEIGHTS_0": 20
          },
          "mode": 4,
          "material": 0,
          "indices": 3
        }
      ]
    },
    {
      "name": "PrototypePete_body.025",
      "primitives": [
        {
          "attributes": {
            "POSITION": 21,
            "NORMAL": 22,
            "TEXCOORD_0": 23,
            "JOINTS_0": 24,
            "WEIGHTS_0": 25
          },
          "mode": 4,
          "material": 0,
          "indices": 4
        }
      ]
    },
    {
      "name": "Cube.12634",
      "primitives": [
        {
          "attributes": {
            "POSITION": 26,
            "NORMAL": 27,
            "TEXCOORD_0": 28,
            "JOINTS_0": 29,
            "WEIGHTS_0": 30
          },
          "mode": 4,
          "material": 0,
          "indices": 5
        }
      ]
    },
    {
      "name": "Cube.194",
      "primitives": [
        {
          "attributes": {
            "POSITION": 31,
            "NORMAL": 32,
            "TEXCOORD_0": 33,
            "JOINTS_0": 34,
            "WEIGHTS_0": 35
          },
          "mode": 4,
          "material": 0,
          "indices": 6
        }
      ]
    },
    {
      "name": "Cube.187",
      "primitives": [
        {
          "attributes": {
            "POSITION": 36,
            "NORMAL": 37,
            "TEXCOORD_0": 38,
            "JOINTS_0": 39,
            "WEIGHTS_0": 40
          },
          "mode": 4,
          "material": 0,
          "indices": 7
        }
      ]
    }
  ],
  "nodes": [
    {
      "name": "Knife_Offhand",
      "translation": [
        0,
        -0.00001565171766032547,
        -4.022192356956111e-9
      ]
    },
    {
      "name": "handslot.l",
      "translation": [
        8.348148838877023e-10,
        0.09612506628036499,
        -0.05750012397766113
      ],
      "rotation": [
        1.6097531085890182e-9,
        1.6097529975667157e-9,
        -0.7071068286895752,
        0.7071067094802856
      ],
      "children": [
        0
      ]
    },
    {
      "name": "hand.l",
      "translation": [
        9.08162434143378e-13,
        0.07382583618164062,
        2.220446049250313e-16
      ],
      "children": [
        1
      ]
    },
    {
      "name": "wrist.l",
      "translation": [
        8.719291955117114e-9,
        0.26004382967948914,
        -1.5019517574099694e-10
      ],
      "rotation": [
        -9.737839007373239e-11,
        -2.984370806036196e-10,
        0.02665809914469719,
        0.9996446967124939
      ],
      "children": [
        2
      ]
    },
    {
      "name": "lowerarm.l",
      "translation": [
        -3.219664979070558e-9,
        0.24189729988574982,
        -1.1940561250867177e-7
      ],
      "rotation": [
        1.6480538045371418e-9,
        -5.950362336193393e-8,
        -0.05528552085161209,
        0.9984706044197083
      ],
      "children": [
        3
      ]
    },
    {
      "name": "upperarm.l",
      "translation": [
        0.21200737357139587,
        0.13413214683532715,
        8.40246201505579e-8
      ],
      "rotation": [
        -0.5141214728355408,
        -0.485467791557312,
        -0.4854677617549896,
        0.5141218900680542
      ],
      "children": [
        4
      ]
    },
    {
      "name": "1H_Crossbow",
      "translation": [
        -0.10462832450866699,
        -0.010373746886727708,
        -1.2353707745660358e-7
      ],
      "rotation": [
        1.840417382936721e-7,
        0.7071068286895752,
        -1.1883614803309683e-7,
        0.7071068286895752
      ]
    },
    {
      "name": "2H_Crossbow",
      "translation": [
        -0.10462832450866699,
        -0.010373746886727708,
        -1.2353707745660358e-7
      ],
      "rotation": [
        1.840417382936721e-7,
        0.7071068286895752,
        -1.1883614803309683e-7,
        0.7071068286895752
      ]
    },
    {
      "name": "Knife",
      "translation": [
        0,
        -0.000015323892114060822,
        -1.232314019716796e-7
      ],
      "rotation": [
        -1.4007341064825596e-7,
        -1,
        1.0331601174584648e-7,
        9.11950781556925e-9
      ]
    },
    {
      "name": "Throwable",
      "translation": [
        5.960464477539063e-8,
        0.1802308057398821,
        -1.0962320118323987e-7
      ],
      "rotation": [
        -1.3270667409415182e-7,
        -1,
        4.3711366970455856e-8,
        2.2765060947449456e-9
      ]
    },
    {
      "name": "handslot.r",
      "translation": [
        -8.348148838877023e-10,
        0.09612506628036499,
        -0.05750012397766113
      ],
      "rotation": [
        1.6097330135522725e-9,
        -1.60973290252997e-9,
        0.7071068286895752,
        0.7071067094802856
      ],
      "children": [
        6,
        7,
        8,
        9
      ]
    },
    {
      "name": "hand.r",
      "translation": [
        1.3322676295501878e-15,
        0.07382583618164062,
        2.220446049250313e-16
      ],
      "children": [
        10
      ]
    },
    {
      "name": "wrist.r",
      "translation": [
        -8.718383348593761e-9,
        0.26004382967948914,
        -1.5019517574099694e-10
      ],
      "rotation": [
        -9.737839007373239e-11,
        2.984370806036196e-10,
        -0.02665809914469719,
        0.9996446967124939
      ],
      "children": [
        11
      ]
    },
    {
      "name": "lowerarm.r",
      "translation": [
        -7.121856576697283e-11,
        0.2418973296880722,
        -1.1940561250867177e-7
      ],
      "rotation": [
        1.6480535824925369e-9,
        5.950363046736129e-8,
        0.05528552085161209,
        0.9984706044197083
      ],
      "children": [
        12
      ]
    },
    {
      "name": "upperarm.r",
      "translation": [
        -0.21200737357139587,
        0.13413214683532715,
        8.40246201505579e-8
      ],
      "rotation": [
        -0.514121413230896,
        0.48546773195266724,
        0.4854677617549896,
        0.514121949672699
      ],
      "children": [
        13
      ]
    },
    {
      "name": "head",
      "translation": [
        0,
        0.26879656314849854,
        0
      ]
    },
    {
      "name": "Rogue_Cape",
      "translation": [
        0,
        0.2432448428151917,
        0
      ],
      "mesh": 1
    },
    {
      "name": "chest",
      "translation": [
        0,
        0.37498795986175537,
        0
      ],
      "children": [
        5,
        14,
        15,
        16
      ]
    },
    {
      "name": "spine",
      "translation": [
        0,
        0.19197750091552734,
        0
      ],
      "children": [
        17
      ]
    },
    {
      "name": "toes.l",
      "translation": [
        -2.1319590537416389e-10,
        0.16565002501010895,
        5.1714743598552104e-9
      ],
      "rotation": [
        -3.047969343583645e-8,
        0.9203547835350037,
        -0.3910844624042511,
        6.948485520297254e-8
      ]
    },
    {
      "name": "foot.l",
      "translation": [
        1.8334092577454442e-10,
        0.14943702518939972,
        9.660811040035355e-10
      ],
      "rotation": [
        -0.45523902773857117,
        1.6197017060903818e-8,
        -3.4356666844814754e-8,
        0.8903692960739136
      ],
      "children": [
        19
      ]
    },
    {
      "name": "lowerleg.l",
      "translation": [
        3.57975737941274e-9,
        0.22707749903202057,
        -6.140325137238278e-9
      ],
      "rotation": [
        0.1062251403927803,
        6.865288071367104e-8,
        -7.377018818033321e-8,
        0.9943422079086304
      ],
      "children": [
        20
      ]
    },
    {
      "name": "upperleg.l",
      "translation": [
        0.17094506323337555,
        0.11358726024627686,
        1.392327231286572e-8
      ],
      "rotation": [
        0.9998490810394287,
        -7.132765489359372e-8,
        -1.2042731256656225e-8,
        0.017373191192746162
      ],
      "children": [
        21
      ]
    },
    {
      "name": "toes.r",
      "translation": [
        2.1319318532775355e-10,
        0.16565002501010895,
        5.171478800747309e-9
      ],
      "rotation": [
        -3.0479689883122774e-8,
        -0.9203547835350037,
        0.3910844624042511,
        6.94848623083999e-8
      ]
    },
    {
      "name": "foot.r",
      "translation": [
        -1.8333903839540255e-10,
        0.14943702518939972,
        9.660858779625414e-10
      ],
      "rotation": [
        -0.45523902773857117,
        1.6598252727817453e-7,
        2.250776010015443e-9,
        0.8903692960739136
      ],
      "children": [
        23
      ]
    },
    {
      "name": "lowerleg.r",
      "translation": [
        -3.57975737941274e-9,
        0.22707749903202057,
        -6.140325137238278e-9
      ],
      "rotation": [
        0.1062251403927803,
        -6.865289492452575e-8,
        7.377018818033321e-8,
        0.9943422079086304
      ],
      "children": [
        24
      ]
    },
    {
      "name": "upperleg.r",
      "translation": [
        -0.17094506323337555,
        0.11358726024627686,
        1.392327231286572e-8
      ],
      "rotation": [
        0.9998490810394287,
        7.426573489510702e-8,
        -3.172628026959501e-8,
        0.017373191192746162
      ],
      "children": [
        25
      ]
    },
    {
      "name": "hips",
      "translation": [
        0,
        0.4056634306907654,
        0
      ],
      "children": [
        18,
        22,
        26
      ]
    },
    {
      "name": "kneeIK.l",
      "translation": [
        0.1709449142217636,
        0.29231026768684387,
        0.5758124589920044
      ],
      "rotation": [
        0.7071068286895752,
        -2.293023015909057e-7,
        -4.605514547506573e-8,
        0.7071068286895752
      ]
    },
    {
      "name": "heelIK.l",
      "translation": [
        8.589881694831547e-9,
        0.16565003991127014,
        -5.0913655513795675e-9
      ],
      "rotation": [
        -0.39108434319496155,
        -6.885001369028032e-8,
        -6.562877530313926e-8,
        0.9203548431396484
      ]
    },
    {
      "name": "IK-foot.l",
      "translation": [
        8.589881694831547e-9,
        0.16565003991127014,
        -5.0913655513795675e-9
      ],
      "rotation": [
        -1,
        3.10862701004928e-15,
        -1.9470719792025193e-7,
        6.917388749250975e-22
      ]
    },
    {
      "name": "control-foot-roll.l",
      "translation": [
        -1.1148216572109959e-8,
        0.21343614161014557,
        -2.50941980953559e-15
      ],
      "rotation": [
        1.0403525152469228e-7,
        -0.39108434319496155,
        -0.9203548431396484,
        2.9526043832106552e-8
      ],
      "children": [
        29,
        30
      ]
    },
    {
      "name": "IK-toe.l"
    },
    {
      "name": "control-heel-roll.l",
      "translation": [
        1.945810979009366e-8,
        0.3628326654434204,
        -2.42861286636753e-15
      ],
      "rotation": [
        -7.105437521996369e-15,
        1.3832116828440821e-22,
        -1,
        2.339829540917677e-34
      ],
      "children": [
        31,
        32
      ]
    },
    {
      "name": "control-toe-roll.l",
      "translation": [
        0.1709449738264084,
        0.025990262627601624,
        0.24578937888145447
      ],
      "rotation": [
        -0.7071068286895752,
        -7.052850037325697e-8,
        -7.052848616240226e-8,
        0.7071068286895752
      ],
      "children": [
        33
      ]
    },
    {
      "name": "kneeIK.r",
      "translation": [
        -0.1709451824426651,
        0.29231026768684387,
        0.5758123397827148
      ],
      "rotation": [
        0.7071068286895752,
        -3.823848615525094e-8,
        1.4500866996058903e-7,
        0.7071068286895752
      ]
    },
    {
      "name": "heelIK.r",
      "translation": [
        -6.311275058124011e-9,
        0.16565003991127014,
        1.366082358345011e-9
      ],
      "rotation": [
        -0.39108434319496155,
        -6.885001369028032e-8,
        -6.562875398685719e-8,
        0.9203548431396484
      ]
    },
    {
      "name": "IK-foot.r",
      "translation": [
        -2.1212436251971667e-8,
        0.16565003991127014,
        1.366076585185283e-9
      ],
      "rotation": [
        1,
        4.4408645699298404e-16,
        1.9470719792025193e-7,
        6.917388749250975e-22
      ]
    },
    {
      "name": "control-foot-roll.r",
      "translation": [
        3.752941513113228e-9,
        0.21343614161014557,
        0
      ],
      "rotation": [
        1.0403522310298285e-7,
        -0.39108434319496155,
        -0.9203548431396484,
        2.952605271389075e-8
      ],
      "children": [
        36,
        37
      ]
    },
    {
      "name": "IK-toe.r"
    },
    {
      "name": "control-heel-roll.r",
      "translation": [
        1.945810623737998e-8,
        0.3628326654434204,
        2.42861286636753e-15
      ],
      "rotation": [
        -7.105437521996369e-15,
        1.3832106731021235e-22,
        -1,
        2.3398304592726387e-34
      ],
      "children": [
        38,
        39
      ]
    },
    {
      "name": "control-toe-roll.r",
      "translation": [
        -0.17094509303569794,
        0.025990262627601624,
        0.2457892894744873
      ],
      "rotation": [
        -0.7071068286895752,
        -7.052850747868433e-8,
        -7.052850037325697e-8,
        0.7071068286895752
      ],
      "children": [
        40
      ]
    },
    {
      "name": "elbowIK.l",
      "translation": [
        0.4535074830055237,
        1.10676109790802,
        -0.5888593792915344
      ],
      "rotation": [
        -0.7071068286895752,
        -7.279511038404962e-8,
        -7.279508906776755e-8,
        0.7071068286895752
      ]
    },
    {
      "name": "handIK.l",
      "translation": [
        0.7131814956665039,
        1.10676109790802,
        2.5491414135103696e-7
      ],
      "rotation": [
        -0.4999999403953552,
        -0.5000000596046448,
        -0.5000000596046448,
        0.5
      ]
    },
    {
      "name": "elbowIK.r",
      "translation": [
        -0.4535071849822998,
        1.10676109790802,
        -0.5888596177101135
      ],
      "rotation": [
        -0.7071068286895752,
        -7.279511038404962e-8,
        -7.279508906776755e-8,
        0.7071068286895752
      ]
    },
    {
      "name": "handIK.r",
      "translation": [
        -0.7131815552711487,
        1.10676109790802,
        -8.515731053648778e-8
      ],
      "rotation": [
        -0.5000000596046448,
        0.4999999403953552,
        0.5,
        0.5000000596046448
      ]
    },
    {
      "name": "root",
      "children": [
        27,
        28,
        34,
        35,
        41,
        42,
        43,
        44,
        45
      ]
    },
    {
      "name": "Rogue_ArmLeft",
      "mesh": 0,
      "skin": 0
    },
    {
      "name": "Rogue_ArmRight",
      "mesh": 2,
      "skin": 0
    },
    {
      "name": "Rogue_Body",
      "mesh": 3,
      "skin": 0
    },
    {
      "name": "Rogue_Head_Hooded",
      "mesh": 4,
      "skin": 0
    },
    {
      "name": "Rogue_LegLeft",
      "mesh": 5,
      "skin": 0
    },
    {
      "name": "Rogue_LegRight",
      "mesh": 6,
      "skin": 0
    },
    {
      "name": "Rig",
      "children": [
        47,
        48,
        49,
        50,
        51,
        52,
        46
      ]
    }
  ],
  "skins": [
    {
      "name": "Rig",
      "inverseBindMatrices": 0,
      "joints": [
        46,
        27,
        18,
        17,
        5,
        4,
        3,
        2,
        1,
        14,
        13,
        12,
        11,
        10,
        15,
        22,
        21,
        20,
        19,
        26,
        25,
        24,
        23,
        28,
        34,
        33,
        31,
        29,
        30,
        32,
        35,
        41,
        40,
        38,
        36,
        37,
        39,
        42,
        43,
        44,
        45
      ]
    }
  ],
  "scenes": [
    {
      "name": "Scene",
      "nodes": [
        53
      ]
    }
  ],
  "scene": 0
}