{"asset":{"version":"2.0","generator":"tools/build_character.py"},"scene":0,"scenes":[{"nodes":[13]}],"nodes":[{"name":"root","translation":[0.0,0.0,0.0],"children":[1]},{"name":"hips","translation":[0.0,0.264,0.0],"children":[2,3,4]},{"name":"leg_l","translation":[0.165,0.0,0.033]},{"name":"leg_r","translation":[-0.165,0.0,0.033]},{"name":"chest","translation":[0.0,0.231,0.0],"children":[5,7,9]},{"name":"arm_l","translation":[0.341,0.165,0.0],"children":[6]},{"name":"hand_l","translation":[0.1265,-0.341,0.044]},{"name":"arm_r","translation":[-0.341,0.165,0.0],"children":[8]},{"name":"hand_r","translation":[-0.1265,-0.341,0.044]},{"name":"head","translation":[0.0,0.308,0.0],"children":[10,11]},{"name":"ear_l","translation":[0.462,1.122,0.0]},{"name":"ear_r","translation":[-0.462,1.122,0.0]},{"name":"TATA_Body","mesh":0,"skin":0},{"name":"TATA","children":[0,12]}],"meshes":[{"name":"TATA","primitives":[{"attributes":{"POSITION":0,"NORMAL":1,"TEXCOORD_0":2,"JOINTS_0":3,"WEIGHTS_0":4},"indices":5,"material":0}]}],"skins":[{"joints":[0,1,2,3,4,5,6,7,8,9,10,11],"inverseBindMatrices":6,"skeleton":0}],"materials":[{"name":"TATA","doubleSided":true,"pbrMetallicRoughness":{"baseColorTexture":{"index":0},"metallicFactor":0,"roughnessFactor":0.55},"emissiveTexture":{"index":0},"emissiveFactor":[0.18,0.18,0.18]}],"textures":[{"source":0,"sampler":0}],"samplers":[{"magFilter":9729,"minFilter":9729}],"images":[{"uri":"tata_texture.jpg"}],"animations":[{"name":"Idle","samplers":[{"input":7,"output":8,"interpolation":"LINEAR"},{"input":7,"output":9,"interpolation":"LINEAR"},{"input":7,"output":10,"interpolation":"LINEAR"},{"input":7,"output":11,"interpolation":"LINEAR"},{"input":7,"output":12,"interpolation":"LINEAR"},{"input":7,"output":13,"interpolation":"LINEAR"},{"input":7,"output":14,"interpolation":"LINEAR"}],"channels":[{"sampler":0,"target":{"node":5,"path":"rotation"}},{"sampler":1,"target":{"node":7,"path":"rotation"}},{"sampler":2,"target":{"node":4,"path":"scale"}},{"sampler":3,"target":{"node":10,"path":"rotation"}},{"sampler":4,"target":{"node":11,"path":"rotation"}},{"sampler":5,"target":{"node":9,"path":"rotation"}},{"sampler":6,"target":{"node":1,"path":"translation"}}]},{"name":"Walk","samplers":[{"input":15,"output":16,"interpolation":"LINEAR"},{"input":15,"output":17,"interpolation":"LINEAR"},{"input":15,"output":18,"interpolation":"LINEAR"},{"input":15,"output":19,"interpolation":"LINEAR"},{"input":15,"output":20,"interpolation":"LINEAR"},{"input":15,"output":21,"interpolation":"LINEAR"},{"input":15,"output":22,"interpolation":"LINEAR"},{"input":15,"output":23,"interpolation":"LINEAR"},{"input":15,"output":24,"interpolation":"LINEAR"}],"channels":[{"sampler":0,"target":{"node":5,"path":"rotation"}},{"sampler":1,"target":{"node":7,"path":"rotation"}},{"sampler":2,"target":{"node":10,"path":"rotation"}},{"sampler":3,"target":{"node":11,"path":"rotation"}},{"sampler":4,"target":{"node":9,"path":"rotation"}},{"sampler":5,"target":{"node":1,"path":"rotation"}},{"sampler":6,"target":{"node":1,"path":"translation"}},{"sampler":7,"target":{"node":2,"path":"rotation"}},{"sampler":8,"target":{"node":3,"path":"rotation"}}]},{"name":"Carry","samplers":[{"input":25,"output":26,"interpolation":"LINEAR"},{"input":25,"output":27,"interpolation":"LINEAR"},{"input":25,"output":28,"interpolation":"LINEAR"},{"input":25,"output":29,"interpolation":"LINEAR"},{"input":25,"output":30,"interpolation":"LINEAR"},{"input":25,"output":31,"interpolation":"LINEAR"},{"input":25,"output":32,"interpolation":"LINEAR"},{"input":25,"output":33,"interpolation":"LINEAR"},{"input":25,"output":34,"interpolation":"LINEAR"}],"channels":[{"sampler":0,"target":{"node":5,"path":"rotation"}},{"sampler":1,"target":{"node":7,"path":"rotation"}},{"sampler":2,"target":{"node":10,"path":"rotation"}},{"sampler":3,"target":{"node":11,"path":"rotation"}},{"sampler":4,"target":{"node":9,"path":"rotation"}},{"sampler":5,"target":{"node":1,"path":"rotation"}},{"sampler":6,"target":{"node":1,"path":"translation"}},{"sampler":7,"target":{"node":2,"path":"rotation"}},{"sampler":8,"target":{"node":3,"path":"rotation"}}]},{"name":"Sit","samplers":[{"input":35,"output":36,"interpolation":"LINEAR"},{"input":35,"output":37,"interpolation":"LINEAR"},{"input":35,"output":38,"interpolation":"LINEAR"},{"input":35,"output":39,"interpolation":"LINEAR"},{"input":35,"output":40,"interpolation":"LINEAR"},{"input":35,"output":41,"interpolation":"LINEAR"},{"input":35,"output":42,"interpolation":"LINEAR"}],"channels":[{"sampler":0,"target":{"node":5,"path":"rotation"}},{"sampler":1,"target":{"node":7,"path":"rotation"}},{"sampler":2,"target":{"node":4,"path":"scale"}},{"sampler":3,"target":{"node":9,"path":"rotation"}},{"sampler":4,"target":{"node":1,"path":"translation"}},{"sampler":5,"target":{"node":2,"path":"rotation"}},{"sampler":6,"target":{"node":3,"path":"rotation"}}]},{"name":"Eat","samplers":[{"input":43,"output":44,"interpolation":"LINEAR"},{"input":43,"output":45,"interpolation":"LINEAR"},{"input":43,"output":46,"interpolation":"LINEAR"},{"input":43,"output":47,"interpolation":"LINEAR"},{"input":43,"output":48,"interpolation":"LINEAR"},{"input":43,"output":49,"interpolation":"LINEAR"},{"input":43,"output":50,"interpolation":"LINEAR"}],"channels":[{"sampler":0,"target":{"node":5,"path":"rotation"}},{"sampler":1,"target":{"node":7,"path":"rotation"}},{"sampler":2,"target":{"node":4,"path":"scale"}},{"sampler":3,"target":{"node":9,"path":"rotation"}},{"sampler":4,"target":{"node":1,"path":"translation"}},{"sampler":5,"target":{"node":2,"path":"rotation"}},{"sampler":6,"target":{"node":3,"path":"rotation"}}]},{"name":"Wait","samplers":[{"input":51,"output":52,"interpolation":"LINEAR"},{"input":51,"output":53,"interpolation":"LINEAR"},{"input":51,"output":54,"interpolation":"LINEAR"},{"input":51,"output":55,"interpolation":"LINEAR"},{"input":51,"output":56,"interpolation":"LINEAR"},{"input":51,"output":57,"interpolation":"LINEAR"},{"input":51,"output":58,"interpolation":"LINEAR"}],"channels":[{"sampler":0,"target":{"node":5,"path":"rotation"}},{"sampler":1,"target":{"node":7,"path":"rotation"}},{"sampler":2,"target":{"node":4,"path":"scale"}},{"sampler":3,"target":{"node":9,"path":"rotation"}},{"sampler":4,"target":{"node":1,"path":"translation"}},{"sampler":5,"target":{"node":2,"path":"rotation"}},{"sampler":6,"target":{"node":3,"path":"rotation"}}]},{"name":"Work","samplers":[{"input":59,"output":60,"interpolation":"LINEAR"},{"input":59,"output":61,"interpolation":"LINEAR"},{"input":59,"output":62,"interpolation":"LINEAR"},{"input":59,"output":63,"interpolation":"LINEAR"},{"input":59,"output":64,"interpolation":"LINEAR"},{"input":59,"output":65,"interpolation":"LINEAR"}],"channels":[{"sampler":0,"target":{"node":5,"path":"rotation"}},{"sampler":1,"target":{"node":7,"path":"rotation"}},{"sampler":2,"target":{"node":4,"path":"rotation"}},{"sampler":3,"target":{"node":4,"path":"scale"}},{"sampler":4,"target":{"node":9,"path":"rotation"}},{"sampler":5,"target":{"node":1,"path":"translation"}}]},{"name":"Shake","samplers":[{"input":66,"output":67,"interpolation":"LINEAR"},{"input":66,"output":68,"interpolation":"LINEAR"},{"input":66,"output":69,"interpolation":"LINEAR"},{"input":66,"output":70,"interpolation":"LINEAR"},{"input":66,"output":71,"interpolation":"LINEAR"}],"channels":[{"sampler":0,"target":{"node":5,"path":"rotation"}},{"sampler":1,"target":{"node":7,"path":"rotation"}},{"sampler":2,"target":{"node":4,"path":"rotation"}},{"sampler":3,"target":{"node":9,"path":"rotation"}},{"sampler":4,"target":{"node":1,"path":"translation"}}]},{"name":"Talk","samplers":[{"input":72,"output":73,"interpolation":"LINEAR"},{"input":72,"output":74,"interpolation":"LINEAR"},{"input":72,"output":75,"interpolation":"LINEAR"},{"input":72,"output":76,"interpolation":"LINEAR"},{"input":72,"output":77,"interpolation":"LINEAR"},{"input":72,"output":78,"interpolation":"LINEAR"},{"input":72,"output":79,"interpolation":"LINEAR"}],"channels":[{"sampler":0,"target":{"node":5,"path":"rotation"}},{"sampler":1,"target":{"node":7,"path":"rotation"}},{"sampler":2,"target":{"node":4,"path":"rotation"}},{"sampler":3,"target":{"node":4,"path":"scale"}},{"sampler":4,"target":{"node":10,"path":"rotation"}},{"sampler":5,"target":{"node":11,"path":"rotation"}},{"sampler":6,"target":{"node":9,"path":"rotation"}}]},{"name":"Sweep","samplers":[{"input":80,"output":81,"interpolation":"LINEAR"},{"input":80,"output":82,"interpolation":"LINEAR"},{"input":80,"output":83,"interpolation":"LINEAR"},{"input":80,"output":84,"interpolation":"LINEAR"},{"input":80,"output":85,"interpolation":"LINEAR"}],"channels":[{"sampler":0,"target":{"node":5,"path":"rotation"}},{"sampler":1,"target":{"node":7,"path":"rotation"}},{"sampler":2,"target":{"node":4,"path":"rotation"}},{"sampler":3,"target":{"node":9,"path":"rotation"}},{"sampler":4,"target":{"node":1,"path":"rotation"}}]},{"name":"Repair","samplers":[{"input":86,"output":87,"interpolation":"LINEAR"},{"input":86,"output":88,"interpolation":"LINEAR"},{"input":86,"output":89,"interpolation":"LINEAR"},{"input":86,"output":90,"interpolation":"LINEAR"},{"input":86,"output":91,"interpolation":"LINEAR"}],"channels":[{"sampler":0,"target":{"node":5,"path":"rotation"}},{"sampler":1,"target":{"node":7,"path":"rotation"}},{"sampler":2,"target":{"node":4,"path":"rotation"}},{"sampler":3,"target":{"node":9,"path":"rotation"}},{"sampler":4,"target":{"node":1,"path":"translation"}}]},{"name":"Nap","samplers":[{"input":92,"output":93,"interpolation":"LINEAR"},{"input":92,"output":94,"interpolation":"LINEAR"},{"input":92,"output":95,"interpolation":"LINEAR"},{"input":92,"output":96,"interpolation":"LINEAR"},{"input":92,"output":97,"interpolation":"LINEAR"},{"input":92,"output":98,"interpolation":"LINEAR"},{"input":92,"output":99,"interpolation":"LINEAR"},{"input":92,"output":100,"interpolation":"LINEAR"},{"input":92,"output":101,"interpolation":"LINEAR"},{"input":92,"output":102,"interpolation":"LINEAR"}],"channels":[{"sampler":0,"target":{"node":5,"path":"rotation"}},{"sampler":1,"target":{"node":7,"path":"rotation"}},{"sampler":2,"target":{"node":4,"path":"rotation"}},{"sampler":3,"target":{"node":4,"path":"scale"}},{"sampler":4,"target":{"node":10,"path":"rotation"}},{"sampler":5,"target":{"node":11,"path":"rotation"}},{"sampler":6,"target":{"node":9,"path":"rotation"}},{"sampler":7,"target":{"node":1,"path":"translation"}},{"sampler":8,"target":{"node":2,"path":"rotation"}},{"sampler":9,"target":{"node":3,"path":"rotation"}}]},{"name":"Cheer","samplers":[{"input":103,"output":104,"interpolation":"LINEAR"},{"input":103,"output":105,"interpolation":"LINEAR"},{"input":103,"output":106,"interpolation":"LINEAR"},{"input":103,"output":107,"interpolation":"LINEAR"},{"input":103,"output":108,"interpolation":"LINEAR"},{"input":103,"output":109,"interpolation":"LINEAR"},{"input":103,"output":110,"interpolation":"LINEAR"},{"input":103,"output":111,"interpolation":"LINEAR"},{"input":103,"output":112,"interpolation":"LINEAR"}],"channels":[{"sampler":0,"target":{"node":5,"path":"rotation"}},{"sampler":1,"target":{"node":7,"path":"rotation"}},{"sampler":2,"target":{"node":4,"path":"scale"}},{"sampler":3,"target":{"node":10,"path":"rotation"}},{"sampler":4,"target":{"node":11,"path":"rotation"}},{"sampler":5,"target":{"node":9,"path":"rotation"}},{"sampler":6,"target":{"node":1,"path":"translation"}},{"sampler":7,"target":{"node":2,"path":"rotation"}},{"sampler":8,"target":{"node":3,"path":"rotation"}}]},{"name":"Hit","samplers":[{"input":113,"output":114,"interpolation":"LINEAR"},{"input":113,"output":115,"interpolation":"LINEAR"},{"input":113,"output":116,"interpolation":"LINEAR"},{"input":113,"output":117,"interpolation":"LINEAR"},{"input":113,"output":118,"interpolation":"LINEAR"},{"input":113,"output":119,"interpolation":"LINEAR"},{"input":113,"output":120,"interpolation":"LINEAR"},{"input":113,"output":121,"interpolation":"LINEAR"}],"channels":[{"sampler":0,"target":{"node":5,"path":"rotation"}},{"sampler":1,"target":{"node":7,"path":"rotation"}},{"sampler":2,"target":{"node":4,"path":"scale"}},{"sampler":3,"target":{"node":10,"path":"rotation"}},{"sampler":4,"target":{"node":11,"path":"rotation"}},{"sampler":5,"target":{"node":9,"path":"rotation"}},{"sampler":6,"target":{"node":1,"path":"rotation"}},{"sampler":7,"target":{"node":1,"path":"translation"}}]},{"name":"Pickup","samplers":[{"input":122,"output":123,"interpolation":"LINEAR"},{"input":122,"output":124,"interpolation":"LINEAR"},{"input":122,"output":125,"interpolation":"LINEAR"},{"input":122,"output":126,"interpolation":"LINEAR"},{"input":122,"output":127,"interpolation":"LINEAR"}],"channels":[{"sampler":0,"target":{"node":5,"path":"rotation"}},{"sampler":1,"target":{"node":7,"path":"rotation"}},{"sampler":2,"target":{"node":4,"path":"rotation"}},{"sampler":3,"target":{"node":9,"path":"rotation"}},{"sampler":4,"target":{"node":1,"path":"translation"}}]}],"buffers":[{"uri":"TATA.bin","byteLength":632304}],"bufferViews":[{"buffer":0,"byteOffset":0,"byteLength":112248,"target":34962},{"buffer":0,"byteOffset":112248,"byteLength":112248,"target":34962},{"buffer":0,"byteOffset":224496,"byteLength":74832,"target":34962},{"buffer":0,"byteOffset":299328,"byteLength":37416,"target":34962},{"buffer":0,"byteOffset":336744,"byteLength":149664,"target":34962},{"buffer":0,"byteOffset":486408,"byteLength":73992,"target":34963},{"buffer":0,"byteOffset":560400,"byteLength":768},{"buffer":0,"byteOffset":561168,"byteLength":292},{"buffer":0,"byteOffset":561460,"byteLength":1168},{"buffer":0,"byteOffset":562628,"byteLength":1168},{"buffer":0,"byteOffset":563796,"byteLength":876},{"buffer":0,"byteOffset":564672,"byteLength":1168},{"buffer":0,"byteOffset":565840,"byteLength":1168},{"buffer":0,"byteOffset":567008,"byteLength":1168},{"buffer":0,"byteOffset":568176,"byteLength":876},{"buffer":0,"byteOffset":569052,"byteLength":60},{"buffer":0,"byteOffset":569112,"byteLength":240},{"buffer":0,"byteOffset":569352,"byteLength":240},{"buffer":0,"byteOffset":569592,"byteLength":240},{"buffer":0,"byteOffset":569832,"byteLength":240},{"buffer":0,"byteOffset":570072,"byteLength":240},{"buffer":0,"byteOffset":570312,"byteLength":240},{"buffer":0,"byteOffset":570552,"byteLength":180},{"buffer":0,"byteOffset":570732,"byteLength":240},{"buffer":0,"byteOffset":570972,"byteLength":240},{"buffer":0,"byteOffset":571212,"byteLength":60},{"buffer":0,"byteOffset":571272,"byteLength":240},{"buffer":0,"byteOffset":571512,"byteLength":240},{"buffer":0,"byteOffset":571752,"byteLength":240},{"buffer":0,"byteOffset":571992,"byteLength":240},{"buffer":0,"byteOffset":572232,"byteLength":240},{"buffer":0,"byteOffset":572472,"byteLength":240},{"buffer":0,"byteOffset":572712,"byteLength":180},{"buffer":0,"byteOffset":572892,"byteLength":240},{"buffer":0,"byteOffset":573132,"byteLength":240},{"buffer":0,"byteOffset":573372,"byteLength":364},{"buffer":0,"byteOffset":573736,"byteLength":1456},{"buffer":0,"byteOffset":575192,"byteLength":1456},{"buffer":0,"byteOffset":576648,"byteLength":1092},{"buffer":0,"byteOffset":577740,"byteLength":1456},{"buffer":0,"byteOffset":579196,"byteLength":1092},{"buffer":0,"byteOffset":580288,"byteLength":1456},{"buffer":0,"byteOffset":581744,"byteLength":1456},{"buffer":0,"byteOffset":583200,"byteLength":172},{"buffer":0,"byteOffset":583372,"byteLength":688},{"buffer":0,"byteOffset":584060,"byteLength":688},{"buffer":0,"byteOffset":584748,"byteLength":516},{"buffer":0,"byteOffset":585264,"byteLength":688},{"buffer":0,"byteOffset":585952,"byteLength":516},{"buffer":0,"byteOffset":586468,"byteLength":688},{"buffer":0,"byteOffset":587156,"byteLength":688},{"buffer":0,"byteOffset":587844,"byteLength":268},{"buffer":0,"byteOffset":588112,"byteLength":1072},{"buffer":0,"byteOffset":589184,"byteLength":1072},{"buffer":0,"byteOffset":590256,"byteLength":804},{"buffer":0,"byteOffset":591060,"byteLength":1072},{"buffer":0,"byteOffset":592132,"byteLength":804},{"buffer":0,"byteOffset":592936,"byteLength":1072},{"buffer":0,"byteOffset":594008,"byteLength":1072},{"buffer":0,"byteOffset":595080,"byteLength":112},{"buffer":0,"byteOffset":595192,"byteLength":448},{"buffer":0,"byteOffset":595640,"byteLength":448},{"buffer":0,"byteOffset":596088,"byteLength":448},{"buffer":0,"byteOffset":596536,"byteLength":336},{"buffer":0,"byteOffset":596872,"byteLength":448},{"buffer":0,"byteOffset":597320,"byteLength":336},{"buffer":0,"byteOffset":597656,"byteLength":76},{"buffer":0,"byteOffset":597732,"byteLength":304},{"buffer":0,"byteOffset":598036,"byteLength":304},{"buffer":0,"byteOffset":598340,"byteLength":304},{"buffer":0,"byteOffset":598644,"byteLength":304},{"buffer":0,"byteOffset":598948,"byteLength":228},{"buffer":0,"byteOffset":599176,"byteLength":172},{"buffer":0,"byteOffset":599348,"byteLength":688},{"buffer":0,"byteOffset":600036,"byteLength":688},{"buffer":0,"byteOffset":600724,"byteLength":688},{"buffer":0,"byteOffset":601412,"byteLength":516},{"buffer":0,"byteOffset":601928,"byteLength":688},{"buffer":0,"byteOffset":602616,"byteLength":688},{"buffer":0,"byteOffset":603304,"byteLength":688},{"buffer":0,"byteOffset":603992,"byteLength":124},{"buffer":0,"byteOffset":604116,"byteLength":496},{"buffer":0,"byteOffset":604612,"byteLength":496},{"buffer":0,"byteOffset":605108,"byteLength":496},{"buffer":0,"byteOffset":605604,"byteLength":496},{"buffer":0,"byteOffset":606100,"byteLength":496},{"buffer":0,"byteOffset":606596,"byteLength":88},{"buffer":0,"byteOffset":606684,"byteLength":352},{"buffer":0,"byteOffset":607036,"byteLength":352},{"buffer":0,"byteOffset":607388,"byteLength":352},{"buffer":0,"byteOffset":607740,"byteLength":352},{"buffer":0,"byteOffset":608092,"byteLength":264},{"buffer":0,"byteOffset":608356,"byteLength":388},{"buffer":0,"byteOffset":608744,"byteLength":1552},{"buffer":0,"byteOffset":610296,"byteLength":1552},{"buffer":0,"byteOffset":611848,"byteLength":1552},{"buffer":0,"byteOffset":613400,"byteLength":1164},{"buffer":0,"byteOffset":614564,"byteLength":1552},{"buffer":0,"byteOffset":616116,"byteLength":1552},{"buffer":0,"byteOffset":617668,"byteLength":1552},{"buffer":0,"byteOffset":619220,"byteLength":1164},{"buffer":0,"byteOffset":620384,"byteLength":1552},{"buffer":0,"byteOffset":621936,"byteLength":1552},{"buffer":0,"byteOffset":623488,"byteLength":100},{"buffer":0,"byteOffset":623588,"byteLength":400},{"buffer":0,"byteOffset":623988,"byteLength":400},{"buffer":0,"byteOffset":624388,"byteLength":300},{"buffer":0,"byteOffset":624688,"byteLength":400},{"buffer":0,"byteOffset":625088,"byteLength":400},{"buffer":0,"byteOffset":625488,"byteLength":400},{"buffer":0,"byteOffset":625888,"byteLength":300},{"buffer":0,"byteOffset":626188,"byteLength":400},{"buffer":0,"byteOffset":626588,"byteLength":400},{"buffer":0,"byteOffset":626988,"byteLength":76},{"buffer":0,"byteOffset":627064,"byteLength":304},{"buffer":0,"byteOffset":627368,"byteLength":304},{"buffer":0,"byteOffset":627672,"byteLength":228},{"buffer":0,"byteOffset":627900,"byteLength":304},{"buffer":0,"byteOffset":628204,"byteLength":304},{"buffer":0,"byteOffset":628508,"byteLength":304},{"buffer":0,"byteOffset":628812,"byteLength":304},{"buffer":0,"byteOffset":629116,"byteLength":228},{"buffer":0,"byteOffset":629344,"byteLength":148},{"buffer":0,"byteOffset":629492,"byteLength":592},{"buffer":0,"byteOffset":630084,"byteLength":592},{"buffer":0,"byteOffset":630676,"byteLength":592},{"buffer":0,"byteOffset":631268,"byteLength":592},{"buffer":0,"byteOffset":631860,"byteLength":444}],"accessors":[{"bufferView":0,"componentType":5126,"count":9354,"type":"VEC3","min":[-0.8967409133911133,0.0,-0.4772472083568573],"max":[0.8967409133911133,2.0899999141693115,0.4772472083568573]},{"bufferView":1,"componentType":5126,"count":9354,"type":"VEC3"},{"bufferView":2,"componentType":5126,"count":9354,"type":"VEC2"},{"bufferView":3,"componentType":5121,"count":9354,"type":"VEC4"},{"bufferView":4,"componentType":5126,"count":9354,"type":"VEC4"},{"bufferView":5,"componentType":5123,"count":36996,"type":"SCALAR"},{"bufferView":6,"componentType":5126,"count":12,"type":"MAT4"},{"bufferView":7,"componentType":5126,"count":73,"type":"SCALAR","min":[0.0],"max":[2.4000000953674316]},{"bufferView":8,"componentType":5126,"count":73,"type":"VEC4"},{"bufferView":9,"componentType":5126,"count":73,"type":"VEC4"},{"bufferView":10,"componentType":5126,"count":73,"type":"VEC3"},{"bufferView":11,"componentType":5126,"count":73,"type":"VEC4"},{"bufferView":12,"componentType":5126,"count":73,"type":"VEC4"},{"bufferView":13,"componentType":5126,"count":73,"type":"VEC4"},{"bufferView":14,"componentType":5126,"count":73,"type":"VEC3"},{"bufferView":15,"componentType":5126,"count":15,"type":"SCALAR","min":[0.0],"max":[0.47999998927116394]},{"bufferView":16,"componentType":5126,"count":15,"type":"VEC4"},{"bufferView":17,"componentType":5126,"count":15,"type":"VEC4"},{"bufferView":18,"componentType":5126,"count":15,"type":"VEC4"},{"bufferView":19,"componentType":5126,"count":15,"type":"VEC4"},{"bufferView":20,"componentType":5126,"count":15,"type":"VEC4"},{"bufferView":21,"componentType":5126,"count":15,"type":"VEC4"},{"bufferView":22,"componentType":5126,"count":15,"type":"VEC3"},{"bufferView":23,"componentType":5126,"count":15,"type":"VEC4"},{"bufferView":24,"componentType":5126,"count":15,"type":"VEC4"},{"bufferView":25,"componentType":5126,"count":15,"type":"SCALAR","min":[0.0],"max":[0.47999998927116394]},{"bufferView":26,"componentType":5126,"count":15,"type":"VEC4"},{"bufferView":27,"componentType":5126,"count":15,"type":"VEC4"},{"bufferView":28,"componentType":5126,"count":15,"type":"VEC4"},{"bufferView":29,"componentType":5126,"count":15,"type":"VEC4"},{"bufferView":30,"componentType":5126,"count":15,"type":"VEC4"},{"bufferView":31,"componentType":5126,"count":15,"type":"VEC4"},{"bufferView":32,"componentType":5126,"count":15,"type":"VEC3"},{"bufferView":33,"componentType":5126,"count":15,"type":"VEC4"},{"bufferView":34,"componentType":5126,"count":15,"type":"VEC4"},{"bufferView":35,"componentType":5126,"count":91,"type":"SCALAR","min":[0.0],"max":[3.0]},{"bufferView":36,"componentType":5126,"count":91,"type":"VEC4"},{"bufferView":37,"componentType":5126,"count":91,"type":"VEC4"},{"bufferView":38,"componentType":5126,"count":91,"type":"VEC3"},{"bufferView":39,"componentType":5126,"count":91,"type":"VEC4"},{"bufferView":40,"componentType":5126,"count":91,"type":"VEC3"},{"bufferView":41,"componentType":5126,"count":91,"type":"VEC4"},{"bufferView":42,"componentType":5126,"count":91,"type":"VEC4"},{"bufferView":43,"componentType":5126,"count":43,"type":"SCALAR","min":[0.0],"max":[1.399999976158142]},{"bufferView":44,"componentType":5126,"count":43,"type":"VEC4"},{"bufferView":45,"componentType":5126,"count":43,"type":"VEC4"},{"bufferView":46,"componentType":5126,"count":43,"type":"VEC3"},{"bufferView":47,"componentType":5126,"count":43,"type":"VEC4"},{"bufferView":48,"componentType":5126,"count":43,"type":"VEC3"},{"bufferView":49,"componentType":5126,"count":43,"type":"VEC4"},{"bufferView":50,"componentType":5126,"count":43,"type":"VEC4"},{"bufferView":51,"componentType":5126,"count":67,"type":"SCALAR","min":[0.0],"max":[2.200000047683716]},{"bufferView":52,"componentType":5126,"count":67,"type":"VEC4"},{"bufferView":53,"componentType":5126,"count":67,"type":"VEC4"},{"bufferView":54,"componentType":5126,"count":67,"type":"VEC3"},{"bufferView":55,"componentType":5126,"count":67,"type":"VEC4"},{"bufferView":56,"componentType":5126,"count":67,"type":"VEC3"},{"bufferView":57,"componentType":5126,"count":67,"type":"VEC4"},{"bufferView":58,"componentType":5126,"count":67,"type":"VEC4"},{"bufferView":59,"componentType":5126,"count":28,"type":"SCALAR","min":[0.0],"max":[0.8999999761581421]},{"bufferView":60,"componentType":5126,"count":28,"type":"VEC4"},{"bufferView":61,"componentType":5126,"count":28,"type":"VEC4"},{"bufferView":62,"componentType":5126,"count":28,"type":"VEC4"},{"bufferView":63,"componentType":5126,"count":28,"type":"VEC3"},{"bufferView":64,"componentType":5126,"count":28,"type":"VEC4"},{"bufferView":65,"componentType":5126,"count":28,"type":"VEC3"},{"bufferView":66,"componentType":5126,"count":19,"type":"SCALAR","min":[0.0],"max":[0.6000000238418579]},{"bufferView":67,"componentType":5126,"count":19,"type":"VEC4"},{"bufferView":68,"componentType":5126,"count":19,"type":"VEC4"},{"bufferView":69,"componentType":5126,"count":19,"type":"VEC4"},{"bufferView":70,"componentType":5126,"count":19,"type":"VEC4"},{"bufferView":71,"componentType":5126,"count":19,"type":"VEC3"},{"bufferView":72,"componentType":5126,"count":43,"type":"SCALAR","min":[0.0],"max":[1.399999976158142]},{"bufferView":73,"componentType":5126,"count":43,"type":"VEC4"},{"bufferView":74,"componentType":5126,"count":43,"type":"VEC4"},{"bufferView":75,"componentType":5126,"count":43,"type":"VEC4"},{"bufferView":76,"componentType":5126,"count":43,"type":"VEC3"},{"bufferView":77,"componentType":5126,"count":43,"type":"VEC4"},{"bufferView":78,"componentType":5126,"count":43,"type":"VEC4"},{"bufferView":79,"componentType":5126,"count":43,"type":"VEC4"},{"bufferView":80,"componentType":5126,"count":31,"type":"SCALAR","min":[0.0],"max":[1.0]},{"bufferView":81,"componentType":5126,"count":31,"type":"VEC4"},{"bufferView":82,"componentType":5126,"count":31,"type":"VEC4"},{"bufferView":83,"componentType":5126,"count":31,"type":"VEC4"},{"bufferView":84,"componentType":5126,"count":31,"type":"VEC4"},{"bufferView":85,"componentType":5126,"count":31,"type":"VEC4"},{"bufferView":86,"componentType":5126,"count":22,"type":"SCALAR","min":[0.0],"max":[0.699999988079071]},{"bufferView":87,"componentType":5126,"count":22,"type":"VEC4"},{"bufferView":88,"componentType":5126,"count":22,"type":"VEC4"},{"bufferView":89,"componentType":5126,"count":22,"type":"VEC4"},{"bufferView":90,"componentType":5126,"count":22,"type":"VEC4"},{"bufferView":91,"componentType":5126,"count":22,"type":"VEC3"},{"bufferView":92,"componentType":5126,"count":97,"type":"SCALAR","min":[0.0],"max":[3.200000047683716]},{"bufferView":93,"componentType":5126,"count":97,"type":"VEC4"},{"bufferView":94,"componentType":5126,"count":97,"type":"VEC4"},{"bufferView":95,"componentType":5126,"count":97,"type":"VEC4"},{"bufferView":96,"componentType":5126,"count":97,"type":"VEC3"},{"bufferView":97,"componentType":5126,"count":97,"type":"VEC4"},{"bufferView":98,"componentType":5126,"count":97,"type":"VEC4"},{"bufferView":99,"componentType":5126,"count":97,"type":"VEC4"},{"bufferView":100,"componentType":5126,"count":97,"type":"VEC3"},{"bufferView":101,"componentType":5126,"count":97,"type":"VEC4"},{"bufferView":102,"componentType":5126,"count":97,"type":"VEC4"},{"bufferView":103,"componentType":5126,"count":25,"type":"SCALAR","min":[0.0],"max":[0.800000011920929]},{"bufferView":104,"componentType":5126,"count":25,"type":"VEC4"},{"bufferView":105,"componentType":5126,"count":25,"type":"VEC4"},{"bufferView":106,"componentType":5126,"count":25,"type":"VEC3"},{"bufferView":107,"componentType":5126,"count":25,"type":"VEC4"},{"bufferView":108,"componentType":5126,"count":25,"type":"VEC4"},{"bufferView":109,"componentType":5126,"count":25,"type":"VEC4"},{"bufferView":110,"componentType":5126,"count":25,"type":"VEC3"},{"bufferView":111,"componentType":5126,"count":25,"type":"VEC4"},{"bufferView":112,"componentType":5126,"count":25,"type":"VEC4"},{"bufferView":113,"componentType":5126,"count":19,"type":"SCALAR","min":[0.0],"max":[0.6000000238418579]},{"bufferView":114,"componentType":5126,"count":19,"type":"VEC4"},{"bufferView":115,"componentType":5126,"count":19,"type":"VEC4"},{"bufferView":116,"componentType":5126,"count":19,"type":"VEC3"},{"bufferView":117,"componentType":5126,"count":19,"type":"VEC4"},{"bufferView":118,"componentType":5126,"count":19,"type":"VEC4"},{"bufferView":119,"componentType":5126,"count":19,"type":"VEC4"},{"bufferView":120,"componentType":5126,"count":19,"type":"VEC4"},{"bufferView":121,"componentType":5126,"count":19,"type":"VEC3"},{"bufferView":122,"componentType":5126,"count":37,"type":"SCALAR","min":[0.0],"max":[1.2000000476837158]},{"bufferView":123,"componentType":5126,"count":37,"type":"VEC4"},{"bufferView":124,"componentType":5126,"count":37,"type":"VEC4"},{"bufferView":125,"componentType":5126,"count":37,"type":"VEC4"},{"bufferView":126,"componentType":5126,"count":37,"type":"VEC4"},{"bufferView":127,"componentType":5126,"count":37,"type":"VEC3"}]}