{"asset":{"version":"2.0","generator":"tools/build_prop.py"},"scene":0,"scenes":[{"nodes":[0]}],"nodes":[{"name":"blueberry","mesh":0}],"meshes":[{"name":"blueberry","primitives":[{"attributes":{"POSITION":0,"NORMAL":1,"TEXCOORD_0":2},"indices":3,"material":0}]}],"materials":[{"name":"blueberry","pbrMetallicRoughness":{"baseColorTexture":{"index":0},"metallicFactor":0,"roughnessFactor":0.55}}],"textures":[{"source":0,"sampler":0}],"samplers":[{"magFilter":9729,"minFilter":9987}],"images":[{"uri":"blueberry_texture.jpg"}],"buffers":[{"uri":"blueberry.bin","byteLength":124032}],"bufferViews":[{"buffer":0,"byteOffset":0,"byteLength":40644,"target":34962},{"buffer":0,"byteOffset":40644,"byteLength":40644,"target":34962},{"buffer":0,"byteOffset":81288,"byteLength":27096,"target":34962},{"buffer":0,"byteOffset":108384,"byteLength":15648,"target":34963}],"accessors":[{"bufferView":0,"componentType":5126,"count":3387,"type":"VEC3","min":[-0.3875241279602051,0.0,-0.20923343300819397],"max":[0.3875241279602051,0.800000011920929,0.20923343300819397]},{"bufferView":1,"componentType":5126,"count":3387,"type":"VEC3"},{"bufferView":2,"componentType":5126,"count":3387,"type":"VEC2"},{"bufferView":3,"componentType":5123,"count":7824,"type":"SCALAR"}]}