{"asset":{"version":"2.0","generator":"tools/build_prop.py"},"scene":0,"scenes":[{"nodes":[0]}],"nodes":[{"name":"bookshelf","mesh":0}],"meshes":[{"name":"bookshelf","primitives":[{"attributes":{"POSITION":0,"NORMAL":1,"TEXCOORD_0":2},"indices":3,"material":0}]}],"materials":[{"name":"bookshelf","pbrMetallicRoughness":{"baseColorTexture":{"index":0},"metallicFactor":0,"roughnessFactor":0.55}}],"textures":[{"source":0,"sampler":0}],"samplers":[{"magFilter":9729,"minFilter":9987}],"images":[{"uri":"bookshelf_texture.jpg"}],"buffers":[{"uri":"bookshelf.bin","byteLength":372434}],"bufferViews":[{"buffer":0,"byteOffset":0,"byteLength":123600,"target":34962},{"buffer":0,"byteOffset":123600,"byteLength":123600,"target":34962},{"buffer":0,"byteOffset":247200,"byteLength":82400,"target":34962},{"buffer":0,"byteOffset":329600,"byteLength":42834,"target":34963}],"accessors":[{"bufferView":0,"componentType":5126,"count":10300,"type":"VEC3","min":[-0.816951334476471,0.0,-0.378082275390625],"max":[0.816951334476471,2.700000047683716,0.378082275390625]},{"bufferView":1,"componentType":5126,"count":10300,"type":"VEC3"},{"bufferView":2,"componentType":5126,"count":10300,"type":"VEC2"},{"bufferView":3,"componentType":5123,"count":21417,"type":"SCALAR"}]}