{"asset":{"version":"2.0","generator":"tools/build_prop.py"},"scene":0,"scenes":[{"nodes":[0]}],"nodes":[{"name":"cheesecake","mesh":0}],"meshes":[{"name":"cheesecake","primitives":[{"attributes":{"POSITION":0,"NORMAL":1,"TEXCOORD_0":2},"indices":3,"material":0}]}],"materials":[{"name":"cheesecake","pbrMetallicRoughness":{"baseColorTexture":{"index":0},"metallicFactor":0,"roughnessFactor":0.55}}],"textures":[{"source":0,"sampler":0}],"samplers":[{"magFilter":9729,"minFilter":9987}],"images":[{"uri":"cheesecake_texture.jpg"}],"buffers":[{"uri":"cheesecake.bin","byteLength":168906}],"bufferViews":[{"buffer":0,"byteOffset":0,"byteLength":56412,"target":34962},{"buffer":0,"byteOffset":56412,"byteLength":56412,"target":34962},{"buffer":0,"byteOffset":112824,"byteLength":37608,"target":34962},{"buffer":0,"byteOffset":150432,"byteLength":18474,"target":34963}],"accessors":[{"bufferView":0,"componentType":5126,"count":4701,"type":"VEC3","min":[-0.4990426003932953,0.0,-0.49827438592910767],"max":[0.4990426003932953,0.699999988079071,0.49827438592910767]},{"bufferView":1,"componentType":5126,"count":4701,"type":"VEC3"},{"bufferView":2,"componentType":5126,"count":4701,"type":"VEC2"},{"bufferView":3,"componentType":5123,"count":9237,"type":"SCALAR"}]}