{"asset":{"version":"2.0","generator":"tools/build_prop.py"},"scene":0,"scenes":[{"nodes":[0]}],"nodes":[{"name":"cookie","mesh":0}],"meshes":[{"name":"cookie","primitives":[{"attributes":{"POSITION":0,"NORMAL":1,"TEXCOORD_0":2},"indices":3,"material":0}]}],"materials":[{"name":"cookie","pbrMetallicRoughness":{"baseColorTexture":{"index":0},"metallicFactor":0,"roughnessFactor":0.55}}],"textures":[{"source":0,"sampler":0}],"samplers":[{"magFilter":9729,"minFilter":9987}],"images":[{"uri":"cookie_texture.jpg"}],"buffers":[{"uri":"cookie.bin","byteLength":128036}],"bufferViews":[{"buffer":0,"byteOffset":0,"byteLength":42168,"target":34962},{"buffer":0,"byteOffset":42168,"byteLength":42168,"target":34962},{"buffer":0,"byteOffset":84336,"byteLength":28112,"target":34962},{"buffer":0,"byteOffset":112448,"byteLength":15588,"target":34963}],"accessors":[{"bufferView":0,"componentType":5126,"count":3514,"type":"VEC3","min":[-0.4902959167957306,0.0,-0.4890243709087372],"max":[0.4902959167957306,0.550000011920929,0.4890243709087372]},{"bufferView":1,"componentType":5126,"count":3514,"type":"VEC3"},{"bufferView":2,"componentType":5126,"count":3514,"type":"VEC2"},{"bufferView":3,"componentType":5123,"count":7794,"type":"SCALAR"}]}