{"asset":{"version":"2.0","generator":"tools/build_prop.py"},"scene":0,"scenes":[{"nodes":[0]}],"nodes":[{"name":"counter","mesh":0}],"meshes":[{"name":"counter","primitives":[{"attributes":{"POSITION":0,"NORMAL":1,"TEXCOORD_0":2},"indices":3,"material":0}]}],"materials":[{"name":"counter","pbrMetallicRoughness":{"baseColorTexture":{"index":0},"metallicFactor":0,"roughnessFactor":0.55}}],"textures":[{"source":0,"sampler":0}],"samplers":[{"magFilter":9729,"minFilter":9987}],"images":[{"uri":"counter_texture.jpg"}],"buffers":[{"uri":"counter.bin","byteLength":122106}],"bufferViews":[{"buffer":0,"byteOffset":0,"byteLength":39132,"target":34962},{"buffer":0,"byteOffset":39132,"byteLength":39132,"target":34962},{"buffer":0,"byteOffset":78264,"byteLength":26088,"target":34962},{"buffer":0,"byteOffset":104352,"byteLength":17754,"target":34963}],"accessors":[{"bufferView":0,"componentType":5126,"count":3261,"type":"VEC3","min":[-0.9756618738174438,0.0,-0.7685999870300293],"max":[0.9756618738174438,0.9974817633628845,0.7685999870300293]},{"bufferView":1,"componentType":5126,"count":3261,"type":"VEC3"},{"bufferView":2,"componentType":5126,"count":3261,"type":"VEC2"},{"bufferView":3,"componentType":5123,"count":8877,"type":"SCALAR"}]}