{"asset":{"version":"2.0","generator":"tools/build_prop.py"},"scene":0,"scenes":[{"nodes":[0]}],"nodes":[{"name":"counter_plain","mesh":0}],"meshes":[{"name":"counter_plain","primitives":[{"attributes":{"POSITION":0,"NORMAL":1,"TEXCOORD_0":2},"indices":3,"material":0}]}],"materials":[{"name":"counter","pbrMetallicRoughness":{"baseColorTexture":{"index":0},"metallicFactor":0,"roughnessFactor":0.55}}],"textures":[{"source":0,"sampler":0}],"samplers":[{"magFilter":9729,"minFilter":9987}],"images":[{"uri":"counter_texture.jpg"}],"buffers":[{"uri":"counter_plain.bin","byteLength":83444}],"bufferViews":[{"buffer":0,"byteOffset":0,"byteLength":27768,"target":34962},{"buffer":0,"byteOffset":27768,"byteLength":27768,"target":34962},{"buffer":0,"byteOffset":55536,"byteLength":18512,"target":34962},{"buffer":0,"byteOffset":74048,"byteLength":9396,"target":34963}],"accessors":[{"bufferView":0,"componentType":5126,"count":2314,"type":"VEC3","min":[-0.9756796956062317,0.0,-0.7686139941215515],"max":[0.9756796956062317,0.7170097827911377,0.7686139941215515]},{"bufferView":1,"componentType":5126,"count":2314,"type":"VEC3"},{"bufferView":2,"componentType":5126,"count":2314,"type":"VEC2"},{"bufferView":3,"componentType":5123,"count":4698,"type":"SCALAR"}]}