{"asset":{"version":"2.0","generator":"tools/build_prop.py"},"scene":0,"scenes":[{"nodes":[0]}],"nodes":[{"name":"croissant","mesh":0}],"meshes":[{"name":"croissant","primitives":[{"attributes":{"POSITION":0,"NORMAL":1,"TEXCOORD_0":2},"indices":3,"material":0}]}],"materials":[{"name":"croissant","pbrMetallicRoughness":{"baseColorTexture":{"index":0},"metallicFactor":0,"roughnessFactor":0.55}}],"textures":[{"source":0,"sampler":0}],"samplers":[{"magFilter":9729,"minFilter":9987}],"images":[{"uri":"croissant_texture.jpg"}],"buffers":[{"uri":"croissant.bin","byteLength":155182}],"bufferViews":[{"buffer":0,"byteOffset":0,"byteLength":51288,"target":34962},{"buffer":0,"byteOffset":51288,"byteLength":51288,"target":34962},{"buffer":0,"byteOffset":102576,"byteLength":34192,"target":34962},{"buffer":0,"byteOffset":136768,"byteLength":18414,"target":34963}],"accessors":[{"bufferView":0,"componentType":5126,"count":4274,"type":"VEC3","min":[-0.5,0.0,-0.49981173872947693],"max":[0.5,0.4376762807369232,0.49981173872947693]},{"bufferView":1,"componentType":5126,"count":4274,"type":"VEC3"},{"bufferView":2,"componentType":5126,"count":4274,"type":"VEC2"},{"bufferView":3,"componentType":5123,"count":9207,"type":"SCALAR"}]}