{"asset":{"version":"2.0","generator":"tools/build_prop.py"},"scene":0,"scenes":[{"nodes":[0]}],"nodes":[{"name":"cup_americano","mesh":0}],"meshes":[{"name":"cup_americano","primitives":[{"attributes":{"POSITION":0,"NORMAL":1,"TEXCOORD_0":2},"indices":3,"material":0}]}],"materials":[{"name":"cup_americano","pbrMetallicRoughness":{"baseColorTexture":{"index":0},"metallicFactor":0,"roughnessFactor":0.55}}],"textures":[{"source":0,"sampler":0}],"samplers":[{"magFilter":9729,"minFilter":9987}],"images":[{"uri":"cup_americano_texture.jpg"}],"buffers":[{"uri":"cup_americano.bin","byteLength":137656}],"bufferViews":[{"buffer":0,"byteOffset":0,"byteLength":44700,"target":34962},{"buffer":0,"byteOffset":44700,"byteLength":44700,"target":34962},{"buffer":0,"byteOffset":89400,"byteLength":29800,"target":34962},{"buffer":0,"byteOffset":119200,"byteLength":18456,"target":34963}],"accessors":[{"bufferView":0,"componentType":5126,"count":3725,"type":"VEC3","min":[-0.4671596884727478,0.0,-0.4188734292984009],"max":[0.4671596884727478,0.8500000238418579,0.4188734292984009]},{"bufferView":1,"componentType":5126,"count":3725,"type":"VEC3"},{"bufferView":2,"componentType":5126,"count":3725,"type":"VEC2"},{"bufferView":3,"componentType":5123,"count":9228,"type":"SCALAR"}]}