{"asset":{"version":"2.0","generator":"tools/build_prop.py"},"scene":0,"scenes":[{"nodes":[0]}],"nodes":[{"name":"cup_latte","mesh":0}],"meshes":[{"name":"cup_latte","primitives":[{"attributes":{"POSITION":0,"NORMAL":1,"TEXCOORD_0":2},"indices":3,"material":0}]}],"materials":[{"name":"cup_latte","pbrMetallicRoughness":{"baseColorTexture":{"index":0},"metallicFactor":0,"roughnessFactor":0.55}}],"textures":[{"source":0,"sampler":0}],"samplers":[{"magFilter":9729,"minFilter":9987}],"images":[{"uri":"cup_latte_texture.jpg"}],"buffers":[{"uri":"cup_latte.bin","byteLength":126532}],"bufferViews":[{"buffer":0,"byteOffset":0,"byteLength":40524,"target":34962},{"buffer":0,"byteOffset":40524,"byteLength":40524,"target":34962},{"buffer":0,"byteOffset":81048,"byteLength":27016,"target":34962},{"buffer":0,"byteOffset":108064,"byteLength":18468,"target":34963}],"accessors":[{"bufferView":0,"componentType":5126,"count":3377,"type":"VEC3","min":[-0.5,0.0,-0.4675932228565216],"max":[0.5,0.49918270111083984,0.4675932228565216]},{"bufferView":1,"componentType":5126,"count":3377,"type":"VEC3"},{"bufferView":2,"componentType":5126,"count":3377,"type":"VEC2"},{"bufferView":3,"componentType":5123,"count":9234,"type":"SCALAR"}]}