{"asset":{"version":"2.0","generator":"tools/build_prop.py"},"scene":0,"scenes":[{"nodes":[0]}],"nodes":[{"name":"cup_espresso","mesh":0}],"meshes":[{"name":"cup_espresso","primitives":[{"attributes":{"POSITION":0,"NORMAL":1,"TEXCOORD_0":2},"indices":3,"material":0}]}],"materials":[{"name":"cup_espresso","pbrMetallicRoughness":{"baseColorTexture":{"index":0},"metallicFactor":0,"roughnessFactor":0.55}}],"textures":[{"source":0,"sampler":0}],"samplers":[{"magFilter":9729,"minFilter":9987}],"images":[{"uri":"cup_espresso_texture.jpg"}],"buffers":[{"uri":"cup_espresso.bin","byteLength":130322}],"bufferViews":[{"buffer":0,"byteOffset":0,"byteLength":41916,"target":34962},{"buffer":0,"byteOffset":41916,"byteLength":41916,"target":34962},{"buffer":0,"byteOffset":83832,"byteLength":27944,"target":34962},{"buffer":0,"byteOffset":111776,"byteLength":18546,"target":34963}],"accessors":[{"bufferView":0,"componentType":5126,"count":3493,"type":"VEC3","min":[-0.5,0.0,-0.4858289957046509],"max":[0.5,0.6025280952453613,0.4858289957046509]},{"bufferView":1,"componentType":5126,"count":3493,"type":"VEC3"},{"bufferView":2,"componentType":5126,"count":3493,"type":"VEC2"},{"bufferView":3,"componentType":5123,"count":9273,"type":"SCALAR"}]}