{"asset":{"version":"2.0","generator":"tools/build_prop.py"},"scene":0,"scenes":[{"nodes":[0]}],"nodes":[{"name":"cup_matcha","mesh":0}],"meshes":[{"name":"cup_matcha","primitives":[{"attributes":{"POSITION":0,"NORMAL":1,"TEXCOORD_0":2},"indices":3,"material":0}]}],"materials":[{"name":"cup_matcha","pbrMetallicRoughness":{"baseColorTexture":{"index":0},"metallicFactor":0,"roughnessFactor":0.55}}],"textures":[{"source":0,"sampler":0}],"samplers":[{"magFilter":9729,"minFilter":9987}],"images":[{"uri":"cup_matcha_texture.jpg"}],"buffers":[{"uri":"cup_matcha.bin","byteLength":124810}],"bufferViews":[{"buffer":0,"byteOffset":0,"byteLength":39984,"target":34962},{"buffer":0,"byteOffset":39984,"byteLength":39984,"target":34962},{"buffer":0,"byteOffset":79968,"byteLength":26656,"target":34962},{"buffer":0,"byteOffset":106624,"byteLength":18186,"target":34963}],"accessors":[{"bufferView":0,"componentType":5126,"count":3332,"type":"VEC3","min":[-0.5,0.0,-0.4830816984176636],"max":[0.5,0.5416688919067383,0.4830816984176636]},{"bufferView":1,"componentType":5126,"count":3332,"type":"VEC3"},{"bufferView":2,"componentType":5126,"count":3332,"type":"VEC2"},{"bufferView":3,"componentType":5123,"count":9093,"type":"SCALAR"}]}