{"asset":{"version":"2.0","generator":"tools/build_prop.py"},"scene":0,"scenes":[{"nodes":[0]}],"nodes":[{"name":"cup_cappuccino","mesh":0}],"meshes":[{"name":"cup_cappuccino","primitives":[{"attributes":{"POSITION":0,"NORMAL":1,"TEXCOORD_0":2},"indices":3,"material":0}]}],"materials":[{"name":"cup_cappuccino","pbrMetallicRoughness":{"baseColorTexture":{"index":0},"metallicFactor":0,"roughnessFactor":0.55}}],"textures":[{"source":0,"sampler":0}],"samplers":[{"magFilter":9729,"minFilter":9987}],"images":[{"uri":"cup_cappuccino_texture.jpg"}],"buffers":[{"uri":"cup_cappuccino.bin","byteLength":124510}],"bufferViews":[{"buffer":0,"byteOffset":0,"byteLength":39768,"target":34962},{"buffer":0,"byteOffset":39768,"byteLength":39768,"target":34962},{"buffer":0,"byteOffset":79536,"byteLength":26512,"target":34962},{"buffer":0,"byteOffset":106048,"byteLength":18462,"target":34963}],"accessors":[{"bufferView":0,"componentType":5126,"count":3314,"type":"VEC3","min":[-0.40927159786224365,0.0,-0.3954111933708191],"max":[0.40927159786224365,0.800000011920929,0.3954111933708191]},{"bufferView":1,"componentType":5126,"count":3314,"type":"VEC3"},{"bufferView":2,"componentType":5126,"count":3314,"type":"VEC2"},{"bufferView":3,"componentType":5123,"count":9231,"type":"SCALAR"}]}