{"asset":{"version":"2.0","generator":"tools/build_prop.py"},"scene":0,"scenes":[{"nodes":[0]}],"nodes":[{"name":"cup_mocha","mesh":0}],"meshes":[{"name":"cup_mocha","primitives":[{"attributes":{"POSITION":0,"NORMAL":1,"TEXCOORD_0":2},"indices":3,"material":0}]}],"materials":[{"name":"cup_mocha","pbrMetallicRoughness":{"baseColorTexture":{"index":0},"metallicFactor":0,"roughnessFactor":0.55}}],"textures":[{"source":0,"sampler":0}],"samplers":[{"magFilter":9729,"minFilter":9987}],"images":[{"uri":"cup_mocha_texture.jpg"}],"buffers":[{"uri":"cup_mocha.bin","byteLength":200884}],"bufferViews":[{"buffer":0,"byteOffset":0,"byteLength":67236,"target":34962},{"buffer":0,"byteOffset":67236,"byteLength":67236,"target":34962},{"buffer":0,"byteOffset":134472,"byteLength":44824,"target":34962},{"buffer":0,"byteOffset":179296,"byteLength":21588,"target":34963}],"accessors":[{"bufferView":0,"componentType":5126,"count":5603,"type":"VEC3","min":[-0.37101343274116516,0.0,-0.29010865092277527],"max":[0.37101343274116516,1.0,0.29010865092277527]},{"bufferView":1,"componentType":5126,"count":5603,"type":"VEC3"},{"bufferView":2,"componentType":5126,"count":5603,"type":"VEC2"},{"bufferView":3,"componentType":5123,"count":10794,"type":"SCALAR"}]}