{
	"asset":{
		"generator":"Khronos glTF Blender I/O v5.2.40",
		"version":"2.0"
	},
	"scene":0,
	"scenes":[
		{
			"name":"Scene",
			"nodes":[
				0
			]
		}
	],
	"nodes":[
		{
			"mesh":0,
			"name":"espresso_machine"
		}
	],
	"materials":[
		{
			"doubleSided":true,
			"name":"body",
			"pbrMetallicRoughness":{
				"baseColorFactor":[
					0.6239603757858276,
					0.6583748459815979,
					0.68668532371521,
					1
				],
				"metallicFactor":0,
				"roughnessFactor":0.5
			}
		},
		{
			"doubleSided":true,
			"name":"metal",
			"pbrMetallicRoughness":{
				"baseColorFactor":[
					0.34191441535949707,
					0.3762621283531189,
					0.40724021196365356,
					1
				],
				"metallicFactor":0,
				"roughnessFactor":0.5
			}
		},
		{
			"doubleSided":true,
			"name":"metal_dark",
			"pbrMetallicRoughness":{
				"baseColorFactor":[
					0.2015562504529953,
					0.22696587443351746,
					0.2541520893573761,
					1
				],
				"metallicFactor":0,
				"roughnessFactor":0.5
			}
		},
		{
			"doubleSided":true,
			"name":"black",
			"pbrMetallicRoughness":{
				"baseColorFactor":[
					0.012983032502233982,
					0.012983032502233982,
					0.01599629409611225,
					1
				],
				"metallicFactor":0,
				"roughnessFactor":0.5
			}
		},
		{
			"doubleSided":true,
			"name":"bay",
			"pbrMetallicRoughness":{
				"baseColorFactor":[
					0.021219009533524513,
					0.021219009533524513,
					0.026241222396492958,
					1
				],
				"metallicFactor":0,
				"roughnessFactor":0.5
			}
		},
		{
			"doubleSided":true,
			"name":"porcelain",
			"pbrMetallicRoughness":{
				"baseColorFactor":[
					0.9215818643569946,
					0.8796223998069763,
					0.8069522380828857,
					1
				],
				"metallicFactor":0,
				"roughnessFactor":0.5
			}
		},
		{
			"doubleSided":true,
			"name":"dial",
			"pbrMetallicRoughness":{
				"baseColorFactor":[
					0.5028864741325378,
					0.533276379108429,
					0.5647115111351013,
					1
				],
				"metallicFactor":0,
				"roughnessFactor":0.5
			}
		},
		{
			"doubleSided":true,
			"name":"dial_rim",
			"pbrMetallicRoughness":{
				"baseColorFactor":[
					0.7912979125976562,
					0.8069522380828857,
					0.8227857351303101,
					1
				],
				"metallicFactor":0,
				"roughnessFactor":0.5
			}
		},
		{
			"doubleSided":true,
			"name":"needle",
			"pbrMetallicRoughness":{
				"baseColorFactor":[
					0.8069522380828857,
					0.0802198201417923,
					0.0423114113509655,
					1
				],
				"metallicFactor":0,
				"roughnessFactor":0.5
			}
		},
		{
			"doubleSided":true,
			"name":"light",
			"pbrMetallicRoughness":{
				"baseColorFactor":[
					0.9646862745285034,
					0.9646862745285034,
					0.9301108717918396,
					1
				],
				"metallicFactor":0,
				"roughnessFactor":0.5
			}
		}
	],
	"meshes":[
		{
			"name":"espresso_machine",
			"primitives":[
				{
					"attributes":{
						"POSITION":0,
						"NORMAL":1
					},
					"indices":2,
					"material":0
				},
				{
					"attributes":{
						"POSITION":3,
						"NORMAL":4
					},
					"indices":5,
					"material":1
				},
				{
					"attributes":{
						"POSITION":6,
						"NORMAL":7
					},
					"indices":8,
					"material":2
				},
				{
					"attributes":{
						"POSITION":9,
						"NORMAL":10
					},
					"indices":11,
					"material":3
				},
				{
					"attributes":{
						"POSITION":12,
						"NORMAL":13
					},
					"indices":14,
					"material":4
				},
				{
					"attributes":{
						"POSITION":15,
						"NORMAL":16
					},
					"indices":17,
					"material":5
				},
				{
					"attributes":{
						"POSITION":18,
						"NORMAL":19
					},
					"indices":20,
					"material":6
				},
				{
					"attributes":{
						"POSITION":21,
						"NORMAL":22
					},
					"indices":23,
					"material":7
				},
				{
					"attributes":{
						"POSITION":24,
						"NORMAL":25
					},
					"indices":26,
					"material":8
				},
				{
					"attributes":{
						"POSITION":27,
						"NORMAL":28
					},
					"indices":29,
					"material":9
				}
			]
		}
	],
	"accessors":[
		{
			"bufferView":0,
			"componentType":5126,
			"count":370,
			"max":[
				0.5649999976158142,
				1.118399977684021,
				0.445000022649765
			],
			"min":[
				-0.5649999976158142,
				0.07000000774860382,
				-0.4050000011920929
			],
			"type":"VEC3"
		},
		{
			"bufferView":1,
			"componentType":5126,
			"count":370,
			"type":"VEC3"
		},
		{
			"bufferView":2,
			"componentType":5123,
			"count":1908,
			"type":"SCALAR"
		},
		{
			"bufferView":3,
			"componentType":5126,
			"count":723,
			"max":[
				0.5929999947547913,
				0.9869999885559082,
				0.44999998807907104
			],
			"min":[
				-0.5450000166893005,
				0.17499998211860657,
				0.07000000774860382
			],
			"type":"VEC3"
		},
		{
			"bufferView":4,
			"componentType":5126,
			"count":723,
			"type":"VEC3"
		},
		{
			"bufferView":5,
			"componentType":5123,
			"count":3252,
			"type":"SCALAR"
		},
		{
			"bufferView":6,
			"componentType":5126,
			"count":792,
			"max":[
				0.5,
				1.1714000701904297,
				0.3790000081062317
			],
			"min":[
				-0.5,
				0.35714998841285706,
				-0.3500000238418579
			],
			"type":"VEC3"
		},
		{
			"bufferView":7,
			"componentType":5126,
			"count":792,
			"type":"VEC3"
		},
		{
			"bufferView":8,
			"componentType":5123,
			"count":2592,
			"type":"SCALAR"
		},
		{
			"bufferView":9,
			"componentType":5126,
			"count":1546,
			"max":[
				0.6430000066757202,
				1.1664000749588013,
				0.5479999780654907
			],
			"min":[
				-0.5350000262260437,
				0,
				-0.3799999952316284
			],
			"type":"VEC3"
		},
		{
			"bufferView":10,
			"componentType":5126,
			"count":1546,
			"type":"VEC3"
		},
		{
			"bufferView":11,
			"componentType":5123,
			"count":6000,
			"type":"SCALAR"
		},
		{
			"bufferView":12,
			"componentType":5126,
			"count":480,
			"max":[
				0.5789999961853027,
				0.9437499642372131,
				0.36000001430511475
			],
			"min":[
				-0.4779999852180481,
				0.17500001192092896,
				-0.23600000143051147
			],
			"type":"VEC3"
		},
		{
			"bufferView":13,
			"componentType":5126,
			"count":480,
			"type":"VEC3"
		},
		{
			"bufferView":14,
			"componentType":5123,
			"count":1440,
			"type":"SCALAR"
		},
		{
			"bufferView":15,
			"componentType":5126,
			"count":2220,
			"max":[
				0.4578990936279297,
				1.3024075031280518,
				0.25
			],
			"min":[
				-0.4000000059604645,
				1.1713999509811401,
				-0.27000001072883606
			],
			"type":"VEC3"
		},
		{
			"bufferView":16,
			"componentType":5126,
			"count":2220,
			"type":"VEC3"
		},
		{
			"bufferView":17,
			"componentType":5123,
			"count":7128,
			"type":"SCALAR"
		},
		{
			"bufferView":18,
			"componentType":5126,
			"count":144,
			"max":[
				0.33843499422073364,
				0.9407399892807007,
				0.4000000059604645
			],
			"min":[
				-0.33843499422073364,
				0.8207399845123291,
				0.3959999978542328
			],
			"type":"VEC3"
		},
		{
			"bufferView":19,
			"componentType":5126,
			"count":144,
			"type":"VEC3"
		},
		{
			"bufferView":20,
			"componentType":5123,
			"count":432,
			"type":"SCALAR"
		},
		{
			"bufferView":21,
			"componentType":5126,
			"count":432,
			"max":[
				0.3804349899291992,
				0.9827399849891663,
				0.3960000276565552
			],
			"min":[
				-0.3804349899291992,
				0.7787399888038635,
				0.36000001430511475
			],
			"type":"VEC3"
		},
		{
			"bufferView":22,
			"componentType":5126,
			"count":432,
			"type":"VEC3"
		},
		{
			"bufferView":23,
			"componentType":5123,
			"count":1728,
			"type":"SCALAR"
		},
		{
			"bufferView":24,
			"componentType":5126,
			"count":48,
			"max":[
				0.28343498706817627,
				0.9217399954795837,
				0.43199998140335083
			],
			"min":[
				-0.28343498706817627,
				0.8997400403022766,
				0.4259999990463257
			],
			"type":"VEC3"
		},
		{
			"bufferView":25,
			"componentType":5126,
			"count":48,
			"type":"VEC3"
		},
		{
			"bufferView":26,
			"componentType":5123,
			"count":72,
			"type":"SCALAR"
		},
		{
			"bufferView":27,
			"componentType":5126,
			"count":86,
			"max":[
				0.00851499941200018,
				0.9160500168800354,
				0.39100000262260437
			],
			"min":[
				-0.029484998434782028,
				0.8780500292778015,
				0.3530000150203705
			],
			"type":"VEC3"
		},
		{
			"bufferView":28,
			"componentType":5126,
			"count":86,
			"type":"VEC3"
		},
		{
			"bufferView":29,
			"componentType":5123,
			"count":504,
			"type":"SCALAR"
		}
	],
	"bufferViews":[
		{
			"buffer":0,
			"byteLength":4440,
			"byteOffset":0,
			"target":34962
		},
		{
			"buffer":0,
			"byteLength":4440,
			"byteOffset":4440,
			"target":34962
		},
		{
			"buffer":0,
			"byteLength":3816,
			"byteOffset":8880,
			"target":34963
		},
		{
			"buffer":0,
			"byteLength":8676,
			"byteOffset":12696,
			"target":34962
		},
		{
			"buffer":0,
			"byteLength":8676,
			"byteOffset":21372,
			"target":34962
		},
		{
			"buffer":0,
			"byteLength":6504,
			"byteOffset":30048,
			"target":34963
		},
		{
			"buffer":0,
			"byteLength":9504,
			"byteOffset":36552,
			"target":34962
		},
		{
			"buffer":0,
			"byteLength":9504,
			"byteOffset":46056,
			"target":34962
		},
		{
			"buffer":0,
			"byteLength":5184,
			"byteOffset":55560,
			"target":34963
		},
		{
			"buffer":0,
			"byteLength":18552,
			"byteOffset":60744,
			"target":34962
		},
		{
			"buffer":0,
			"byteLength":18552,
			"byteOffset":79296,
			"target":34962
		},
		{
			"buffer":0,
			"byteLength":12000,
			"byteOffset":97848,
			"target":34963
		},
		{
			"buffer":0,
			"byteLength":5760,
			"byteOffset":109848,
			"target":34962
		},
		{
			"buffer":0,
			"byteLength":5760,
			"byteOffset":115608,
			"target":34962
		},
		{
			"buffer":0,
			"byteLength":2880,
			"byteOffset":121368,
			"target":34963
		},
		{
			"buffer":0,
			"byteLength":26640,
			"byteOffset":124248,
			"target":34962
		},
		{
			"buffer":0,
			"byteLength":26640,
			"byteOffset":150888,
			"target":34962
		},
		{
			"buffer":0,
			"byteLength":14256,
			"byteOffset":177528,
			"target":34963
		},
		{
			"buffer":0,
			"byteLength":1728,
			"byteOffset":191784,
			"target":34962
		},
		{
			"buffer":0,
			"byteLength":1728,
			"byteOffset":193512,
			"target":34962
		},
		{
			"buffer":0,
			"byteLength":864,
			"byteOffset":195240,
			"target":34963
		},
		{
			"buffer":0,
			"byteLength":5184,
			"byteOffset":196104,
			"target":34962
		},
		{
			"buffer":0,
			"byteLength":5184,
			"byteOffset":201288,
			"target":34962
		},
		{
			"buffer":0,
			"byteLength":3456,
			"byteOffset":206472,
			"target":34963
		},
		{
			"buffer":0,
			"byteLength":576,
			"byteOffset":209928,
			"target":34962
		},
		{
			"buffer":0,
			"byteLength":576,
			"byteOffset":210504,
			"target":34962
		},
		{
			"buffer":0,
			"byteLength":144,
			"byteOffset":211080,
			"target":34963
		},
		{
			"buffer":0,
			"byteLength":1032,
			"byteOffset":211224,
			"target":34962
		},
		{
			"buffer":0,
			"byteLength":1032,
			"byteOffset":212256,
			"target":34962
		},
		{
			"buffer":0,
			"byteLength":1008,
			"byteOffset":213288,
			"target":34963
		}
	],
	"buffers":[
		{
			"byteLength":214296,
			"uri":"espresso_machine_silver.bin"
		}
	]
}
