{"asset":{"version":"2.0","generator":"tools/build_prop.py"},"scene":0,"scenes":[{"nodes":[0]}],"nodes":[{"name":"floor_lamp","mesh":0}],"meshes":[{"name":"floor_lamp","primitives":[{"attributes":{"POSITION":0,"NORMAL":1,"TEXCOORD_0":2},"indices":3,"material":0}]}],"materials":[{"name":"floor_lamp","pbrMetallicRoughness":{"baseColorTexture":{"index":0},"metallicFactor":0,"roughnessFactor":0.55}}],"textures":[{"source":0,"sampler":0}],"samplers":[{"magFilter":9729,"minFilter":9987}],"images":[{"uri":"floor_lamp_texture.jpg"}],"buffers":[{"uri":"floor_lamp.bin","byteLength":150828}],"bufferViews":[{"buffer":0,"byteOffset":0,"byteLength":49788,"target":34962},{"buffer":0,"byteOffset":49788,"byteLength":49788,"target":34962},{"buffer":0,"byteOffset":99576,"byteLength":33192,"target":34962},{"buffer":0,"byteOffset":132768,"byteLength":18060,"target":34963}],"accessors":[{"bufferView":0,"componentType":5126,"count":4149,"type":"VEC3","min":[-0.44934678077697754,0.0,-0.44999998807907104],"max":[0.44934678077697754,2.5598905086517334,0.44999998807907104]},{"bufferView":1,"componentType":5126,"count":4149,"type":"VEC3"},{"bufferView":2,"componentType":5126,"count":4149,"type":"VEC2"},{"bufferView":3,"componentType":5123,"count":9030,"type":"SCALAR"}]}