{"asset":{"version":"2.0","generator":"tools/build_prop.py"},"scene":0,"scenes":[{"nodes":[0]}],"nodes":[{"name":"flower_box","mesh":0}],"meshes":[{"name":"flower_box","primitives":[{"attributes":{"POSITION":0,"NORMAL":1,"TEXCOORD_0":2},"indices":3,"material":0}]}],"materials":[{"name":"flower_box","pbrMetallicRoughness":{"baseColorTexture":{"index":0},"metallicFactor":0,"roughnessFactor":0.55}}],"textures":[{"source":0,"sampler":0}],"samplers":[{"magFilter":9729,"minFilter":9987}],"images":[{"uri":"flower_box_texture.jpg"}],"buffers":[{"uri":"flower_box.bin","byteLength":351456}],"bufferViews":[{"buffer":0,"byteOffset":0,"byteLength":120564,"target":34962},{"buffer":0,"byteOffset":120564,"byteLength":120564,"target":34962},{"buffer":0,"byteOffset":241128,"byteLength":80376,"target":34962},{"buffer":0,"byteOffset":321504,"byteLength":29952,"target":34963}],"accessors":[{"bufferView":0,"componentType":5126,"count":10047,"type":"VEC3","min":[-0.800000011920929,0.0,-0.7934606075286865],"max":[0.800000011920929,1.174898386001587,0.7934606075286865]},{"bufferView":1,"componentType":5126,"count":10047,"type":"VEC3"},{"bufferView":2,"componentType":5126,"count":10047,"type":"VEC2"},{"bufferView":3,"componentType":5123,"count":14976,"type":"SCALAR"}]}