{"asset":{"version":"2.0","generator":"tools/build_prop.py"},"scene":0,"scenes":[{"nodes":[0]}],"nodes":[{"name":"glass_iced","mesh":0}],"meshes":[{"name":"glass_iced","primitives":[{"attributes":{"POSITION":0,"NORMAL":1,"TEXCOORD_0":2},"indices":3,"material":0}]}],"materials":[{"name":"glass_iced","pbrMetallicRoughness":{"baseColorTexture":{"index":0},"metallicFactor":0,"roughnessFactor":0.55}}],"textures":[{"source":0,"sampler":0}],"samplers":[{"magFilter":9729,"minFilter":9987}],"images":[{"uri":"glass_iced_texture.jpg"}],"buffers":[{"uri":"glass_iced.bin","byteLength":122836}],"bufferViews":[{"buffer":0,"byteOffset":0,"byteLength":39408,"target":34962},{"buffer":0,"byteOffset":39408,"byteLength":39408,"target":34962},{"buffer":0,"byteOffset":78816,"byteLength":26272,"target":34962},{"buffer":0,"byteOffset":105088,"byteLength":17748,"target":34963}],"accessors":[{"bufferView":0,"componentType":5126,"count":3284,"type":"VEC3","min":[-0.2586238384246826,0.0,-0.25847291946411133],"max":[0.2586238384246826,1.100000023841858,0.25847291946411133]},{"bufferView":1,"componentType":5126,"count":3284,"type":"VEC3"},{"bufferView":2,"componentType":5126,"count":3284,"type":"VEC2"},{"bufferView":3,"componentType":5123,"count":8874,"type":"SCALAR"}]}