{"asset":{"version":"2.0","generator":"tools/build_prop.py"},"scene":0,"scenes":[{"nodes":[0]}],"nodes":[{"name":"grinder","mesh":0}],"meshes":[{"name":"grinder","primitives":[{"attributes":{"POSITION":0,"NORMAL":1,"TEXCOORD_0":2},"indices":3,"material":0}]}],"materials":[{"name":"grinder","pbrMetallicRoughness":{"baseColorTexture":{"index":0},"metallicFactor":0,"roughnessFactor":0.55}}],"textures":[{"source":0,"sampler":0}],"samplers":[{"magFilter":9729,"minFilter":9987}],"images":[{"uri":"grinder_texture.jpg"}],"buffers":[{"uri":"grinder.bin","byteLength":240752}],"bufferViews":[{"buffer":0,"byteOffset":0,"byteLength":81264,"target":34962},{"buffer":0,"byteOffset":81264,"byteLength":81264,"target":34962},{"buffer":0,"byteOffset":162528,"byteLength":54176,"target":34962},{"buffer":0,"byteOffset":216704,"byteLength":24048,"target":34963}],"accessors":[{"bufferView":0,"componentType":5126,"count":6772,"type":"VEC3","min":[-0.17050649225711823,0.0,-0.18859754502773285],"max":[0.17050649225711823,0.8500000238418579,0.18859754502773285]},{"bufferView":1,"componentType":5126,"count":6772,"type":"VEC3"},{"bufferView":2,"componentType":5126,"count":6772,"type":"VEC2"},{"bufferView":3,"componentType":5123,"count":12024,"type":"SCALAR"}]}