{"asset":{"version":"2.0","generator":"tools/build_prop.py"},"scene":0,"scenes":[{"nodes":[0]}],"nodes":[{"name":"hanging_plant","mesh":0}],"meshes":[{"name":"hanging_plant","primitives":[{"attributes":{"POSITION":0,"NORMAL":1,"TEXCOORD_0":2},"indices":3,"material":0}]}],"materials":[{"name":"hanging_plant","pbrMetallicRoughness":{"baseColorTexture":{"index":0},"metallicFactor":0,"roughnessFactor":0.55}}],"textures":[{"source":0,"sampler":0}],"samplers":[{"magFilter":9729,"minFilter":9987}],"images":[{"uri":"hanging_plant_texture.jpg"}],"buffers":[{"uri":"hanging_plant.bin","byteLength":379090}],"bufferViews":[{"buffer":0,"byteOffset":0,"byteLength":130416,"target":34962},{"buffer":0,"byteOffset":130416,"byteLength":130416,"target":34962},{"buffer":0,"byteOffset":260832,"byteLength":86944,"target":34962},{"buffer":0,"byteOffset":347776,"byteLength":31314,"target":34963}],"accessors":[{"bufferView":0,"componentType":5126,"count":10868,"type":"VEC3","min":[-0.3476559817790985,0.0,-0.17042697966098785],"max":[0.3476559817790985,1.8999998569488525,0.17042697966098785]},{"bufferView":1,"componentType":5126,"count":10868,"type":"VEC3"},{"bufferView":2,"componentType":5126,"count":10868,"type":"VEC2"},{"bufferView":3,"componentType":5123,"count":15657,"type":"SCALAR"}]}