{"asset":{"version":"2.0","generator":"tools/build_prop.py"},"scene":0,"scenes":[{"nodes":[0]}],"nodes":[{"name":"lemon","mesh":0}],"meshes":[{"name":"lemon","primitives":[{"attributes":{"POSITION":0,"NORMAL":1,"TEXCOORD_0":2},"indices":3,"material":0}]}],"materials":[{"name":"lemon","pbrMetallicRoughness":{"baseColorTexture":{"index":0},"metallicFactor":0,"roughnessFactor":0.55}}],"textures":[{"source":0,"sampler":0}],"samplers":[{"magFilter":9729,"minFilter":9987}],"images":[{"uri":"lemon_texture.jpg"}],"buffers":[{"uri":"lemon.bin","byteLength":87476}],"bufferViews":[{"buffer":0,"byteOffset":0,"byteLength":28128,"target":34962},{"buffer":0,"byteOffset":28128,"byteLength":28128,"target":34962},{"buffer":0,"byteOffset":56256,"byteLength":18752,"target":34962},{"buffer":0,"byteOffset":75008,"byteLength":12468,"target":34963}],"accessors":[{"bufferView":0,"componentType":5126,"count":2344,"type":"VEC3","min":[-0.28330719470977783,0.0,-0.2338407188653946],"max":[0.28330719470977783,0.800000011920929,0.2338407188653946]},{"bufferView":1,"componentType":5126,"count":2344,"type":"VEC3"},{"bufferView":2,"componentType":5126,"count":2344,"type":"VEC2"},{"bufferView":3,"componentType":5123,"count":6234,"type":"SCALAR"}]}