{
	"asset":{
		"generator":"Khronos glTF Blender I/O v5.2.40",
		"version":"2.0"
	},
	"scene":0,
	"scenes":[
		{
			"name":"Scene",
			"nodes":[
				0
			]
		}
	],
	"nodes":[
		{
			"mesh":0,
			"name":"lever_machine"
		}
	],
	"materials":[
		{
			"doubleSided":true,
			"name":"copper",
			"pbrMetallicRoughness":{
				"baseColorFactor":[
					0.577580451965332,
					0.17464740574359894,
					0.04970656707882881,
					1
				],
				"metallicFactor":0,
				"roughnessFactor":0.5
			}
		},
		{
			"doubleSided":true,
			"name":"brass",
			"pbrMetallicRoughness":{
				"baseColorFactor":[
					0.7681511640548706,
					0.46207699179649353,
					0.08650045841932297,
					1
				],
				"metallicFactor":0,
				"roughnessFactor":0.5
			}
		},
		{
			"doubleSided":true,
			"name":"enamel",
			"pbrMetallicRoughness":{
				"baseColorFactor":[
					0.8962693810462952,
					0.8069522380828857,
					0.6444796919822693,
					1
				],
				"metallicFactor":0,
				"roughnessFactor":0.5
			}
		},
		{
			"doubleSided":true,
			"name":"dark_metal",
			"pbrMetallicRoughness":{
				"baseColorFactor":[
					0.04373503103852272,
					0.03560131415724754,
					0.03189603239297867,
					1
				],
				"metallicFactor":0,
				"roughnessFactor":0.5
			}
		},
		{
			"doubleSided":true,
			"name":"wood",
			"pbrMetallicRoughness":{
				"baseColorFactor":[
					0.15592646598815918,
					0.04970656707882881,
					0.017641954123973846,
					1
				],
				"metallicFactor":0,
				"roughnessFactor":0.5
			}
		},
		{
			"doubleSided":true,
			"name":"gauge_face",
			"pbrMetallicRoughness":{
				"baseColorFactor":[
					1,
					0.9559733271598816,
					0.8713670969009399,
					1
				],
				"metallicFactor":0,
				"roughnessFactor":0.5
			}
		},
		{
			"doubleSided":true,
			"name":"needle",
			"pbrMetallicRoughness":{
				"baseColorFactor":[
					0.577580451965332,
					0.061246052384376526,
					0.0423114113509655,
					1
				],
				"metallicFactor":0,
				"roughnessFactor":0.5
			}
		},
		{
			"doubleSided":true,
			"name":"glass",
			"pbrMetallicRoughness":{
				"baseColorFactor":[
					0.520995557308197,
					0.7454041838645935,
					0.8227857351303101,
					1
				],
				"metallicFactor":0,
				"roughnessFactor":0.5
			}
		},
		{
			"doubleSided":true,
			"name":"badge",
			"pbrMetallicRoughness":{
				"baseColorFactor":[
					0.8879231214523315,
					0.5394794940948486,
					0.02955683507025242,
					1
				],
				"metallicFactor":0,
				"roughnessFactor":0.5
			}
		}
	],
	"meshes":[
		{
			"name":"lever_machine",
			"primitives":[
				{
					"attributes":{
						"POSITION":0,
						"NORMAL":1
					},
					"indices":2,
					"material":0
				},
				{
					"attributes":{
						"POSITION":3,
						"NORMAL":4
					},
					"indices":5,
					"material":1
				},
				{
					"attributes":{
						"POSITION":6,
						"NORMAL":7
					},
					"indices":8,
					"material":2
				},
				{
					"attributes":{
						"POSITION":9,
						"NORMAL":10
					},
					"indices":11,
					"material":3
				},
				{
					"attributes":{
						"POSITION":12,
						"NORMAL":13
					},
					"indices":14,
					"material":4
				},
				{
					"attributes":{
						"POSITION":15,
						"NORMAL":16
					},
					"indices":17,
					"material":5
				},
				{
					"attributes":{
						"POSITION":18,
						"NORMAL":19
					},
					"indices":20,
					"material":6
				},
				{
					"attributes":{
						"POSITION":21,
						"NORMAL":22
					},
					"indices":23,
					"material":7
				},
				{
					"attributes":{
						"POSITION":24,
						"NORMAL":25
					},
					"indices":26,
					"material":8
				}
			]
		}
	],
	"accessors":[
		{
			"bufferView":0,
			"componentType":5126,
			"count":216,
			"max":[
				0.46000000834465027,
				0.9700000286102295,
				0.41999998688697815
			],
			"min":[
				-0.46000000834465027,
				0.06000000983476639,
				-0.41999998688697815
			],
			"type":"VEC3"
		},
		{
			"bufferView":1,
			"componentType":5126,
			"count":216,
			"type":"VEC3"
		},
		{
			"bufferView":2,
			"componentType":5123,
			"count":1092,
			"type":"SCALAR"
		},
		{
			"bufferView":3,
			"componentType":5126,
			"count":7802,
			"max":[
				0.4335818886756897,
				1.3300000429153442,
				0.4000000059604645
			],
			"min":[
				-0.42000001668930054,
				0,
				-0.41472744941711426
			],
			"type":"VEC3"
		},
		{
			"bufferView":4,
			"componentType":5126,
			"count":7802,
			"type":"VEC3"
		},
		{
			"bufferView":5,
			"componentType":5123,
			"count":23520,
			"type":"SCALAR"
		},
		{
			"bufferView":6,
			"componentType":5126,
			"count":842,
			"max":[
				0.4749999940395355,
				1.3949999809265137,
				0.4350000023841858
			],
			"min":[
				-0.4749999940395355,
				0.10000000894069672,
				-0.3400000035762787
			],
			"type":"VEC3"
		},
		{
			"bufferView":7,
			"componentType":5126,
			"count":842,
			"type":"VEC3"
		},
		{
			"bufferView":8,
			"componentType":5123,
			"count":2436,
			"type":"SCALAR"
		},
		{
			"bufferView":9,
			"componentType":5126,
			"count":889,
			"max":[
				0.4359999895095825,
				0.8629999756813049,
				0.4099999964237213
			],
			"min":[
				-0.4000000059604645,
				0.2919999957084656,
				-0.010999999940395355
			],
			"type":"VEC3"
		},
		{
			"bufferView":10,
			"componentType":5126,
			"count":889,
			"type":"VEC3"
		},
		{
			"bufferView":11,
			"componentType":5123,
			"count":2196,
			"type":"SCALAR"
		},
		{
			"bufferView":12,
			"componentType":5126,
			"count":683,
			"max":[
				0.20484668016433716,
				1.3849999904632568,
				0.5199999809265137
			],
			"min":[
				-0.4742000102996826,
				0.33500000834465027,
				-0.0989999994635582
			],
			"type":"VEC3"
		},
		{
			"bufferView":13,
			"componentType":5126,
			"count":683,
			"type":"VEC3"
		},
		{
			"bufferView":14,
			"componentType":5123,
			"count":3492,
			"type":"SCALAR"
		},
		{
			"bufferView":15,
			"componentType":5126,
			"count":33,
			"max":[
				0.07999999821186066,
				0.8700000047683716,
				0.3059999942779541
			],
			"min":[
				-0.07999999821186066,
				0.7100000381469727,
				0.3019999861717224
			],
			"type":"VEC3"
		},
		{
			"bufferView":16,
			"componentType":5126,
			"count":33,
			"type":"VEC3"
		},
		{
			"bufferView":17,
			"componentType":5123,
			"count":96,
			"type":"SCALAR"
		},
		{
			"bufferView":18,
			"componentType":5126,
			"count":24,
			"max":[
				0.00571410171687603,
				0.8443945646286011,
				0.3109999895095825
			],
			"min":[
				-0.03371410816907883,
				0.7841029167175293,
				0.30699998140335083
			],
			"type":"VEC3"
		},
		{
			"bufferView":19,
			"componentType":5126,
			"count":24,
			"type":"VEC3"
		},
		{
			"bufferView":20,
			"componentType":5123,
			"count":36,
			"type":"SCALAR"
		},
		{
			"bufferView":21,
			"componentType":5126,
			"count":20,
			"max":[
				-0.10399999469518661,
				0.8399999737739563,
				-0.37478306889533997
			],
			"min":[
				-0.13599999248981476,
				0.41999998688697815,
				-0.40521690249443054
			],
			"type":"VEC3"
		},
		{
			"bufferView":22,
			"componentType":5126,
			"count":20,
			"type":"VEC3"
		},
		{
			"bufferView":23,
			"componentType":5123,
			"count":60,
			"type":"SCALAR"
		},
		{
			"bufferView":24,
			"componentType":5126,
			"count":128,
			"max":[
				0.08500000089406967,
				0.1925000101327896,
				0.4479999840259552
			],
			"min":[
				-0.08500000089406967,
				0.13750000298023224,
				0.4320000112056732
			],
			"type":"VEC3"
		},
		{
			"bufferView":25,
			"componentType":5126,
			"count":128,
			"type":"VEC3"
		},
		{
			"bufferView":26,
			"componentType":5123,
			"count":324,
			"type":"SCALAR"
		}
	],
	"bufferViews":[
		{
			"buffer":0,
			"byteLength":2592,
			"byteOffset":0,
			"target":34962
		},
		{
			"buffer":0,
			"byteLength":2592,
			"byteOffset":2592,
			"target":34962
		},
		{
			"buffer":0,
			"byteLength":2184,
			"byteOffset":5184,
			"target":34963
		},
		{
			"buffer":0,
			"byteLength":93624,
			"byteOffset":7368,
			"target":34962
		},
		{
			"buffer":0,
			"byteLength":93624,
			"byteOffset":100992,
			"target":34962
		},
		{
			"buffer":0,
			"byteLength":47040,
			"byteOffset":194616,
			"target":34963
		},
		{
			"buffer":0,
			"byteLength":10104,
			"byteOffset":241656,
			"target":34962
		},
		{
			"buffer":0,
			"byteLength":10104,
			"byteOffset":251760,
			"target":34962
		},
		{
			"buffer":0,
			"byteLength":4872,
			"byteOffset":261864,
			"target":34963
		},
		{
			"buffer":0,
			"byteLength":10668,
			"byteOffset":266736,
			"target":34962
		},
		{
			"buffer":0,
			"byteLength":10668,
			"byteOffset":277404,
			"target":34962
		},
		{
			"buffer":0,
			"byteLength":4392,
			"byteOffset":288072,
			"target":34963
		},
		{
			"buffer":0,
			"byteLength":8196,
			"byteOffset":292464,
			"target":34962
		},
		{
			"buffer":0,
			"byteLength":8196,
			"byteOffset":300660,
			"target":34962
		},
		{
			"buffer":0,
			"byteLength":6984,
			"byteOffset":308856,
			"target":34963
		},
		{
			"buffer":0,
			"byteLength":396,
			"byteOffset":315840,
			"target":34962
		},
		{
			"buffer":0,
			"byteLength":396,
			"byteOffset":316236,
			"target":34962
		},
		{
			"buffer":0,
			"byteLength":192,
			"byteOffset":316632,
			"target":34963
		},
		{
			"buffer":0,
			"byteLength":288,
			"byteOffset":316824,
			"target":34962
		},
		{
			"buffer":0,
			"byteLength":288,
			"byteOffset":317112,
			"target":34962
		},
		{
			"buffer":0,
			"byteLength":72,
			"byteOffset":317400,
			"target":34963
		},
		{
			"buffer":0,
			"byteLength":240,
			"byteOffset":317472,
			"target":34962
		},
		{
			"buffer":0,
			"byteLength":240,
			"byteOffset":317712,
			"target":34962
		},
		{
			"buffer":0,
			"byteLength":120,
			"byteOffset":317952,
			"target":34963
		},
		{
			"buffer":0,
			"byteLength":1536,
			"byteOffset":318072,
			"target":34962
		},
		{
			"buffer":0,
			"byteLength":1536,
			"byteOffset":319608,
			"target":34962
		},
		{
			"buffer":0,
			"byteLength":648,
			"byteOffset":321144,
			"target":34963
		}
	],
	"buffers":[
		{
			"byteLength":321792,
			"uri":"lever_machine.bin"
		}
	]
}
