{"asset":{"version":"2.0","generator":"tools/build_prop.py"},"scene":0,"scenes":[{"nodes":[0]}],"nodes":[{"name":"mint","mesh":0}],"meshes":[{"name":"mint","primitives":[{"attributes":{"POSITION":0,"NORMAL":1,"TEXCOORD_0":2},"indices":3,"material":0}]}],"materials":[{"name":"mint","pbrMetallicRoughness":{"baseColorTexture":{"index":0},"metallicFactor":0,"roughnessFactor":0.55}}],"textures":[{"source":0,"sampler":0}],"samplers":[{"magFilter":9729,"minFilter":9987}],"images":[{"uri":"mint_texture.jpg"}],"buffers":[{"uri":"mint.bin","byteLength":158924}],"bufferViews":[{"buffer":0,"byteOffset":0,"byteLength":53724,"target":34962},{"buffer":0,"byteOffset":53724,"byteLength":53724,"target":34962},{"buffer":0,"byteOffset":107448,"byteLength":35816,"target":34962},{"buffer":0,"byteOffset":143264,"byteLength":15660,"target":34963}],"accessors":[{"bufferView":0,"componentType":5126,"count":4477,"type":"VEC3","min":[-0.3842344284057617,0.0,-0.18943554162979126],"max":[0.3842344284057617,0.8999999761581421,0.18943554162979126]},{"bufferView":1,"componentType":5126,"count":4477,"type":"VEC3"},{"bufferView":2,"componentType":5126,"count":4477,"type":"VEC2"},{"bufferView":3,"componentType":5123,"count":7830,"type":"SCALAR"}]}