{"asset":{"version":"2.0","generator":"tools/build_prop.py"},"scene":0,"scenes":[{"nodes":[0]}],"nodes":[{"name":"monstera","mesh":0}],"meshes":[{"name":"monstera","primitives":[{"attributes":{"POSITION":0,"NORMAL":1,"TEXCOORD_0":2},"indices":3,"material":0}]}],"materials":[{"name":"monstera","pbrMetallicRoughness":{"baseColorTexture":{"index":0},"metallicFactor":0,"roughnessFactor":0.55}}],"textures":[{"source":0,"sampler":0}],"samplers":[{"magFilter":9729,"minFilter":9987}],"images":[{"uri":"monstera_texture.jpg"}],"buffers":[{"uri":"monstera.bin","byteLength":316260}],"bufferViews":[{"buffer":0,"byteOffset":0,"byteLength":104652,"target":34962},{"buffer":0,"byteOffset":104652,"byteLength":104652,"target":34962},{"buffer":0,"byteOffset":209304,"byteLength":69768,"target":34962},{"buffer":0,"byteOffset":279072,"byteLength":37188,"target":34963}],"accessors":[{"bufferView":0,"componentType":5126,"count":8721,"type":"VEC3","min":[-0.6499999165534973,0.0,-0.46428346633911133],"max":[0.6499999165534973,1.9861935377120972,0.46428346633911133]},{"bufferView":1,"componentType":5126,"count":8721,"type":"VEC3"},{"bufferView":2,"componentType":5126,"count":8721,"type":"VEC2"},{"bufferView":3,"componentType":5123,"count":18594,"type":"SCALAR"}]}