{"asset":{"version":"2.0","generator":"tools/build_prop.py"},"scene":0,"scenes":[{"nodes":[0]}],"nodes":[{"name":"muffin","mesh":0}],"meshes":[{"name":"muffin","primitives":[{"attributes":{"POSITION":0,"NORMAL":1,"TEXCOORD_0":2},"indices":3,"material":0}]}],"materials":[{"name":"muffin","pbrMetallicRoughness":{"baseColorTexture":{"index":0},"metallicFactor":0,"roughnessFactor":0.55}}],"textures":[{"source":0,"sampler":0}],"samplers":[{"magFilter":9729,"minFilter":9987}],"images":[{"uri":"muffin_texture.jpg"}],"buffers":[{"uri":"muffin.bin","byteLength":207138}],"bufferViews":[{"buffer":0,"byteOffset":0,"byteLength":70632,"target":34962},{"buffer":0,"byteOffset":70632,"byteLength":70632,"target":34962},{"buffer":0,"byteOffset":141264,"byteLength":47088,"target":34962},{"buffer":0,"byteOffset":188352,"byteLength":18786,"target":34963}],"accessors":[{"bufferView":0,"componentType":5126,"count":5886,"type":"VEC3","min":[-0.4880985617637634,0.0,-0.4870383143424988],"max":[0.4880985617637634,0.75,0.4870383143424988]},{"bufferView":1,"componentType":5126,"count":5886,"type":"VEC3"},{"bufferView":2,"componentType":5126,"count":5886,"type":"VEC2"},{"bufferView":3,"componentType":5123,"count":9393,"type":"SCALAR"}]}