{"asset":{"version":"2.0","generator":"tools/build_prop.py"},"scene":0,"scenes":[{"nodes":[0]}],"nodes":[{"name":"mug_cocoa","mesh":0}],"meshes":[{"name":"mug_cocoa","primitives":[{"attributes":{"POSITION":0,"NORMAL":1,"TEXCOORD_0":2},"indices":3,"material":0}]}],"materials":[{"name":"mug_cocoa","pbrMetallicRoughness":{"baseColorTexture":{"index":0},"metallicFactor":0,"roughnessFactor":0.55}}],"textures":[{"source":0,"sampler":0}],"samplers":[{"magFilter":9729,"minFilter":9987}],"images":[{"uri":"mug_cocoa_texture.jpg"}],"buffers":[{"uri":"mug_cocoa.bin","byteLength":181050}],"bufferViews":[{"buffer":0,"byteOffset":0,"byteLength":60948,"target":34962},{"buffer":0,"byteOffset":60948,"byteLength":60948,"target":34962},{"buffer":0,"byteOffset":121896,"byteLength":40632,"target":34962},{"buffer":0,"byteOffset":162528,"byteLength":18522,"target":34963}],"accessors":[{"bufferView":0,"componentType":5126,"count":5079,"type":"VEC3","min":[-0.44999998807907104,0.0,-0.3585488498210907],"max":[0.44999998807907104,0.7339839339256287,0.3585488498210907]},{"bufferView":1,"componentType":5126,"count":5079,"type":"VEC3"},{"bufferView":2,"componentType":5126,"count":5079,"type":"VEC2"},{"bufferView":3,"componentType":5123,"count":9261,"type":"SCALAR"}]}