{"asset":{"version":"2.0","generator":"tools/build_prop.py"},"scene":0,"scenes":[{"nodes":[0]}],"nodes":[{"name":"oven","mesh":0}],"meshes":[{"name":"oven","primitives":[{"attributes":{"POSITION":0,"NORMAL":1,"TEXCOORD_0":2},"indices":3,"material":0}]}],"materials":[{"name":"oven","pbrMetallicRoughness":{"baseColorTexture":{"index":0},"metallicFactor":0,"roughnessFactor":0.55}}],"textures":[{"source":0,"sampler":0}],"samplers":[{"magFilter":9729,"minFilter":9987}],"images":[{"uri":"oven_texture.jpg"}],"buffers":[{"uri":"oven.bin","byteLength":299112}],"bufferViews":[{"buffer":0,"byteOffset":0,"byteLength":98748,"target":34962},{"buffer":0,"byteOffset":98748,"byteLength":98748,"target":34962},{"buffer":0,"byteOffset":197496,"byteLength":65832,"target":34962},{"buffer":0,"byteOffset":263328,"byteLength":35784,"target":34963}],"accessors":[{"bufferView":0,"componentType":5126,"count":8229,"type":"VEC3","min":[-0.8999999761581421,0.0,-0.7344962358474731],"max":[0.8999999761581421,2.2322912216186523,0.7344962358474731]},{"bufferView":1,"componentType":5126,"count":8229,"type":"VEC3"},{"bufferView":2,"componentType":5126,"count":8229,"type":"VEC2"},{"bufferView":3,"componentType":5123,"count":17892,"type":"SCALAR"}]}