{"asset":{"version":"2.0","generator":"tools/build_prop.py"},"scene":0,"scenes":[{"nodes":[0]}],"nodes":[{"name":"pastry_case","mesh":0}],"meshes":[{"name":"pastry_case","primitives":[{"attributes":{"POSITION":0,"NORMAL":1,"TEXCOORD_0":2},"indices":3,"material":0}]}],"materials":[{"name":"pastry_case","pbrMetallicRoughness":{"baseColorTexture":{"index":0},"metallicFactor":0,"roughnessFactor":0.55}}],"textures":[{"source":0,"sampler":0}],"samplers":[{"magFilter":9729,"minFilter":9987}],"images":[{"uri":"pastry_case_texture.jpg"}],"buffers":[{"uri":"pastry_case.bin","byteLength":402098}],"bufferViews":[{"buffer":0,"byteOffset":0,"byteLength":132960,"target":34962},{"buffer":0,"byteOffset":132960,"byteLength":132960,"target":34962},{"buffer":0,"byteOffset":265920,"byteLength":88640,"target":34962},{"buffer":0,"byteOffset":354560,"byteLength":47538,"target":34963}],"accessors":[{"bufferView":0,"componentType":5126,"count":11080,"type":"VEC3","min":[-1.0,0.0,-0.5010370016098022],"max":[1.0,1.4939179420471191,0.5010370016098022]},{"bufferView":1,"componentType":5126,"count":11080,"type":"VEC3"},{"bufferView":2,"componentType":5126,"count":11080,"type":"VEC2"},{"bufferView":3,"componentType":5123,"count":23769,"type":"SCALAR"}]}