{"asset":{"version":"2.0","generator":"tools/build_prop.py"},"scene":0,"scenes":[{"nodes":[0]}],"nodes":[{"name":"pastry_case_empty","mesh":0}],"meshes":[{"name":"pastry_case_empty","primitives":[{"attributes":{"POSITION":0,"NORMAL":1,"TEXCOORD_0":2},"indices":3,"material":0}]}],"materials":[{"name":"pastry_case_empty","pbrMetallicRoughness":{"baseColorTexture":{"index":0},"metallicFactor":0,"roughnessFactor":0.55}}],"textures":[{"source":0,"sampler":0}],"samplers":[{"magFilter":9729,"minFilter":9987}],"images":[{"uri":"pastry_case_empty_texture.jpg"}],"buffers":[{"uri":"pastry_case_empty.bin","byteLength":261380}],"bufferViews":[{"buffer":0,"byteOffset":0,"byteLength":87672,"target":34962},{"buffer":0,"byteOffset":87672,"byteLength":87672,"target":34962},{"buffer":0,"byteOffset":175344,"byteLength":58448,"target":34962},{"buffer":0,"byteOffset":233792,"byteLength":27588,"target":34963}],"accessors":[{"bufferView":0,"componentType":5126,"count":7306,"type":"VEC3","min":[-0.949999988079071,0.0,-0.6698051691055298],"max":[0.949999988079071,1.9079084396362305,0.6698051691055298]},{"bufferView":1,"componentType":5126,"count":7306,"type":"VEC3"},{"bufferView":2,"componentType":5126,"count":7306,"type":"VEC2"},{"bufferView":3,"componentType":5123,"count":13794,"type":"SCALAR"}]}