{"asset":{"version":"2.0","generator":"tools/build_prop.py"},"scene":0,"scenes":[{"nodes":[0]}],"nodes":[{"name":"planter","mesh":0}],"meshes":[{"name":"planter","primitives":[{"attributes":{"POSITION":0,"NORMAL":1,"TEXCOORD_0":2},"indices":3,"material":0}]}],"materials":[{"name":"planter","pbrMetallicRoughness":{"baseColorTexture":{"index":0},"metallicFactor":0,"roughnessFactor":0.55}}],"textures":[{"source":0,"sampler":0}],"samplers":[{"magFilter":9729,"minFilter":9987}],"images":[{"uri":"planter_texture.jpg"}],"buffers":[{"uri":"planter.bin","byteLength":514168}],"bufferViews":[{"buffer":0,"byteOffset":0,"byteLength":177180,"target":34962},{"buffer":0,"byteOffset":177180,"byteLength":177180,"target":34962},{"buffer":0,"byteOffset":354360,"byteLength":118120,"target":34962},{"buffer":0,"byteOffset":472480,"byteLength":41688,"target":34963}],"accessors":[{"bufferView":0,"componentType":5126,"count":14765,"type":"VEC3","min":[-1.75,0.0,-0.4451209604740143],"max":[1.75,1.1940118074417114,0.4451209604740143]},{"bufferView":1,"componentType":5126,"count":14765,"type":"VEC3"},{"bufferView":2,"componentType":5126,"count":14765,"type":"VEC2"},{"bufferView":3,"componentType":5123,"count":20844,"type":"SCALAR"}]}