{"asset":{"version":"2.0","generator":"tools/build_prop.py"},"scene":0,"scenes":[{"nodes":[0]}],"nodes":[{"name":"sofa","mesh":0}],"meshes":[{"name":"sofa","primitives":[{"attributes":{"POSITION":0,"NORMAL":1,"TEXCOORD_0":2},"indices":3,"material":0}]}],"materials":[{"name":"sofa","pbrMetallicRoughness":{"baseColorTexture":{"index":0},"metallicFactor":0,"roughnessFactor":0.55}}],"textures":[{"source":0,"sampler":0}],"samplers":[{"magFilter":9729,"minFilter":9987}],"images":[{"uri":"sofa_texture.jpg"}],"buffers":[{"uri":"sofa.bin","byteLength":240818}],"bufferViews":[{"buffer":0,"byteOffset":0,"byteLength":77988,"target":34962},{"buffer":0,"byteOffset":77988,"byteLength":77988,"target":34962},{"buffer":0,"byteOffset":155976,"byteLength":51992,"target":34962},{"buffer":0,"byteOffset":207968,"byteLength":32850,"target":34963}],"accessors":[{"bufferView":0,"componentType":5126,"count":6499,"type":"VEC3","min":[-1.5846737623214722,0.0,-0.8105618953704834],"max":[1.5846737623214722,1.7000000476837158,0.8105618953704834]},{"bufferView":1,"componentType":5126,"count":6499,"type":"VEC3"},{"bufferView":2,"componentType":5126,"count":6499,"type":"VEC2"},{"bufferView":3,"componentType":5123,"count":16425,"type":"SCALAR"}]}