{"asset":{"version":"2.0","generator":"tools/build_prop.py"},"scene":0,"scenes":[{"nodes":[0]}],"nodes":[{"name":"strawberry","mesh":0}],"meshes":[{"name":"strawberry","primitives":[{"attributes":{"POSITION":0,"NORMAL":1,"TEXCOORD_0":2},"indices":3,"material":0}]}],"materials":[{"name":"strawberry","pbrMetallicRoughness":{"baseColorTexture":{"index":0},"metallicFactor":0,"roughnessFactor":0.55}}],"textures":[{"source":0,"sampler":0}],"samplers":[{"magFilter":9729,"minFilter":9987}],"images":[{"uri":"strawberry_texture.jpg"}],"buffers":[{"uri":"strawberry.bin","byteLength":130048}],"bufferViews":[{"buffer":0,"byteOffset":0,"byteLength":44268,"target":34962},{"buffer":0,"byteOffset":44268,"byteLength":44268,"target":34962},{"buffer":0,"byteOffset":88536,"byteLength":29512,"target":34962},{"buffer":0,"byteOffset":118048,"byteLength":12000,"target":34963}],"accessors":[{"bufferView":0,"componentType":5126,"count":3689,"type":"VEC3","min":[-0.32320237159729004,0.0,-0.3232496678829193],"max":[0.32320237159729004,0.800000011920929,0.3232496678829193]},{"bufferView":1,"componentType":5126,"count":3689,"type":"VEC3"},{"bufferView":2,"componentType":5126,"count":3689,"type":"VEC2"},{"bufferView":3,"componentType":5123,"count":6000,"type":"SCALAR"}]}