{"asset":{"version":"2.0","generator":"tools/build_prop.py"},"scene":0,"scenes":[{"nodes":[0]}],"nodes":[{"name":"table_plant","mesh":0}],"meshes":[{"name":"table_plant","primitives":[{"attributes":{"POSITION":0,"NORMAL":1,"TEXCOORD_0":2},"indices":3,"material":0}]}],"materials":[{"name":"table_plant","pbrMetallicRoughness":{"baseColorTexture":{"index":0},"metallicFactor":0,"roughnessFactor":0.55}}],"textures":[{"source":0,"sampler":0}],"samplers":[{"magFilter":9729,"minFilter":9987}],"images":[{"uri":"table_plant_texture.jpg"}],"buffers":[{"uri":"table_plant.bin","byteLength":146704}],"bufferViews":[{"buffer":0,"byteOffset":0,"byteLength":49164,"target":34962},{"buffer":0,"byteOffset":49164,"byteLength":49164,"target":34962},{"buffer":0,"byteOffset":98328,"byteLength":32776,"target":34962},{"buffer":0,"byteOffset":131104,"byteLength":15600,"target":34963}],"accessors":[{"bufferView":0,"componentType":5126,"count":4097,"type":"VEC3","min":[-0.24696670472621918,0.0,-0.19111455976963043],"max":[0.24696670472621918,0.6000000238418579,0.19111455976963043]},{"bufferView":1,"componentType":5126,"count":4097,"type":"VEC3"},{"bufferView":2,"componentType":5126,"count":4097,"type":"VEC2"},{"bufferView":3,"componentType":5123,"count":7800,"type":"SCALAR"}]}