{"asset":{"version":"2.0","generator":"tools/build_prop.py"},"scene":0,"scenes":[{"nodes":[0]}],"nodes":[{"name":"teddy","mesh":0}],"meshes":[{"name":"teddy","primitives":[{"attributes":{"POSITION":0,"NORMAL":1,"TEXCOORD_0":2},"indices":3,"material":0}]}],"materials":[{"name":"teddy","pbrMetallicRoughness":{"baseColorTexture":{"index":0},"metallicFactor":0,"roughnessFactor":0.55}}],"textures":[{"source":0,"sampler":0}],"samplers":[{"magFilter":9729,"minFilter":9987}],"images":[{"uri":"teddy_texture.jpg"}],"buffers":[{"uri":"teddy.bin","byteLength":171440}],"bufferViews":[{"buffer":0,"byteOffset":0,"byteLength":54876,"target":34962},{"buffer":0,"byteOffset":54876,"byteLength":54876,"target":34962},{"buffer":0,"byteOffset":109752,"byteLength":36584,"target":34962},{"buffer":0,"byteOffset":146336,"byteLength":25104,"target":34963}],"accessors":[{"bufferView":0,"componentType":5126,"count":4573,"type":"VEC3","min":[-0.4000000059604645,0.0,-0.3590147793292999],"max":[0.4000000059604645,0.9385792016983032,0.3590147793292999]},{"bufferView":1,"componentType":5126,"count":4573,"type":"VEC3"},{"bufferView":2,"componentType":5126,"count":4573,"type":"VEC2"},{"bufferView":3,"componentType":5123,"count":12552,"type":"SCALAR"}]}