{"asset":{"version":"2.0","generator":"tools/build_prop.py"},"scene":0,"scenes":[{"nodes":[0]}],"nodes":[{"name":"wall_frame","mesh":0}],"meshes":[{"name":"wall_frame","primitives":[{"attributes":{"POSITION":0,"NORMAL":1,"TEXCOORD_0":2},"indices":3,"material":0}]}],"materials":[{"name":"wall_frame","pbrMetallicRoughness":{"baseColorTexture":{"index":0},"metallicFactor":0,"roughnessFactor":0.55}}],"textures":[{"source":0,"sampler":0}],"samplers":[{"magFilter":9729,"minFilter":9987}],"images":[{"uri":"wall_frame_texture.jpg"}],"buffers":[{"uri":"wall_frame.bin","byteLength":109382}],"bufferViews":[{"buffer":0,"byteOffset":0,"byteLength":36660,"target":34962},{"buffer":0,"byteOffset":36660,"byteLength":36660,"target":34962},{"buffer":0,"byteOffset":73320,"byteLength":24440,"target":34962},{"buffer":0,"byteOffset":97760,"byteLength":11622,"target":34963}],"accessors":[{"bufferView":0,"componentType":5126,"count":3055,"type":"VEC3","min":[-0.5656929612159729,0.0,-0.07107972353696823],"max":[0.5656929612159729,1.5,0.07107972353696823]},{"bufferView":1,"componentType":5126,"count":3055,"type":"VEC3"},{"bufferView":2,"componentType":5126,"count":3055,"type":"VEC2"},{"bufferView":3,"componentType":5123,"count":5811,"type":"SCALAR"}]}