{"asset":{"version":"2.0","generator":"tools/build_prop.py"},"scene":0,"scenes":[{"nodes":[0]}],"nodes":[{"name":"wall_sconce","mesh":0}],"meshes":[{"name":"wall_sconce","primitives":[{"attributes":{"POSITION":0,"NORMAL":1,"TEXCOORD_0":2},"indices":3,"material":0}]}],"materials":[{"name":"wall_sconce","pbrMetallicRoughness":{"baseColorTexture":{"index":0},"metallicFactor":0,"roughnessFactor":0.55}}],"textures":[{"source":0,"sampler":0}],"samplers":[{"magFilter":9729,"minFilter":9987}],"images":[{"uri":"wall_sconce_texture.jpg"}],"buffers":[{"uri":"wall_sconce.bin","byteLength":110276}],"bufferViews":[{"buffer":0,"byteOffset":0,"byteLength":35472,"target":34962},{"buffer":0,"byteOffset":35472,"byteLength":35472,"target":34962},{"buffer":0,"byteOffset":70944,"byteLength":23648,"target":34962},{"buffer":0,"byteOffset":94592,"byteLength":15684,"target":34963}],"accessors":[{"bufferView":0,"componentType":5126,"count":2956,"type":"VEC3","min":[-0.15871888399124146,0.0,-0.25],"max":[0.15871888399124146,0.6061331033706665,0.25]},{"bufferView":1,"componentType":5126,"count":2956,"type":"VEC3"},{"bufferView":2,"componentType":5126,"count":2956,"type":"VEC2"},{"bufferView":3,"componentType":5123,"count":7842,"type":"SCALAR"}]}