{"asset":{"version":"2.0","generator":"tools/build_prop.py"},"scene":0,"scenes":[{"nodes":[0]}],"nodes":[{"name":"welcome_sign","mesh":0}],"meshes":[{"name":"welcome_sign","primitives":[{"attributes":{"POSITION":0,"NORMAL":1,"TEXCOORD_0":2},"indices":3,"material":0}]}],"materials":[{"name":"welcome_sign","pbrMetallicRoughness":{"baseColorTexture":{"index":0},"metallicFactor":0,"roughnessFactor":0.55}}],"textures":[{"source":0,"sampler":0}],"samplers":[{"magFilter":9729,"minFilter":9987}],"images":[{"uri":"welcome_sign_texture.jpg"}],"buffers":[{"uri":"welcome_sign.bin","byteLength":137442}],"bufferViews":[{"buffer":0,"byteOffset":0,"byteLength":46008,"target":34962},{"buffer":0,"byteOffset":46008,"byteLength":46008,"target":34962},{"buffer":0,"byteOffset":92016,"byteLength":30672,"target":34962},{"buffer":0,"byteOffset":122688,"byteLength":14754,"target":34963}],"accessors":[{"bufferView":0,"componentType":5126,"count":3834,"type":"VEC3","min":[-0.574403703212738,0.0,-0.3996127247810364],"max":[0.574403703212738,1.7000000476837158,0.3996127247810364]},{"bufferView":1,"componentType":5126,"count":3834,"type":"VEC3"},{"bufferView":2,"componentType":5126,"count":3834,"type":"VEC2"},{"bufferView":3,"componentType":5123,"count":7377,"type":"SCALAR"}]}