{"asset":{"version":"2.0","generator":"tools/build_accessory.py"},"scene":0,"scenes":[{"nodes":[0]}],"nodes":[{"name":"backpack","mesh":0}],"meshes":[{"name":"backpack","primitives":[{"attributes":{"POSITION":0,"NORMAL":1,"TEXCOORD_0":2},"indices":3,"material":0}]}],"materials":[{"name":"backpack_0","pbrMetallicRoughness":{"baseColorFactor":[1.0,1.0,1.0,1.0],"metallicFactor":0,"roughnessFactor":0.6,"baseColorTexture":{"index":0}},"doubleSided":true}],"buffers":[{"uri":"backpack.bin","byteLength":49000}],"bufferViews":[{"buffer":0,"byteOffset":0,"byteLength":14928,"target":34962},{"buffer":0,"byteOffset":14928,"byteLength":14928,"target":34962},{"buffer":0,"byteOffset":29856,"byteLength":9952,"target":34962},{"buffer":0,"byteOffset":39808,"byteLength":9192,"target":34963}],"accessors":[{"bufferView":0,"componentType":5126,"count":1244,"type":"VEC3","min":[-0.5,-0.4851514995098114,-0.886489987373352],"max":[0.5,0.4851514995098114,0.0]},{"bufferView":1,"componentType":5126,"count":1244,"type":"VEC3"},{"bufferView":2,"componentType":5126,"count":1244,"type":"VEC2"},{"bufferView":3,"componentType":5123,"count":4596,"type":"SCALAR"}],"textures":[{"source":0,"sampler":0}],"images":[{"uri":"backpack_0.jpg"}],"samplers":[{"magFilter":9729,"minFilter":9987}]}