{"asset":{"version":"2.0","generator":"tools/build_accessory.py"},"scene":0,"scenes":[{"nodes":[0]}],"nodes":[{"name":"bowtie","mesh":0}],"meshes":[{"name":"bowtie","primitives":[{"attributes":{"POSITION":0,"NORMAL":1,"TEXCOORD_0":2},"indices":3,"material":0}]}],"materials":[{"name":"bowtie_0","pbrMetallicRoughness":{"baseColorFactor":[1.0,1.0,1.0,1.0],"metallicFactor":0,"roughnessFactor":0.6,"baseColorTexture":{"index":0}},"doubleSided":true}],"buffers":[{"uri":"bowtie.bin","byteLength":72776}],"bufferViews":[{"buffer":0,"byteOffset":0,"byteLength":24960,"target":34962},{"buffer":0,"byteOffset":24960,"byteLength":24960,"target":34962},{"buffer":0,"byteOffset":49920,"byteLength":16640,"target":34962},{"buffer":0,"byteOffset":66560,"byteLength":6216,"target":34963}],"accessors":[{"bufferView":0,"componentType":5126,"count":2080,"type":"VEC3","min":[-0.5,-0.35024556517601013,0.0],"max":[0.5,0.35024556517601013,0.3416304886341095]},{"bufferView":1,"componentType":5126,"count":2080,"type":"VEC3"},{"bufferView":2,"componentType":5126,"count":2080,"type":"VEC2"},{"bufferView":3,"componentType":5123,"count":3108,"type":"SCALAR"}],"textures":[{"source":0,"sampler":0}],"images":[{"uri":"bowtie_0.jpg"}],"samplers":[{"magFilter":9729,"minFilter":9987}]}