{"asset":{"version":"2.0","generator":"tools/build_accessory.py"},"scene":0,"scenes":[{"nodes":[0]}],"nodes":[{"name":"cane_coffee","mesh":0}],"meshes":[{"name":"cane_coffee","primitives":[{"attributes":{"POSITION":0,"NORMAL":1},"indices":2,"material":0},{"attributes":{"POSITION":3,"NORMAL":4},"indices":5,"material":1},{"attributes":{"POSITION":6,"NORMAL":7},"indices":8,"material":2},{"attributes":{"POSITION":9,"NORMAL":10},"indices":11,"material":3},{"attributes":{"POSITION":12,"NORMAL":13},"indices":14,"material":4}]}],"materials":[{"name":"cane_coffee_0","pbrMetallicRoughness":{"baseColorFactor":[0.1022,0.0343,0.0144,1.0],"metallicFactor":0,"roughnessFactor":0.6},"doubleSided":true},{"name":"cane_coffee_1","pbrMetallicRoughness":{"baseColorFactor":[0.8963,0.7605,0.552,1.0],"metallicFactor":0,"roughnessFactor":0.6},"doubleSided":true},{"name":"cane_coffee_2","pbrMetallicRoughness":{"baseColorFactor":[0.8879,0.5395,0.0296,1.0],"metallicFactor":0,"roughnessFactor":0.6},"doubleSided":true},{"name":"cane_coffee_3","pbrMetallicRoughness":{"baseColorFactor":[0.0284,0.0232,0.0212,1.0],"metallicFactor":0,"roughnessFactor":0.6},"doubleSided":true},{"name":"cane_coffee_4","pbrMetallicRoughness":{"baseColorFactor":[0.0685,0.0232,0.0091,1.0],"metallicFactor":0,"roughnessFactor":0.6},"doubleSided":true}],"buffers":[{"uri":"cane_coffee.bin","byteLength":30048}],"bufferViews":[{"buffer":0,"byteOffset":0,"byteLength":3600,"target":34962},{"buffer":0,"byteOffset":3600,"byteLength":3600,"target":34962},{"buffer":0,"byteOffset":7200,"byteLength":2568,"target":34963},{"buffer":0,"byteOffset":9768,"byteLength":4608,"target":34962},{"buffer":0,"byteOffset":14376,"byteLength":4608,"target":34962},{"buffer":0,"byteOffset":18984,"byteLength":2928,"target":34963},{"buffer":0,"byteOffset":21912,"byteLength":864,"target":34962},{"buffer":0,"byteOffset":22776,"byteLength":864,"target":34962},{"buffer":0,"byteOffset":23640,"byteLength":552,"target":34963},{"buffer":0,"byteOffset":24192,"byteLength":864,"target":34962},{"buffer":0,"byteOffset":25056,"byteLength":864,"target":34962},{"buffer":0,"byteOffset":25920,"byteLength":552,"target":34963},{"buffer":0,"byteOffset":26472,"byteLength":1200,"target":34962},{"buffer":0,"byteOffset":27672,"byteLength":1200,"target":34962},{"buffer":0,"byteOffset":28872,"byteLength":1176,"target":34963}],"accessors":[{"bufferView":0,"componentType":5126,"count":300,"type":"VEC3","min":[-0.08485476672649384,-0.9599999785423279,-0.08210369199514389],"max":[0.08485476672649384,0.35376620292663574,0.46485477685928345]},{"bufferView":1,"componentType":5126,"count":300,"type":"VEC3"},{"bufferView":2,"componentType":5123,"count":1284,"type":"SCALAR"},{"bufferView":3,"componentType":5126,"count":384,"type":"VEC3","min":[-0.08482959866523743,-0.7990803122520447,-0.08210369199514389],"max":[0.08482959866523743,0.34381234645843506,0.492821604013443]},{"bufferView":4,"componentType":5126,"count":384,"type":"VEC3"},{"bufferView":5,"componentType":5123,"count":1464,"type":"SCALAR"},{"bufferView":6,"componentType":5126,"count":72,"type":"VEC3","min":[-0.10262961685657501,-0.1599999964237213,-0.10262961685657501],"max":[0.10262961685657501,-0.03999999910593033,0.10262961685657501]},{"bufferView":7,"componentType":5126,"count":72,"type":"VEC3"},{"bufferView":8,"componentType":5123,"count":276,"type":"SCALAR"},{"bufferView":9,"componentType":5126,"count":72,"type":"VEC3","min":[-0.09688235819339752,-1.0,-0.09688235819339752],"max":[0.09688235819339752,-0.8849999904632568,0.09688235819339752]},{"bufferView":10,"componentType":5126,"count":72,"type":"VEC3"},{"bufferView":11,"componentType":5123,"count":276,"type":"SCALAR"},{"bufferView":12,"componentType":5126,"count":100,"type":"VEC3","min":[-0.11699134111404419,-0.2199999988079071,0.2800000011920929],"max":[0.11699134856462479,0.08000000566244125,0.47999998927116394]},{"bufferView":13,"componentType":5126,"count":100,"type":"VEC3"},{"bufferView":14,"componentType":5123,"count":588,"type":"SCALAR"}]}