{"asset":{"version":"2.0","generator":"tools/build_accessory.py"},"scene":0,"scenes":[{"nodes":[0]}],"nodes":[{"name":"crown_gold","mesh":0}],"meshes":[{"name":"crown_gold","primitives":[{"attributes":{"POSITION":0,"NORMAL":1,"TEXCOORD_0":2},"indices":3,"material":0}]}],"materials":[{"name":"crown_gold_0","pbrMetallicRoughness":{"baseColorFactor":[1.0,1.0,1.0,1.0],"metallicFactor":0,"roughnessFactor":0.6,"baseColorTexture":{"index":0}},"doubleSided":true}],"buffers":[{"uri":"crown_gold.bin","byteLength":56180}],"bufferViews":[{"buffer":0,"byteOffset":0,"byteLength":17580,"target":34962},{"buffer":0,"byteOffset":17580,"byteLength":17580,"target":34962},{"buffer":0,"byteOffset":35160,"byteLength":11720,"target":34962},{"buffer":0,"byteOffset":46880,"byteLength":9300,"target":34963}],"accessors":[{"bufferView":0,"componentType":5126,"count":1465,"type":"VEC3","min":[-0.5,0.0,-0.5203140377998352],"max":[0.5,0.2792382836341858,0.5203140377998352]},{"bufferView":1,"componentType":5126,"count":1465,"type":"VEC3"},{"bufferView":2,"componentType":5126,"count":1465,"type":"VEC2"},{"bufferView":3,"componentType":5123,"count":4650,"type":"SCALAR"}],"textures":[{"source":0,"sampler":0}],"images":[{"uri":"crown_gold_0.jpg"}],"samplers":[{"magFilter":9729,"minFilter":9987}]}