{"asset":{"version":"2.0","generator":"tools/build_accessory.py"},"scene":0,"scenes":[{"nodes":[0]}],"nodes":[{"name":"cup_latte","mesh":0}],"meshes":[{"name":"cup_latte","primitives":[{"attributes":{"POSITION":0,"NORMAL":1},"indices":2,"material":0},{"attributes":{"POSITION":3,"NORMAL":4},"indices":5,"material":1},{"attributes":{"POSITION":6,"NORMAL":7},"indices":8,"material":2},{"attributes":{"POSITION":9,"NORMAL":10},"indices":11,"material":3}]}],"materials":[{"name":"cup_latte_0","pbrMetallicRoughness":{"baseColorFactor":[0.9647,0.9301,0.855,1.0],"metallicFactor":0,"roughnessFactor":0.6},"doubleSided":true},{"name":"cup_latte_1","pbrMetallicRoughness":{"baseColorFactor":[0.8879,0.5395,0.0296,1.0],"metallicFactor":0,"roughnessFactor":0.6},"doubleSided":true},{"name":"cup_latte_2","pbrMetallicRoughness":{"baseColorFactor":[0.4851,0.2232,0.0782,1.0],"metallicFactor":0,"roughnessFactor":0.6},"doubleSided":true},{"name":"cup_latte_3","pbrMetallicRoughness":{"baseColorFactor":[0.9823,0.8963,0.7529,1.0],"metallicFactor":0,"roughnessFactor":0.6},"doubleSided":true}],"buffers":[{"uri":"cup_latte.bin","byteLength":40296}],"bufferViews":[{"buffer":0,"byteOffset":0,"byteLength":11172,"target":34962},{"buffer":0,"byteOffset":11172,"byteLength":11172,"target":34962},{"buffer":0,"byteOffset":22344,"byteLength":7872,"target":34963},{"buffer":0,"byteOffset":30216,"byteLength":1536,"target":34962},{"buffer":0,"byteOffset":31752,"byteLength":1536,"target":34962},{"buffer":0,"byteOffset":33288,"byteLength":1152,"target":34963},{"buffer":0,"byteOffset":34440,"byteLength":396,"target":34962},{"buffer":0,"byteOffset":34836,"byteLength":396,"target":34962},{"buffer":0,"byteOffset":35232,"byteLength":192,"target":34963},{"buffer":0,"byteOffset":35424,"byteLength":1968,"target":34962},{"buffer":0,"byteOffset":37392,"byteLength":1968,"target":34962},{"buffer":0,"byteOffset":39360,"byteLength":936,"target":34963}],"accessors":[{"bufferView":0,"componentType":5126,"count":931,"type":"VEC3","min":[-0.5,0.0,-0.5],"max":[0.5,0.42500001192092896,0.5]},{"bufferView":1,"componentType":5126,"count":931,"type":"VEC3"},{"bufferView":2,"componentType":5123,"count":3936,"type":"SCALAR"},{"bufferView":3,"componentType":5126,"count":128,"type":"VEC3","min":[-0.2840000092983246,0.2199999988079071,-0.2840000092983246],"max":[0.2840000092983246,0.2849999964237213,0.2840000092983246]},{"bufferView":4,"componentType":5126,"count":128,"type":"VEC3"},{"bufferView":5,"componentType":5123,"count":576,"type":"SCALAR"},{"bufferView":6,"componentType":5126,"count":33,"type":"VEC3","min":[-0.2824999988079071,0.36000001430511475,-0.2824999988079071],"max":[0.2824999988079071,0.36250001192092896,0.2824999988079071]},{"bufferView":7,"componentType":5126,"count":33,"type":"VEC3"},{"bufferView":8,"componentType":5123,"count":96,"type":"SCALAR"},{"bufferView":9,"componentType":5126,"count":164,"type":"VEC3","min":[-0.1679999977350235,0.35749998688697815,-0.13992294669151306],"max":[0.1679999977350235,0.3675000071525574,0.16349999606609344]},{"bufferView":10,"componentType":5126,"count":164,"type":"VEC3"},{"bufferView":11,"componentType":5123,"count":468,"type":"SCALAR"}]}