{"asset":{"version":"2.0","generator":"tools/build_accessory.py"},"scene":0,"scenes":[{"nodes":[0]}],"nodes":[{"name":"glasses_sun","mesh":0}],"meshes":[{"name":"glasses_sun","primitives":[{"attributes":{"POSITION":0,"NORMAL":1,"TEXCOORD_0":2},"indices":3,"material":0},{"attributes":{"POSITION":4,"NORMAL":5},"indices":6,"material":1}]}],"materials":[{"name":"glasses_sun_0","pbrMetallicRoughness":{"baseColorFactor":[1.0,1.0,1.0,1.0],"metallicFactor":0,"roughnessFactor":0.6,"baseColorTexture":{"index":0}},"doubleSided":true},{"name":"glasses_sun_1","pbrMetallicRoughness":{"baseColorFactor":[0.0,0.0,0.0,0.77],"metallicFactor":0,"roughnessFactor":0.6},"doubleSided":true,"alphaMode":"BLEND"}],"buffers":[{"uri":"glasses_sun.bin","byteLength":48296}],"bufferViews":[{"buffer":0,"byteOffset":0,"byteLength":14088,"target":34962},{"buffer":0,"byteOffset":14088,"byteLength":14088,"target":34962},{"buffer":0,"byteOffset":28176,"byteLength":9392,"target":34962},{"buffer":0,"byteOffset":37568,"byteLength":7992,"target":34963},{"buffer":0,"byteOffset":45560,"byteLength":1008,"target":34962},{"buffer":0,"byteOffset":46568,"byteLength":1008,"target":34962},{"buffer":0,"byteOffset":47576,"byteLength":720,"target":34963}],"accessors":[{"bufferView":0,"componentType":5126,"count":1174,"type":"VEC3","min":[-0.5,-0.1761801391839981,-0.954116702079773],"max":[0.5,0.1761801391839981,0.0]},{"bufferView":1,"componentType":5126,"count":1174,"type":"VEC3"},{"bufferView":2,"componentType":5126,"count":1174,"type":"VEC2"},{"bufferView":3,"componentType":5123,"count":3996,"type":"SCALAR"},{"bufferView":4,"componentType":5126,"count":84,"type":"VEC3","min":[-0.46926072239875793,-0.1727568656206131,-0.09347572922706604],"max":[0.4692615568637848,0.17282205820083618,-0.0026694280095398426]},{"bufferView":5,"componentType":5126,"count":84,"type":"VEC3"},{"bufferView":6,"componentType":5123,"count":360,"type":"SCALAR"}],"textures":[{"source":0,"sampler":0}],"images":[{"uri":"glasses_sun_0.jpg"}],"samplers":[{"magFilter":9729,"minFilter":9987}]}