{"asset":{"version":"2.0","generator":"tools/build_accessory.py"},"scene":0,"scenes":[{"nodes":[0]}],"nodes":[{"name":"glasses_round","mesh":0}],"meshes":[{"name":"glasses_round","primitives":[{"attributes":{"POSITION":0,"NORMAL":1,"TEXCOORD_0":2},"indices":3,"material":0},{"attributes":{"POSITION":4,"NORMAL":5,"TEXCOORD_0":6},"indices":7,"material":1},{"attributes":{"POSITION":8,"NORMAL":9,"TEXCOORD_0":10},"indices":11,"material":2}]}],"materials":[{"name":"glasses_round_0","pbrMetallicRoughness":{"baseColorFactor":[1.0,1.0,1.0,1.0],"metallicFactor":0,"roughnessFactor":0.6,"baseColorTexture":{"index":0}},"doubleSided":true},{"name":"glasses_round_1","pbrMetallicRoughness":{"baseColorFactor":[1.0,1.0,1.0,0.8354],"metallicFactor":0,"roughnessFactor":0.6,"baseColorTexture":{"index":1}},"doubleSided":true,"alphaMode":"BLEND"},{"name":"glasses_round_2","pbrMetallicRoughness":{"baseColorFactor":[1.0,1.0,1.0,1.0],"metallicFactor":0,"roughnessFactor":0.6,"baseColorTexture":{"index":2}},"doubleSided":true}],"buffers":[{"uri":"glasses_round.bin","byteLength":37512}],"bufferViews":[{"buffer":0,"byteOffset":0,"byteLength":2976,"target":34962},{"buffer":0,"byteOffset":2976,"byteLength":2976,"target":34962},{"buffer":0,"byteOffset":5952,"byteLength":1984,"target":34962},{"buffer":0,"byteOffset":7936,"byteLength":1296,"target":34963},{"buffer":0,"byteOffset":9232,"byteLength":1584,"target":34962},{"buffer":0,"byteOffset":10816,"byteLength":1584,"target":34962},{"buffer":0,"byteOffset":12400,"byteLength":1056,"target":34962},{"buffer":0,"byteOffset":13456,"byteLength":1104,"target":34963},{"buffer":0,"byteOffset":14560,"byteLength":7248,"target":34962},{"buffer":0,"byteOffset":21808,"byteLength":7248,"target":34962},{"buffer":0,"byteOffset":29056,"byteLength":4832,"target":34962},{"buffer":0,"byteOffset":33888,"byteLength":3624,"target":34963}],"accessors":[{"bufferView":0,"componentType":5126,"count":248,"type":"VEC3","min":[-0.5,-0.12639504671096802,-1.118568778038025],"max":[0.5,0.1320546269416809,-0.1101166158914566]},{"bufferView":1,"componentType":5126,"count":248,"type":"VEC3"},{"bufferView":2,"componentType":5126,"count":248,"type":"VEC2"},{"bufferView":3,"componentType":5123,"count":648,"type":"SCALAR"},{"bufferView":4,"componentType":5126,"count":132,"type":"VEC3","min":[-0.4431358873844147,-0.13602188229560852,-0.1018100157380104],"max":[0.44313594698905945,0.13682158291339874,-0.009779761545360088]},{"bufferView":5,"componentType":5126,"count":132,"type":"VEC3"},{"bufferView":6,"componentType":5126,"count":132,"type":"VEC2"},{"bufferView":7,"componentType":5123,"count":552,"type":"SCALAR"},{"bufferView":8,"componentType":5126,"count":604,"type":"VEC3","min":[-0.4905408024787903,-0.15342533588409424,-0.15234997868537903],"max":[0.4905409514904022,0.15342533588409424,0.0]},{"bufferView":9,"componentType":5126,"count":604,"type":"VEC3"},{"bufferView":10,"componentType":5126,"count":604,"type":"VEC2"},{"bufferView":11,"componentType":5123,"count":1812,"type":"SCALAR"}],"textures":[{"source":0,"sampler":0},{"source":1,"sampler":0},{"source":2,"sampler":0}],"images":[{"uri":"glasses_round_0.jpg"},{"uri":"glasses_round_1.jpg"},{"uri":"glasses_round_2.jpg"}],"samplers":[{"magFilter":9729,"minFilter":9987}]}