{"asset":{"version":"2.0","generator":"tools/build_accessory.py"},"scene":0,"scenes":[{"nodes":[0]}],"nodes":[{"name":"hat_top","mesh":0}],"meshes":[{"name":"hat_top","primitives":[{"attributes":{"POSITION":0,"NORMAL":1,"TEXCOORD_0":2},"indices":3,"material":0}]}],"materials":[{"name":"hat_top_0","pbrMetallicRoughness":{"baseColorFactor":[1.0,1.0,1.0,1.0],"metallicFactor":0,"roughnessFactor":0.6,"baseColorTexture":{"index":0}},"doubleSided":true}],"buffers":[{"uri":"hat_top.bin","byteLength":77160}],"bufferViews":[{"buffer":0,"byteOffset":0,"byteLength":23112,"target":34962},{"buffer":0,"byteOffset":23112,"byteLength":23112,"target":34962},{"buffer":0,"byteOffset":46224,"byteLength":15408,"target":34962},{"buffer":0,"byteOffset":61632,"byteLength":15528,"target":34963}],"accessors":[{"bufferView":0,"componentType":5126,"count":1926,"type":"VEC3","min":[-0.5,0.0,-0.540191650390625],"max":[0.5,0.577542245388031,0.540191650390625]},{"bufferView":1,"componentType":5126,"count":1926,"type":"VEC3"},{"bufferView":2,"componentType":5126,"count":1926,"type":"VEC2"},{"bufferView":3,"componentType":5123,"count":7764,"type":"SCALAR"}],"textures":[{"source":0,"sampler":0}],"images":[{"uri":"hat_top_0.jpg"}],"samplers":[{"magFilter":9729,"minFilter":9987}]}