{"asset":{"version":"2.0","generator":"tools/build_accessory.py"},"scene":0,"scenes":[{"nodes":[0]}],"nodes":[{"name":"hat_beret","mesh":0}],"meshes":[{"name":"hat_beret","primitives":[{"attributes":{"POSITION":0,"NORMAL":1,"TEXCOORD_0":2},"indices":3,"material":0}]}],"materials":[{"name":"hat_beret_0","pbrMetallicRoughness":{"baseColorFactor":[1.0,1.0,1.0,1.0],"metallicFactor":0,"roughnessFactor":0.6,"baseColorTexture":{"index":0}},"doubleSided":true}],"buffers":[{"uri":"hat_beret.bin","byteLength":13176}],"bufferViews":[{"buffer":0,"byteOffset":0,"byteLength":3888,"target":34962},{"buffer":0,"byteOffset":3888,"byteLength":3888,"target":34962},{"buffer":0,"byteOffset":7776,"byteLength":2592,"target":34962},{"buffer":0,"byteOffset":10368,"byteLength":2808,"target":34963}],"accessors":[{"bufferView":0,"componentType":5126,"count":324,"type":"VEC3","min":[-0.5,0.0,-0.6142653226852417],"max":[0.5,0.6306617856025696,0.6142653226852417]},{"bufferView":1,"componentType":5126,"count":324,"type":"VEC3"},{"bufferView":2,"componentType":5126,"count":324,"type":"VEC2"},{"bufferView":3,"componentType":5123,"count":1404,"type":"SCALAR"}],"textures":[{"source":0,"sampler":0}],"images":[{"uri":"hat_beret_0.jpg"}],"samplers":[{"magFilter":9729,"minFilter":9987}]}