{"asset":{"version":"2.0","generator":"tools/build_accessory.py"},"scene":0,"scenes":[{"nodes":[0]}],"nodes":[{"name":"hat_wizard","mesh":0}],"meshes":[{"name":"hat_wizard","primitives":[{"attributes":{"POSITION":0,"NORMAL":1,"TEXCOORD_0":2},"indices":3,"material":0}]}],"materials":[{"name":"hat_wizard_0","pbrMetallicRoughness":{"baseColorFactor":[1.0,1.0,1.0,1.0],"metallicFactor":0,"roughnessFactor":0.6,"baseColorTexture":{"index":0}},"doubleSided":true}],"buffers":[{"uri":"hat_wizard.bin","byteLength":33416}],"bufferViews":[{"buffer":0,"byteOffset":0,"byteLength":9804,"target":34962},{"buffer":0,"byteOffset":9804,"byteLength":9804,"target":34962},{"buffer":0,"byteOffset":19608,"byteLength":6536,"target":34962},{"buffer":0,"byteOffset":26144,"byteLength":7272,"target":34963}],"accessors":[{"bufferView":0,"componentType":5126,"count":817,"type":"VEC3","min":[-0.5,0.0,-0.48748549818992615],"max":[0.5,0.8102102875709534,0.48748549818992615]},{"bufferView":1,"componentType":5126,"count":817,"type":"VEC3"},{"bufferView":2,"componentType":5126,"count":817,"type":"VEC2"},{"bufferView":3,"componentType":5123,"count":3636,"type":"SCALAR"}],"textures":[{"source":0,"sampler":0}],"images":[{"uri":"hat_wizard_0.jpg"}],"samplers":[{"magFilter":9729,"minFilter":9987}]}