{"asset":{"version":"2.0","generator":"tools/build_accessory.py"},"scene":0,"scenes":[{"nodes":[0]}],"nodes":[{"name":"hat_cowboy","mesh":0}],"meshes":[{"name":"hat_cowboy","primitives":[{"attributes":{"POSITION":0,"NORMAL":1,"TEXCOORD_0":2},"indices":3,"material":0}]}],"materials":[{"name":"hat_cowboy_0","pbrMetallicRoughness":{"baseColorFactor":[1.0,1.0,1.0,1.0],"metallicFactor":0,"roughnessFactor":0.6,"baseColorTexture":{"index":0}},"doubleSided":true}],"buffers":[{"uri":"hat_cowboy.bin","byteLength":66088}],"bufferViews":[{"buffer":0,"byteOffset":0,"byteLength":19572,"target":34962},{"buffer":0,"byteOffset":19572,"byteLength":19572,"target":34962},{"buffer":0,"byteOffset":39144,"byteLength":13048,"target":34962},{"buffer":0,"byteOffset":52192,"byteLength":13896,"target":34963}],"accessors":[{"bufferView":0,"componentType":5126,"count":1631,"type":"VEC3","min":[-0.5,0.0,-0.619252622127533],"max":[0.5,0.4008784294128418,0.619252622127533]},{"bufferView":1,"componentType":5126,"count":1631,"type":"VEC3"},{"bufferView":2,"componentType":5126,"count":1631,"type":"VEC2"},{"bufferView":3,"componentType":5123,"count":6948,"type":"SCALAR"}],"textures":[{"source":0,"sampler":0}],"images":[{"uri":"hat_cowboy_0.jpg"}],"samplers":[{"magFilter":9729,"minFilter":9987}]}