{"asset":{"version":"2.0","generator":"tools/build_accessory.py"},"scene":0,"scenes":[{"nodes":[0]}],"nodes":[{"name":"hat_winter","mesh":0}],"meshes":[{"name":"hat_winter","primitives":[{"attributes":{"POSITION":0,"NORMAL":1,"TEXCOORD_0":2},"indices":3,"material":0}]}],"materials":[{"name":"hat_winter_0","pbrMetallicRoughness":{"baseColorFactor":[1.0,1.0,1.0,1.0],"metallicFactor":0,"roughnessFactor":0.6,"baseColorTexture":{"index":0}},"doubleSided":true}],"buffers":[{"uri":"hat_winter.bin","byteLength":26576}],"bufferViews":[{"buffer":0,"byteOffset":0,"byteLength":7428,"target":34962},{"buffer":0,"byteOffset":7428,"byteLength":7428,"target":34962},{"buffer":0,"byteOffset":14856,"byteLength":4952,"target":34962},{"buffer":0,"byteOffset":19808,"byteLength":6768,"target":34963}],"accessors":[{"bufferView":0,"componentType":5126,"count":619,"type":"VEC3","min":[-0.5,0.0,-0.5152595639228821],"max":[0.5,0.8799872994422913,0.5152595639228821]},{"bufferView":1,"componentType":5126,"count":619,"type":"VEC3"},{"bufferView":2,"componentType":5126,"count":619,"type":"VEC2"},{"bufferView":3,"componentType":5123,"count":3384,"type":"SCALAR"}],"textures":[{"source":0,"sampler":0}],"images":[{"uri":"hat_winter_0.jpg"}],"samplers":[{"magFilter":9729,"minFilter":9987}]}