{"asset":{"version":"2.0","generator":"tools/build_accessory.py"},"scene":0,"scenes":[{"nodes":[0]}],"nodes":[{"name":"wreath_laurel","mesh":0}],"meshes":[{"name":"wreath_laurel","primitives":[{"attributes":{"POSITION":0,"NORMAL":1},"indices":2,"material":0}]}],"materials":[{"name":"wreath_laurel_0","pbrMetallicRoughness":{"baseColorFactor":[1.0,0.5978,0.0,1.0],"metallicFactor":0,"roughnessFactor":0.6},"doubleSided":true}],"buffers":[{"uri":"wreath_laurel.bin","byteLength":26784}],"bufferViews":[{"buffer":0,"byteOffset":0,"byteLength":11856,"target":34962},{"buffer":0,"byteOffset":11856,"byteLength":11856,"target":34962},{"buffer":0,"byteOffset":23712,"byteLength":3072,"target":34963}],"accessors":[{"bufferView":0,"componentType":5126,"count":988,"type":"VEC3","min":[-0.5,0.0,-0.49111488461494446],"max":[0.5,0.33652299642562866,0.49111488461494446]},{"bufferView":1,"componentType":5126,"count":988,"type":"VEC3"},{"bufferView":2,"componentType":5123,"count":1536,"type":"SCALAR"}]}